<svg xmlns="http://www.w3.org/2000/svg" width="154.0mm" height="216.0mm" viewBox="0 0 154.0 216.0">
<defs><linearGradient id="bg" x1="0" y1="0" x2="0" y2="1"><stop offset="0" stop-color="#0d2b45"/><stop offset="1" stop-color="#0b2438"/></linearGradient></defs><rect x="0" y="0" width="154.0" height="216.0" fill="url(#bg)"/><g opacity="0.45"><g transform="translate(123.2,38.879999999999995) rotate(35) scale(3.2) translate(-12,-12)"><g transform="translate(0.000,0.000) scale(1.00000)"><path d="M7 10h3v-3l-3.5 -3.5a6 6 0 0 1 8 8l6 6a2 2 0 0 1 -3 3l-6 -6a6 6 0 0 1 -8 -8l3.5 3.5" fill="none" stroke="#163a5c" stroke-width="1.4" stroke-linecap="round" stroke-linejoin="round"/></g></g><g transform="translate(123.2,38.879999999999995) rotate(-35) scale(3.2) translate(-12,-12)"><g transform="translate(0.000,0.000) scale(1.00000)"><path d="M7 10h3v-3l-3.5 -3.5a6 6 0 0 1 8 8l6 6a2 2 0 0 1 -3 3l-6 -6a6 6 0 0 1 -8 -8l3.5 3.5" fill="none" stroke="#163a5c" stroke-width="1.4" stroke-linecap="round" stroke-linejoin="round"/></g></g></g><g opacity="0.45"><g transform="translate(30.8,177.11999999999998) rotate(35) scale(3.6) translate(-12,-12)"><g transform="translate(0.000,0.000) scale(1.00000)"><path d="M7 10h3v-3l-3.5 -3.5a6 6 0 0 1 8 8l6 6a2 2 0 0 1 -3 3l-6 -6a6 6 0 0 1 -8 -8l3.5 3.5" fill="none" stroke="#163a5c" stroke-width="1.4" stroke-linecap="round" stroke-linejoin="round"/></g></g><g transform="translate(30.8,177.11999999999998) rotate(-35) scale(3.6) translate(-12,-12)"><g transform="translate(0.000,0.000) scale(1.00000)"><path d="M7 10h3v-3l-3.5 -3.5a6 6 0 0 1 8 8l6 6a2 2 0 0 1 -3 3l-6 -6a6 6 0 0 1 -8 -8l3.5 3.5" fill="none" stroke="#163a5c" stroke-width="1.4" stroke-linecap="round" stroke-linejoin="round"/></g></g></g><circle cx="77.0" cy="28" r="15" fill="none" stroke="#ffffff" stroke-width="0.9"/><circle cx="77.0" cy="28" r="12.6" fill="none" stroke="#ffffff" stroke-width="0.45"/><g transform="translate(70.100,20.500) scale(0.86250)"><path d="M6.956 1.745C7.021.81 7.908.087 8.864.325l.261.066c.463.116.874.456 1.012.965.22.816.533 2.511.062 4.51a10 10 0 0 1 .443-.051c.713-.065 1.669-.072 2.516.21.518.173.994.681 1.2 1.273.184.532.16 1.162-.234 1.733q.086.18.138.363c.077.27.113.567.113.856s-.036.586-.113.856c-.039.135-.09.273-.16.404.169.387.107.819-.003 1.148a3.2 3.2 0 0 1-.488.901c.054.152.076.312.076.465 0 .305-.089.625-.253.912C13.1 15.522 12.437 16 11.5 16H8c-.605 0-1.07-.081-1.466-.218a4.8 4.8 0 0 1-.97-.484l-.048-.03c-.504-.307-.999-.609-2.068-.722C2.682 14.464 2 13.846 2 13V9c0-.85.685-1.432 1.357-1.615.849-.232 1.574-.787 2.132-1.41.56-.627.914-1.28 1.039-1.639.199-.575.356-1.539.428-2.59z" fill="#ffffff"/></g><text x="67.316" y="23.689" transform="rotate(-66.000 67.316 23.689)" font-family="Liberation Sans, Arial, DejaVu Sans, sans-serif" font-size="2.325" font-weight="bold" letter-spacing="1.0" fill="#ffffff" text-anchor="middle" dominant-baseline="central">M</text><text x="68.035" y="22.344" transform="rotate(-57.750 68.035 22.344)" font-family="Liberation Sans, Arial, DejaVu Sans, sans-serif" font-size="2.325" font-weight="bold" letter-spacing="1.0" fill="#ffffff" text-anchor="middle" dominant-baseline="central">A</text><text x="68.940" y="21.116" transform="rotate(-49.500 68.940 21.116)" font-family="Liberation Sans, Arial, DejaVu Sans, sans-serif" font-size="2.325" font-weight="bold" letter-spacing="1.0" fill="#ffffff" text-anchor="middle" dominant-baseline="central">C</text><text x="70.011" y="20.030" transform="rotate(-41.250 70.011 20.030)" font-family="Liberation Sans, Arial, DejaVu Sans, sans-serif" font-size="2.325" font-weight="bold" letter-spacing="1.0" fill="#ffffff" text-anchor="middle" dominant-baseline="central">H</text><text x="71.227" y="19.110" transform="rotate(-33.000 71.227 19.110)" font-family="Liberation Sans, Arial, DejaVu Sans, sans-serif" font-size="2.325" font-weight="bold" letter-spacing="1.0" fill="#ffffff" text-anchor="middle" dominant-baseline="central">'</text><text x="72.562" y="18.374" transform="rotate(-24.750 72.562 18.374)" font-family="Liberation Sans, Arial, DejaVu Sans, sans-serif" font-size="2.325" font-weight="bold" letter-spacing="1.0" fill="#ffffff" text-anchor="middle" dominant-baseline="central">S</text><text x="73.989" y="17.837" transform="rotate(-16.500 73.989 17.837)" font-family="Liberation Sans, Arial, DejaVu Sans, sans-serif" font-size="2.325" font-weight="bold" letter-spacing="1.0" fill="#ffffff" text-anchor="middle" dominant-baseline="central"> </text><text x="75.479" y="17.510" transform="rotate(-8.250 75.479 17.510)" font-family="Liberation Sans, Arial, DejaVu Sans, sans-serif" font-size="2.325" font-weight="bold" letter-spacing="1.0" fill="#ffffff" text-anchor="middle" dominant-baseline="central">D</text><text x="77.000" y="17.400" transform="rotate(0.000 77.000 17.400)" font-family="Liberation Sans, Arial, DejaVu Sans, sans-serif" font-size="2.325" font-weight="bold" letter-spacing="1.0" fill="#ffffff" text-anchor="middle" dominant-baseline="central">I</text><text x="78.521" y="17.510" transform="rotate(8.250 78.521 17.510)" font-family="Liberation Sans, Arial, DejaVu Sans, sans-serif" font-size="2.325" font-weight="bold" letter-spacing="1.0" fill="#ffffff" text-anchor="middle" dominant-baseline="central">R</text><text x="80.011" y="17.837" transform="rotate(16.500 80.011 17.837)" font-family="Liberation Sans, Arial, DejaVu Sans, sans-serif" font-size="2.325" font-weight="bold" letter-spacing="1.0" fill="#ffffff" text-anchor="middle" dominant-baseline="central"> </text><text x="81.438" y="18.374" transform="rotate(24.750 81.438 18.374)" font-family="Liberation Sans, Arial, DejaVu Sans, sans-serif" font-size="2.325" font-weight="bold" letter-spacing="1.0" fill="#ffffff" text-anchor="middle" dominant-baseline="central">S</text><text x="82.773" y="19.110" transform="rotate(33.000 82.773 19.110)" font-family="Liberation Sans, Arial, DejaVu Sans, sans-serif" font-size="2.325" font-weight="bold" letter-spacing="1.0" fill="#ffffff" text-anchor="middle" dominant-baseline="central">E</text><text x="83.989" y="20.030" transform="rotate(41.250 83.989 20.030)" font-family="Liberation Sans, Arial, DejaVu Sans, sans-serif" font-size="2.325" font-weight="bold" letter-spacing="1.0" fill="#ffffff" text-anchor="middle" dominant-baseline="central">L</text><text x="85.060" y="21.116" transform="rotate(49.500 85.060 21.116)" font-family="Liberation Sans, Arial, DejaVu Sans, sans-serif" font-size="2.325" font-weight="bold" letter-spacing="1.0" fill="#ffffff" text-anchor="middle" dominant-baseline="central">B</text><text x="85.965" y="22.344" transform="rotate(57.750 85.965 22.344)" font-family="Liberation Sans, Arial, DejaVu Sans, sans-serif" font-size="2.325" font-weight="bold" letter-spacing="1.0" fill="#ffffff" text-anchor="middle" dominant-baseline="central">S</text><text x="86.684" y="23.689" transform="rotate(66.000 86.684 23.689)" font-family="Liberation Sans, Arial, DejaVu Sans, sans-serif" font-size="2.325" font-weight="bold" letter-spacing="1.0" fill="#ffffff" text-anchor="middle" dominant-baseline="central">T</text><text x="69.000" y="34.954" transform="rotate(49.000 69.000 34.954)" font-family="Liberation Sans, Arial, DejaVu Sans, sans-serif" font-size="2.325" font-weight="bold" letter-spacing="1.0" fill="#ffffff" text-anchor="middle" dominant-baseline="central">M</text><text x="70.069" y="36.020" transform="rotate(40.833 70.069 36.020)" font-family="Liberation Sans, Arial, DejaVu Sans, sans-serif" font-size="2.325" font-weight="bold" letter-spacing="1.0" fill="#ffffff" text-anchor="middle" dominant-baseline="central">I</text><text x="71.279" y="36.923" transform="rotate(32.667 71.279 36.923)" font-family="Liberation Sans, Arial, DejaVu Sans, sans-serif" font-size="2.325" font-weight="bold" letter-spacing="1.0" fill="#ffffff" text-anchor="middle" dominant-baseline="central">E</text><text x="72.604" y="37.646" transform="rotate(24.500 72.604 37.646)" font-family="Liberation Sans, Arial, DejaVu Sans, sans-serif" font-size="2.325" font-weight="bold" letter-spacing="1.0" fill="#ffffff" text-anchor="middle" dominant-baseline="central">T</text><text x="74.019" y="38.172" transform="rotate(16.333 74.019 38.172)" font-family="Liberation Sans, Arial, DejaVu Sans, sans-serif" font-size="2.325" font-weight="bold" letter-spacing="1.0" fill="#ffffff" text-anchor="middle" dominant-baseline="central">W</text><text x="75.494" y="38.493" transform="rotate(8.167 75.494 38.493)" font-family="Liberation Sans, Arial, DejaVu Sans, sans-serif" font-size="2.325" font-weight="bold" letter-spacing="1.0" fill="#ffffff" text-anchor="middle" dominant-baseline="central">E</text><text x="77.000" y="38.600" transform="rotate(0.000 77.000 38.600)" font-family="Liberation Sans, Arial, DejaVu Sans, sans-serif" font-size="2.325" font-weight="bold" letter-spacing="1.0" fill="#ffffff" text-anchor="middle" dominant-baseline="central">R</text><text x="78.506" y="38.493" transform="rotate(-8.167 78.506 38.493)" font-family="Liberation Sans, Arial, DejaVu Sans, sans-serif" font-size="2.325" font-weight="bold" letter-spacing="1.0" fill="#ffffff" text-anchor="middle" dominant-baseline="central">K</text><text x="79.981" y="38.172" transform="rotate(-16.333 79.981 38.172)" font-family="Liberation Sans, Arial, DejaVu Sans, sans-serif" font-size="2.325" font-weight="bold" letter-spacing="1.0" fill="#ffffff" text-anchor="middle" dominant-baseline="central">S</text><text x="81.396" y="37.646" transform="rotate(-24.500 81.396 37.646)" font-family="Liberation Sans, Arial, DejaVu Sans, sans-serif" font-size="2.325" font-weight="bold" letter-spacing="1.0" fill="#ffffff" text-anchor="middle" dominant-baseline="central">T</text><text x="82.721" y="36.923" transform="rotate(-32.667 82.721 36.923)" font-family="Liberation Sans, Arial, DejaVu Sans, sans-serif" font-size="2.325" font-weight="bold" letter-spacing="1.0" fill="#ffffff" text-anchor="middle" dominant-baseline="central">A</text><text x="83.931" y="36.020" transform="rotate(-40.833 83.931 36.020)" font-family="Liberation Sans, Arial, DejaVu Sans, sans-serif" font-size="2.325" font-weight="bold" letter-spacing="1.0" fill="#ffffff" text-anchor="middle" dominant-baseline="central">T</text><text x="85.000" y="34.954" transform="rotate(-49.000 85.000 34.954)" font-family="Liberation Sans, Arial, DejaVu Sans, sans-serif" font-size="2.325" font-weight="bold" letter-spacing="1.0" fill="#ffffff" text-anchor="middle" dominant-baseline="central">T</text><text x="23.083" y="49" font-family="Liberation Sans, Arial, DejaVu Sans, sans-serif" font-size="10.0" letter-spacing="0.2" fill="#ffffff" text-anchor="start"><tspan font-weight="normal">24h </tspan><tspan font-weight="bold">MIETWERKSTATT</tspan></text><text x="37.557" y="57" font-family="Liberation Sans, Arial, DejaVu Sans, sans-serif" font-size="4.8" fill="#d7e0ea" text-anchor="start"><tspan font-weight="normal">Werner Paternoster · 3100 St. Pölten</tspan></text><text x="29.485" y="64" font-family="Liberation Sans, Arial, DejaVu Sans, sans-serif" font-size="4.2" fill="#7fb2e0" text-anchor="start"><tspan font-weight="normal">Mach's dir selbst – deine Werkstatt zur Selbstmiete</tspan></text><line x1="21.0" y1="70" x2="133.0" y2="70" stroke="#ffffff" stroke-width="0.4" opacity="0.35"/><text x="48.194" y="79" font-family="Liberation Sans, Arial, DejaVu Sans, sans-serif" font-size="6.4" fill="#ffffff" text-anchor="start"><tspan font-weight="bold">Unsere Leistungen</tspan></text><g transform="translate(12.000,84.800) scale(0.27500)"><path d="M5 12.5l4.2 4.2L19 7" fill="none" stroke="#7fb2e0" stroke-width="2.8" stroke-linecap="round" stroke-linejoin="round"/></g><text x="20.6" y="90.0" font-family="Liberation Sans, Arial, DejaVu Sans, sans-serif" font-size="4.6" fill="#ffffff">4 Hebebühnen bis 5,5t</text><g transform="translate(12.000,94.400) scale(0.27500)"><path d="M5 12.5l4.2 4.2L19 7" fill="none" stroke="#7fb2e0" stroke-width="2.8" stroke-linecap="round" stroke-linejoin="round"/></g><text x="20.6" y="99.6" font-family="Liberation Sans, Arial, DejaVu Sans, sans-serif" font-size="4.6" fill="#ffffff">Werkzeugwagen inklusive</text><g transform="translate(12.000,104.000) scale(0.27500)"><path d="M5 12.5l4.2 4.2L19 7" fill="none" stroke="#7fb2e0" stroke-width="2.8" stroke-linecap="round" stroke-linejoin="round"/></g><text x="20.6" y="109.2" font-family="Liberation Sans, Arial, DejaVu Sans, sans-serif" font-size="4.6" fill="#ffffff">24/7 Zugang für Kunden</text><g transform="translate(12.000,113.600) scale(0.27500)"><path d="M5 12.5l4.2 4.2L19 7" fill="none" stroke="#7fb2e0" stroke-width="2.8" stroke-linecap="round" stroke-linejoin="round"/></g><text x="20.6" y="118.8" font-family="Liberation Sans, Arial, DejaVu Sans, sans-serif" font-size="4.6" fill="#ffffff">Klimaservice &amp; Gas</text><g transform="translate(12.000,123.200) scale(0.27500)"><path d="M5 12.5l4.2 4.2L19 7" fill="none" stroke="#7fb2e0" stroke-width="2.8" stroke-linecap="round" stroke-linejoin="round"/></g><text x="20.6" y="128.4" font-family="Liberation Sans, Arial, DejaVu Sans, sans-serif" font-size="4.6" fill="#ffffff">Trockeneis-Reinigung</text><g transform="translate(12.000,132.800) scale(0.27500)"><path d="M5 12.5l4.2 4.2L19 7" fill="none" stroke="#7fb2e0" stroke-width="2.8" stroke-linecap="round" stroke-linejoin="round"/></g><text x="20.6" y="138.0" font-family="Liberation Sans, Arial, DejaVu Sans, sans-serif" font-size="4.6" fill="#ffffff">Reifenservice &amp; -handel</text><g transform="translate(81.000,84.800) scale(0.27500)"><path d="M5 12.5l4.2 4.2L19 7" fill="none" stroke="#7fb2e0" stroke-width="2.8" stroke-linecap="round" stroke-linejoin="round"/></g><text x="89.6" y="90.0" font-family="Liberation Sans, Arial, DejaVu Sans, sans-serif" font-size="4.6" fill="#ffffff">Unterbodenschutz</text><g transform="translate(81.000,94.400) scale(0.27500)"><path d="M5 12.5l4.2 4.2L19 7" fill="none" stroke="#7fb2e0" stroke-width="2.8" stroke-linecap="round" stroke-linejoin="round"/></g><text x="89.6" y="99.6" font-family="Liberation Sans, Arial, DejaVu Sans, sans-serif" font-size="4.6" fill="#ffffff">Bremsenentlüftung</text><g transform="translate(81.000,104.000) scale(0.27500)"><path d="M5 12.5l4.2 4.2L19 7" fill="none" stroke="#7fb2e0" stroke-width="2.8" stroke-linecap="round" stroke-linejoin="round"/></g><text x="89.6" y="109.2" font-family="Liberation Sans, Arial, DejaVu Sans, sans-serif" font-size="4.6" fill="#ffffff">Diagnosegerät</text><g transform="translate(81.000,113.600) scale(0.27500)"><path d="M5 12.5l4.2 4.2L19 7" fill="none" stroke="#7fb2e0" stroke-width="2.8" stroke-linecap="round" stroke-linejoin="round"/></g><text x="89.6" y="118.8" font-family="Liberation Sans, Arial, DejaVu Sans, sans-serif" font-size="4.6" fill="#ffffff">Werkstattpresse</text><g transform="translate(81.000,123.200) scale(0.27500)"><path d="M5 12.5l4.2 4.2L19 7" fill="none" stroke="#7fb2e0" stroke-width="2.8" stroke-linecap="round" stroke-linejoin="round"/></g><text x="89.6" y="128.4" font-family="Liberation Sans, Arial, DejaVu Sans, sans-serif" font-size="4.6" fill="#ffffff">Spezialwerkzeug</text><g transform="translate(81.000,132.800) scale(0.27500)"><path d="M5 12.5l4.2 4.2L19 7" fill="none" stroke="#7fb2e0" stroke-width="2.8" stroke-linecap="round" stroke-linejoin="round"/></g><text x="89.6" y="138.0" font-family="Liberation Sans, Arial, DejaVu Sans, sans-serif" font-size="4.6" fill="#ffffff">PKW-Aufbereitung</text><line x1="21.0" y1="151" x2="133.0" y2="151" stroke="#ffffff" stroke-width="0.4" opacity="0.35"/><text x="28.882" y="157" font-family="Liberation Sans, Arial, DejaVu Sans, sans-serif" font-size="3.5" fill="#d7e0ea" text-anchor="start"><tspan font-weight="normal">Anfragen ausschließlich per WhatsApp, Telegram oder Signal.</tspan></text><text x="42.759" y="162" font-family="Liberation Sans, Arial, DejaVu Sans, sans-serif" font-size="3.5" fill="#d7e0ea" text-anchor="start"><tspan font-weight="normal">Anrufe werden </tspan><tspan font-weight="bold">NICHT</tspan><tspan font-weight="normal"> entgegengenommen.</tspan></text><rect x="11.0" y="166" width="132.0" height="41" rx="3" fill="#12324f" stroke="#ffffff" stroke-opacity="0.15" stroke-width="0.4"/><rect x="15.0" y="170" width="26.0" height="26.0" rx="1.6" fill="#ffffff"/><path d="M17.000 172.000h0.667v0.667h-0.667zM17.667 172.000h0.667v0.667h-0.667zM18.333 172.000h0.667v0.667h-0.667zM19.000 172.000h0.667v0.667h-0.667zM19.667 172.000h0.667v0.667h-0.667zM20.333 172.000h0.667v0.667h-0.667zM21.000 172.000h0.667v0.667h-0.667zM23.000 172.000h0.667v0.667h-0.667zM24.333 172.000h0.667v0.667h-0.667zM25.000 172.000h0.667v0.667h-0.667zM25.667 172.000h0.667v0.667h-0.667zM27.667 172.000h0.667v0.667h-0.667zM29.000 172.000h0.667v0.667h-0.667zM29.667 172.000h0.667v0.667h-0.667zM30.333 172.000h0.667v0.667h-0.667zM31.667 172.000h0.667v0.667h-0.667zM32.333 172.000h0.667v0.667h-0.667zM33.000 172.000h0.667v0.667h-0.667zM34.333 172.000h0.667v0.667h-0.667zM35.000 172.000h0.667v0.667h-0.667zM35.667 172.000h0.667v0.667h-0.667zM36.333 172.000h0.667v0.667h-0.667zM37.000 172.000h0.667v0.667h-0.667zM37.667 172.000h0.667v0.667h-0.667zM38.333 172.000h0.667v0.667h-0.667zM17.000 172.667h0.667v0.667h-0.667zM21.000 172.667h0.667v0.667h-0.667zM22.333 172.667h0.667v0.667h-0.667zM23.000 172.667h0.667v0.667h-0.667zM23.667 172.667h0.667v0.667h-0.667zM24.333 172.667h0.667v0.667h-0.667zM25.000 172.667h0.667v0.667h-0.667zM25.667 172.667h0.667v0.667h-0.667zM26.333 172.667h0.667v0.667h-0.667zM28.333 172.667h0.667v0.667h-0.667zM31.000 172.667h0.667v0.667h-0.667zM31.667 172.667h0.667v0.667h-0.667zM32.333 172.667h0.667v0.667h-0.667zM34.333 172.667h0.667v0.667h-0.667zM38.333 172.667h0.667v0.667h-0.667zM17.000 173.333h0.667v0.667h-0.667zM18.333 173.333h0.667v0.667h-0.667zM19.000 173.333h0.667v0.667h-0.667zM19.667 173.333h0.667v0.667h-0.667zM21.000 173.333h0.667v0.667h-0.667zM22.333 173.333h0.667v0.667h-0.667zM23.667 173.333h0.667v0.667h-0.667zM24.333 173.333h0.667v0.667h-0.667zM25.000 173.333h0.667v0.667h-0.667zM26.333 173.333h0.667v0.667h-0.667zM27.000 173.333h0.667v0.667h-0.667zM29.000 173.333h0.667v0.667h-0.667zM29.667 173.333h0.667v0.667h-0.667zM30.333 173.333h0.667v0.667h-0.667zM31.667 173.333h0.667v0.667h-0.667zM32.333 173.333h0.667v0.667h-0.667zM34.333 173.333h0.667v0.667h-0.667zM35.667 173.333h0.667v0.667h-0.667zM36.333 173.333h0.667v0.667h-0.667zM37.000 173.333h0.667v0.667h-0.667zM38.333 173.333h0.667v0.667h-0.667zM17.000 174.000h0.667v0.667h-0.667zM18.333 174.000h0.667v0.667h-0.667zM19.000 174.000h0.667v0.667h-0.667zM19.667 174.000h0.667v0.667h-0.667zM21.000 174.000h0.667v0.667h-0.667zM23.667 174.000h0.667v0.667h-0.667zM27.000 174.000h0.667v0.667h-0.667zM29.000 174.000h0.667v0.667h-0.667zM31.667 174.000h0.667v0.667h-0.667zM33.000 174.000h0.667v0.667h-0.667zM34.333 174.000h0.667v0.667h-0.667zM35.667 174.000h0.667v0.667h-0.667zM36.333 174.000h0.667v0.667h-0.667zM37.000 174.000h0.667v0.667h-0.667zM38.333 174.000h0.667v0.667h-0.667zM17.000 174.667h0.667v0.667h-0.667zM18.333 174.667h0.667v0.667h-0.667zM19.000 174.667h0.667v0.667h-0.667zM19.667 174.667h0.667v0.667h-0.667zM21.000 174.667h0.667v0.667h-0.667zM23.667 174.667h0.667v0.667h-0.667zM25.667 174.667h0.667v0.667h-0.667zM26.333 174.667h0.667v0.667h-0.667zM27.000 174.667h0.667v0.667h-0.667zM29.000 174.667h0.667v0.667h-0.667zM34.333 174.667h0.667v0.667h-0.667zM35.667 174.667h0.667v0.667h-0.667zM36.333 174.667h0.667v0.667h-0.667zM37.000 174.667h0.667v0.667h-0.667zM38.333 174.667h0.667v0.667h-0.667zM17.000 175.333h0.667v0.667h-0.667zM21.000 175.333h0.667v0.667h-0.667zM24.333 175.333h0.667v0.667h-0.667zM27.000 175.333h0.667v0.667h-0.667zM27.667 175.333h0.667v0.667h-0.667zM28.333 175.333h0.667v0.667h-0.667zM29.000 175.333h0.667v0.667h-0.667zM34.333 175.333h0.667v0.667h-0.667zM38.333 175.333h0.667v0.667h-0.667zM17.000 176.000h0.667v0.667h-0.667zM17.667 176.000h0.667v0.667h-0.667zM18.333 176.000h0.667v0.667h-0.667zM19.000 176.000h0.667v0.667h-0.667zM19.667 176.000h0.667v0.667h-0.667zM20.333 176.000h0.667v0.667h-0.667zM21.000 176.000h0.667v0.667h-0.667zM22.333 176.000h0.667v0.667h-0.667zM23.667 176.000h0.667v0.667h-0.667zM25.000 176.000h0.667v0.667h-0.667zM26.333 176.000h0.667v0.667h-0.667zM27.667 176.000h0.667v0.667h-0.667zM29.000 176.000h0.667v0.667h-0.667zM30.333 176.000h0.667v0.667h-0.667zM31.667 176.000h0.667v0.667h-0.667zM33.000 176.000h0.667v0.667h-0.667zM34.333 176.000h0.667v0.667h-0.667zM35.000 176.000h0.667v0.667h-0.667zM35.667 176.000h0.667v0.667h-0.667zM36.333 176.000h0.667v0.667h-0.667zM37.000 176.000h0.667v0.667h-0.667zM37.667 176.000h0.667v0.667h-0.667zM38.333 176.000h0.667v0.667h-0.667zM23.000 176.667h0.667v0.667h-0.667zM24.333 176.667h0.667v0.667h-0.667zM25.667 176.667h0.667v0.667h-0.667zM27.000 176.667h0.667v0.667h-0.667zM27.667 176.667h0.667v0.667h-0.667zM28.333 176.667h0.667v0.667h-0.667zM29.667 176.667h0.667v0.667h-0.667zM32.333 176.667h0.667v0.667h-0.667zM33.000 176.667h0.667v0.667h-0.667zM17.667 177.333h0.667v0.667h-0.667zM18.333 177.333h0.667v0.667h-0.667zM19.000 177.333h0.667v0.667h-0.667zM20.333 177.333h0.667v0.667h-0.667zM21.000 177.333h0.667v0.667h-0.667zM23.667 177.333h0.667v0.667h-0.667zM27.000 177.333h0.667v0.667h-0.667zM27.667 177.333h0.667v0.667h-0.667zM28.333 177.333h0.667v0.667h-0.667zM31.000 177.333h0.667v0.667h-0.667zM31.667 177.333h0.667v0.667h-0.667zM33.000 177.333h0.667v0.667h-0.667zM37.000 177.333h0.667v0.667h-0.667zM37.667 177.333h0.667v0.667h-0.667zM17.000 178.000h0.667v0.667h-0.667zM19.000 178.000h0.667v0.667h-0.667zM19.667 178.000h0.667v0.667h-0.667zM22.333 178.000h0.667v0.667h-0.667zM23.667 178.000h0.667v0.667h-0.667zM24.333 178.000h0.667v0.667h-0.667zM25.000 178.000h0.667v0.667h-0.667zM26.333 178.000h0.667v0.667h-0.667zM27.000 178.000h0.667v0.667h-0.667zM27.667 178.000h0.667v0.667h-0.667zM28.333 178.000h0.667v0.667h-0.667zM29.000 178.000h0.667v0.667h-0.667zM29.667 178.000h0.667v0.667h-0.667zM30.333 178.000h0.667v0.667h-0.667zM31.000 178.000h0.667v0.667h-0.667zM32.333 178.000h0.667v0.667h-0.667zM33.000 178.000h0.667v0.667h-0.667zM34.333 178.000h0.667v0.667h-0.667zM35.000 178.000h0.667v0.667h-0.667zM36.333 178.000h0.667v0.667h-0.667zM37.000 178.000h0.667v0.667h-0.667zM38.333 178.000h0.667v0.667h-0.667zM17.667 178.667h0.667v0.667h-0.667zM18.333 178.667h0.667v0.667h-0.667zM19.000 178.667h0.667v0.667h-0.667zM19.667 178.667h0.667v0.667h-0.667zM20.333 178.667h0.667v0.667h-0.667zM21.000 178.667h0.667v0.667h-0.667zM21.667 178.667h0.667v0.667h-0.667zM23.000 178.667h0.667v0.667h-0.667zM23.667 178.667h0.667v0.667h-0.667zM25.667 178.667h0.667v0.667h-0.667zM27.000 178.667h0.667v0.667h-0.667zM29.000 178.667h0.667v0.667h-0.667zM30.333 178.667h0.667v0.667h-0.667zM32.333 178.667h0.667v0.667h-0.667zM35.000 178.667h0.667v0.667h-0.667zM35.667 178.667h0.667v0.667h-0.667zM36.333 178.667h0.667v0.667h-0.667zM37.667 178.667h0.667v0.667h-0.667zM38.333 178.667h0.667v0.667h-0.667zM17.000 179.333h0.667v0.667h-0.667zM19.000 179.333h0.667v0.667h-0.667zM21.667 179.333h0.667v0.667h-0.667zM27.000 179.333h0.667v0.667h-0.667zM27.667 179.333h0.667v0.667h-0.667zM28.333 179.333h0.667v0.667h-0.667zM29.667 179.333h0.667v0.667h-0.667zM30.333 179.333h0.667v0.667h-0.667zM32.333 179.333h0.667v0.667h-0.667zM33.000 179.333h0.667v0.667h-0.667zM34.333 179.333h0.667v0.667h-0.667zM35.000 179.333h0.667v0.667h-0.667zM36.333 179.333h0.667v0.667h-0.667zM17.000 180.000h0.667v0.667h-0.667zM18.333 180.000h0.667v0.667h-0.667zM19.667 180.000h0.667v0.667h-0.667zM20.333 180.000h0.667v0.667h-0.667zM21.000 180.000h0.667v0.667h-0.667zM22.333 180.000h0.667v0.667h-0.667zM23.667 180.000h0.667v0.667h-0.667zM24.333 180.000h0.667v0.667h-0.667zM25.000 180.000h0.667v0.667h-0.667zM25.667 180.000h0.667v0.667h-0.667zM30.333 180.000h0.667v0.667h-0.667zM31.667 180.000h0.667v0.667h-0.667zM32.333 180.000h0.667v0.667h-0.667zM33.667 180.000h0.667v0.667h-0.667zM35.000 180.000h0.667v0.667h-0.667zM35.667 180.000h0.667v0.667h-0.667zM36.333 180.000h0.667v0.667h-0.667zM38.333 180.000h0.667v0.667h-0.667zM17.000 180.667h0.667v0.667h-0.667zM17.667 180.667h0.667v0.667h-0.667zM18.333 180.667h0.667v0.667h-0.667zM19.000 180.667h0.667v0.667h-0.667zM19.667 180.667h0.667v0.667h-0.667zM20.333 180.667h0.667v0.667h-0.667zM21.667 180.667h0.667v0.667h-0.667zM25.000 180.667h0.667v0.667h-0.667zM28.333 180.667h0.667v0.667h-0.667zM30.333 180.667h0.667v0.667h-0.667zM31.000 180.667h0.667v0.667h-0.667zM31.667 180.667h0.667v0.667h-0.667zM33.000 180.667h0.667v0.667h-0.667zM33.667 180.667h0.667v0.667h-0.667zM35.000 180.667h0.667v0.667h-0.667zM37.667 180.667h0.667v0.667h-0.667zM17.000 181.333h0.667v0.667h-0.667zM17.667 181.333h0.667v0.667h-0.667zM18.333 181.333h0.667v0.667h-0.667zM19.000 181.333h0.667v0.667h-0.667zM19.667 181.333h0.667v0.667h-0.667zM21.000 181.333h0.667v0.667h-0.667zM21.667 181.333h0.667v0.667h-0.667zM22.333 181.333h0.667v0.667h-0.667zM23.000 181.333h0.667v0.667h-0.667zM24.333 181.333h0.667v0.667h-0.667zM25.000 181.333h0.667v0.667h-0.667zM27.000 181.333h0.667v0.667h-0.667zM27.667 181.333h0.667v0.667h-0.667zM29.000 181.333h0.667v0.667h-0.667zM29.667 181.333h0.667v0.667h-0.667zM30.333 181.333h0.667v0.667h-0.667zM34.333 181.333h0.667v0.667h-0.667zM36.333 181.333h0.667v0.667h-0.667zM17.667 182.000h0.667v0.667h-0.667zM18.333 182.000h0.667v0.667h-0.667zM19.000 182.000h0.667v0.667h-0.667zM19.667 182.000h0.667v0.667h-0.667zM21.667 182.000h0.667v0.667h-0.667zM22.333 182.000h0.667v0.667h-0.667zM23.000 182.000h0.667v0.667h-0.667zM23.667 182.000h0.667v0.667h-0.667zM24.333 182.000h0.667v0.667h-0.667zM25.667 182.000h0.667v0.667h-0.667zM26.333 182.000h0.667v0.667h-0.667zM27.667 182.000h0.667v0.667h-0.667zM29.000 182.000h0.667v0.667h-0.667zM31.000 182.000h0.667v0.667h-0.667zM31.667 182.000h0.667v0.667h-0.667zM33.667 182.000h0.667v0.667h-0.667zM34.333 182.000h0.667v0.667h-0.667zM35.000 182.000h0.667v0.667h-0.667zM36.333 182.000h0.667v0.667h-0.667zM37.000 182.000h0.667v0.667h-0.667zM17.000 182.667h0.667v0.667h-0.667zM17.667 182.667h0.667v0.667h-0.667zM18.333 182.667h0.667v0.667h-0.667zM19.000 182.667h0.667v0.667h-0.667zM20.333 182.667h0.667v0.667h-0.667zM21.000 182.667h0.667v0.667h-0.667zM21.667 182.667h0.667v0.667h-0.667zM22.333 182.667h0.667v0.667h-0.667zM23.000 182.667h0.667v0.667h-0.667zM23.667 182.667h0.667v0.667h-0.667zM29.000 182.667h0.667v0.667h-0.667zM30.333 182.667h0.667v0.667h-0.667zM31.000 182.667h0.667v0.667h-0.667zM31.667 182.667h0.667v0.667h-0.667zM32.333 182.667h0.667v0.667h-0.667zM33.667 182.667h0.667v0.667h-0.667zM34.333 182.667h0.667v0.667h-0.667zM35.667 182.667h0.667v0.667h-0.667zM37.000 182.667h0.667v0.667h-0.667zM17.000 183.333h0.667v0.667h-0.667zM21.667 183.333h0.667v0.667h-0.667zM22.333 183.333h0.667v0.667h-0.667zM23.000 183.333h0.667v0.667h-0.667zM23.667 183.333h0.667v0.667h-0.667zM24.333 183.333h0.667v0.667h-0.667zM25.000 183.333h0.667v0.667h-0.667zM25.667 183.333h0.667v0.667h-0.667zM27.000 183.333h0.667v0.667h-0.667zM28.333 183.333h0.667v0.667h-0.667zM30.333 183.333h0.667v0.667h-0.667zM32.333 183.333h0.667v0.667h-0.667zM34.333 183.333h0.667v0.667h-0.667zM35.667 183.333h0.667v0.667h-0.667zM36.333 183.333h0.667v0.667h-0.667zM37.667 183.333h0.667v0.667h-0.667zM38.333 183.333h0.667v0.667h-0.667zM18.333 184.000h0.667v0.667h-0.667zM19.000 184.000h0.667v0.667h-0.667zM19.667 184.000h0.667v0.667h-0.667zM21.000 184.000h0.667v0.667h-0.667zM21.667 184.000h0.667v0.667h-0.667zM22.333 184.000h0.667v0.667h-0.667zM23.000 184.000h0.667v0.667h-0.667zM23.667 184.000h0.667v0.667h-0.667zM25.000 184.000h0.667v0.667h-0.667zM26.333 184.000h0.667v0.667h-0.667zM27.000 184.000h0.667v0.667h-0.667zM28.333 184.000h0.667v0.667h-0.667zM29.000 184.000h0.667v0.667h-0.667zM31.000 184.000h0.667v0.667h-0.667zM31.667 184.000h0.667v0.667h-0.667zM35.000 184.000h0.667v0.667h-0.667zM35.667 184.000h0.667v0.667h-0.667zM37.000 184.000h0.667v0.667h-0.667zM37.667 184.000h0.667v0.667h-0.667zM17.000 184.667h0.667v0.667h-0.667zM17.667 184.667h0.667v0.667h-0.667zM18.333 184.667h0.667v0.667h-0.667zM19.000 184.667h0.667v0.667h-0.667zM25.000 184.667h0.667v0.667h-0.667zM29.667 184.667h0.667v0.667h-0.667zM33.000 184.667h0.667v0.667h-0.667zM33.667 184.667h0.667v0.667h-0.667zM35.667 184.667h0.667v0.667h-0.667zM37.667 184.667h0.667v0.667h-0.667zM38.333 184.667h0.667v0.667h-0.667zM17.000 185.333h0.667v0.667h-0.667zM17.667 185.333h0.667v0.667h-0.667zM21.000 185.333h0.667v0.667h-0.667zM21.667 185.333h0.667v0.667h-0.667zM25.000 185.333h0.667v0.667h-0.667zM27.000 185.333h0.667v0.667h-0.667zM31.667 185.333h0.667v0.667h-0.667zM33.000 185.333h0.667v0.667h-0.667zM35.000 185.333h0.667v0.667h-0.667zM36.333 185.333h0.667v0.667h-0.667zM37.000 185.333h0.667v0.667h-0.667zM38.333 185.333h0.667v0.667h-0.667zM17.000 186.000h0.667v0.667h-0.667zM18.333 186.000h0.667v0.667h-0.667zM20.333 186.000h0.667v0.667h-0.667zM22.333 186.000h0.667v0.667h-0.667zM25.000 186.000h0.667v0.667h-0.667zM25.667 186.000h0.667v0.667h-0.667zM30.333 186.000h0.667v0.667h-0.667zM31.000 186.000h0.667v0.667h-0.667zM32.333 186.000h0.667v0.667h-0.667zM33.667 186.000h0.667v0.667h-0.667zM34.333 186.000h0.667v0.667h-0.667zM36.333 186.000h0.667v0.667h-0.667zM37.000 186.000h0.667v0.667h-0.667zM38.333 186.000h0.667v0.667h-0.667zM19.667 186.667h0.667v0.667h-0.667zM21.000 186.667h0.667v0.667h-0.667zM21.667 186.667h0.667v0.667h-0.667zM22.333 186.667h0.667v0.667h-0.667zM23.000 186.667h0.667v0.667h-0.667zM23.667 186.667h0.667v0.667h-0.667zM24.333 186.667h0.667v0.667h-0.667zM25.667 186.667h0.667v0.667h-0.667zM27.000 186.667h0.667v0.667h-0.667zM27.667 186.667h0.667v0.667h-0.667zM29.000 186.667h0.667v0.667h-0.667zM29.667 186.667h0.667v0.667h-0.667zM30.333 186.667h0.667v0.667h-0.667zM31.000 186.667h0.667v0.667h-0.667zM32.333 186.667h0.667v0.667h-0.667zM33.000 186.667h0.667v0.667h-0.667zM33.667 186.667h0.667v0.667h-0.667zM34.333 186.667h0.667v0.667h-0.667zM35.000 186.667h0.667v0.667h-0.667zM36.333 186.667h0.667v0.667h-0.667zM37.667 186.667h0.667v0.667h-0.667zM38.333 186.667h0.667v0.667h-0.667zM17.667 187.333h0.667v0.667h-0.667zM20.333 187.333h0.667v0.667h-0.667zM24.333 187.333h0.667v0.667h-0.667zM26.333 187.333h0.667v0.667h-0.667zM27.000 187.333h0.667v0.667h-0.667zM28.333 187.333h0.667v0.667h-0.667zM30.333 187.333h0.667v0.667h-0.667zM34.333 187.333h0.667v0.667h-0.667zM35.000 187.333h0.667v0.667h-0.667zM35.667 187.333h0.667v0.667h-0.667zM36.333 187.333h0.667v0.667h-0.667zM38.333 187.333h0.667v0.667h-0.667zM17.000 188.000h0.667v0.667h-0.667zM18.333 188.000h0.667v0.667h-0.667zM19.000 188.000h0.667v0.667h-0.667zM19.667 188.000h0.667v0.667h-0.667zM20.333 188.000h0.667v0.667h-0.667zM21.000 188.000h0.667v0.667h-0.667zM21.667 188.000h0.667v0.667h-0.667zM25.667 188.000h0.667v0.667h-0.667zM27.000 188.000h0.667v0.667h-0.667zM27.667 188.000h0.667v0.667h-0.667zM28.333 188.000h0.667v0.667h-0.667zM29.000 188.000h0.667v0.667h-0.667zM29.667 188.000h0.667v0.667h-0.667zM31.667 188.000h0.667v0.667h-0.667zM33.000 188.000h0.667v0.667h-0.667zM33.667 188.000h0.667v0.667h-0.667zM34.333 188.000h0.667v0.667h-0.667zM35.000 188.000h0.667v0.667h-0.667zM35.667 188.000h0.667v0.667h-0.667zM36.333 188.000h0.667v0.667h-0.667zM37.667 188.000h0.667v0.667h-0.667zM22.333 188.667h0.667v0.667h-0.667zM23.000 188.667h0.667v0.667h-0.667zM23.667 188.667h0.667v0.667h-0.667zM24.333 188.667h0.667v0.667h-0.667zM25.667 188.667h0.667v0.667h-0.667zM27.000 188.667h0.667v0.667h-0.667zM28.333 188.667h0.667v0.667h-0.667zM29.667 188.667h0.667v0.667h-0.667zM31.000 188.667h0.667v0.667h-0.667zM31.667 188.667h0.667v0.667h-0.667zM33.000 188.667h0.667v0.667h-0.667zM35.667 188.667h0.667v0.667h-0.667zM36.333 188.667h0.667v0.667h-0.667zM17.000 189.333h0.667v0.667h-0.667zM17.667 189.333h0.667v0.667h-0.667zM18.333 189.333h0.667v0.667h-0.667zM19.000 189.333h0.667v0.667h-0.667zM19.667 189.333h0.667v0.667h-0.667zM20.333 189.333h0.667v0.667h-0.667zM21.000 189.333h0.667v0.667h-0.667zM23.000 189.333h0.667v0.667h-0.667zM24.333 189.333h0.667v0.667h-0.667zM25.667 189.333h0.667v0.667h-0.667zM28.333 189.333h0.667v0.667h-0.667zM29.667 189.333h0.667v0.667h-0.667zM30.333 189.333h0.667v0.667h-0.667zM31.000 189.333h0.667v0.667h-0.667zM32.333 189.333h0.667v0.667h-0.667zM33.000 189.333h0.667v0.667h-0.667zM34.333 189.333h0.667v0.667h-0.667zM35.667 189.333h0.667v0.667h-0.667zM17.000 190.000h0.667v0.667h-0.667zM21.000 190.000h0.667v0.667h-0.667zM22.333 190.000h0.667v0.667h-0.667zM23.667 190.000h0.667v0.667h-0.667zM24.333 190.000h0.667v0.667h-0.667zM25.000 190.000h0.667v0.667h-0.667zM26.333 190.000h0.667v0.667h-0.667zM27.667 190.000h0.667v0.667h-0.667zM28.333 190.000h0.667v0.667h-0.667zM30.333 190.000h0.667v0.667h-0.667zM32.333 190.000h0.667v0.667h-0.667zM33.000 190.000h0.667v0.667h-0.667zM35.667 190.000h0.667v0.667h-0.667zM36.333 190.000h0.667v0.667h-0.667zM37.000 190.000h0.667v0.667h-0.667zM37.667 190.000h0.667v0.667h-0.667zM17.000 190.667h0.667v0.667h-0.667zM18.333 190.667h0.667v0.667h-0.667zM19.000 190.667h0.667v0.667h-0.667zM19.667 190.667h0.667v0.667h-0.667zM21.000 190.667h0.667v0.667h-0.667zM24.333 190.667h0.667v0.667h-0.667zM25.667 190.667h0.667v0.667h-0.667zM26.333 190.667h0.667v0.667h-0.667zM27.667 190.667h0.667v0.667h-0.667zM28.333 190.667h0.667v0.667h-0.667zM29.000 190.667h0.667v0.667h-0.667zM31.667 190.667h0.667v0.667h-0.667zM32.333 190.667h0.667v0.667h-0.667zM33.000 190.667h0.667v0.667h-0.667zM33.667 190.667h0.667v0.667h-0.667zM34.333 190.667h0.667v0.667h-0.667zM35.000 190.667h0.667v0.667h-0.667zM35.667 190.667h0.667v0.667h-0.667zM37.000 190.667h0.667v0.667h-0.667zM37.667 190.667h0.667v0.667h-0.667zM17.000 191.333h0.667v0.667h-0.667zM18.333 191.333h0.667v0.667h-0.667zM19.000 191.333h0.667v0.667h-0.667zM19.667 191.333h0.667v0.667h-0.667zM21.000 191.333h0.667v0.667h-0.667zM22.333 191.333h0.667v0.667h-0.667zM23.000 191.333h0.667v0.667h-0.667zM24.333 191.333h0.667v0.667h-0.667zM25.000 191.333h0.667v0.667h-0.667zM25.667 191.333h0.667v0.667h-0.667zM27.000 191.333h0.667v0.667h-0.667zM27.667 191.333h0.667v0.667h-0.667zM29.000 191.333h0.667v0.667h-0.667zM29.667 191.333h0.667v0.667h-0.667zM31.667 191.333h0.667v0.667h-0.667zM32.333 191.333h0.667v0.667h-0.667zM33.000 191.333h0.667v0.667h-0.667zM35.000 191.333h0.667v0.667h-0.667zM36.333 191.333h0.667v0.667h-0.667zM37.667 191.333h0.667v0.667h-0.667zM38.333 191.333h0.667v0.667h-0.667zM17.000 192.000h0.667v0.667h-0.667zM18.333 192.000h0.667v0.667h-0.667zM19.000 192.000h0.667v0.667h-0.667zM19.667 192.000h0.667v0.667h-0.667zM21.000 192.000h0.667v0.667h-0.667zM22.333 192.000h0.667v0.667h-0.667zM23.000 192.000h0.667v0.667h-0.667zM23.667 192.000h0.667v0.667h-0.667zM24.333 192.000h0.667v0.667h-0.667zM25.000 192.000h0.667v0.667h-0.667zM25.667 192.000h0.667v0.667h-0.667zM26.333 192.000h0.667v0.667h-0.667zM29.000 192.000h0.667v0.667h-0.667zM30.333 192.000h0.667v0.667h-0.667zM31.000 192.000h0.667v0.667h-0.667zM31.667 192.000h0.667v0.667h-0.667zM32.333 192.000h0.667v0.667h-0.667zM33.000 192.000h0.667v0.667h-0.667zM33.667 192.000h0.667v0.667h-0.667zM34.333 192.000h0.667v0.667h-0.667zM35.000 192.000h0.667v0.667h-0.667zM36.333 192.000h0.667v0.667h-0.667zM17.000 192.667h0.667v0.667h-0.667zM21.000 192.667h0.667v0.667h-0.667zM22.333 192.667h0.667v0.667h-0.667zM23.000 192.667h0.667v0.667h-0.667zM23.667 192.667h0.667v0.667h-0.667zM24.333 192.667h0.667v0.667h-0.667zM25.667 192.667h0.667v0.667h-0.667zM27.000 192.667h0.667v0.667h-0.667zM27.667 192.667h0.667v0.667h-0.667zM28.333 192.667h0.667v0.667h-0.667zM29.000 192.667h0.667v0.667h-0.667zM30.333 192.667h0.667v0.667h-0.667zM32.333 192.667h0.667v0.667h-0.667zM33.000 192.667h0.667v0.667h-0.667zM33.667 192.667h0.667v0.667h-0.667zM34.333 192.667h0.667v0.667h-0.667zM35.000 192.667h0.667v0.667h-0.667zM35.667 192.667h0.667v0.667h-0.667zM38.333 192.667h0.667v0.667h-0.667zM17.000 193.333h0.667v0.667h-0.667zM17.667 193.333h0.667v0.667h-0.667zM18.333 193.333h0.667v0.667h-0.667zM19.000 193.333h0.667v0.667h-0.667zM19.667 193.333h0.667v0.667h-0.667zM20.333 193.333h0.667v0.667h-0.667zM21.000 193.333h0.667v0.667h-0.667zM23.000 193.333h0.667v0.667h-0.667zM24.333 193.333h0.667v0.667h-0.667zM25.000 193.333h0.667v0.667h-0.667zM26.333 193.333h0.667v0.667h-0.667zM27.667 193.333h0.667v0.667h-0.667zM29.667 193.333h0.667v0.667h-0.667zM30.333 193.333h0.667v0.667h-0.667zM31.000 193.333h0.667v0.667h-0.667zM32.333 193.333h0.667v0.667h-0.667zM33.667 193.333h0.667v0.667h-0.667zM35.667 193.333h0.667v0.667h-0.667zM37.000 193.333h0.667v0.667h-0.667z" fill="#000000" shape-rendering="crispEdges"/><text x="64.918" y="174.5" font-family="Liberation Sans, Arial, DejaVu Sans, sans-serif" font-size="3.4" fill="#d7e0ea" text-anchor="start"><tspan font-weight="normal">Termine &amp; Infos – einfach scannen</tspan></text><g transform="translate(60.548,180.700) scale(0.23333)"><path d="M17.472 14.382c-.297-.149-1.758-.867-2.03-.967-.273-.099-.471-.148-.67.15-.197.297-.767.966-.94 1.164-.173.199-.347.223-.644.075-.297-.15-1.255-.463-2.39-1.475-.883-.788-1.48-1.761-1.653-2.059-.173-.297-.018-.458.13-.606.134-.133.298-.347.446-.52.149-.174.198-.298.298-.497.099-.198.05-.371-.025-.52-.075-.149-.669-1.612-.916-2.207-.242-.579-.487-.5-.669-.51-.173-.008-.371-.01-.57-.01-.198 0-.52.074-.792.372-.272.297-1.04 1.016-1.04 2.479 0 1.462 1.065 2.875 1.213 3.074.149.198 2.096 3.2 5.077 4.487.709.306 1.262.489 1.694.625.712.227 1.36.195 1.871.118.571-.085 1.758-.719 2.006-1.413.248-.694.248-1.289.173-1.413-.074-.124-.272-.198-.57-.347m-5.421 7.403h-.004a9.87 9.87 0 01-5.031-1.378l-.361-.214-3.741.982.998-3.648-.235-.374a9.86 9.86 0 01-1.51-5.26c.001-5.45 4.436-9.884 9.888-9.884 2.64 0 5.122 1.03 6.988 2.898a9.825 9.825 0 012.893 6.994c-.003 5.45-4.437 9.884-9.885 9.884m8.413-18.297A11.815 11.815 0 0012.05 0C5.495 0 .16 5.335.157 11.892c0 2.096.547 4.142 1.588 5.945L.057 24l6.305-1.654a11.882 11.882 0 005.683 1.448h.005c6.554 0 11.89-5.335 11.893-11.893a11.821 11.821 0 00-3.48-8.413Z" fill="#ffffff"/></g><text x="87.100" y="185.228" font-family="Liberation Sans, Arial, DejaVu Sans, sans-serif" font-size="4.8" font-weight="bold" fill="#ffffff" text-anchor="middle">+43 664 5171370</text><g transform="translate(108.052,180.700) scale(0.23333)"><path d="M11.944 0A12 12 0 0 0 0 12a12 12 0 0 0 12 12 12 12 0 0 0 12-12A12 12 0 0 0 12 0a12 12 0 0 0-.056 0zm4.962 7.224c.1-.002.321.023.465.14a.506.506 0 0 1 .171.325c.016.093.036.306.02.472-.18 1.898-.962 6.502-1.36 8.627-.168.9-.499 1.201-.82 1.23-.696.065-1.225-.46-1.9-.902-1.056-.693-1.653-1.124-2.678-1.8-1.185-.78-.417-1.21.258-1.91.177-.184 3.247-2.977 3.307-3.23.007-.032.014-.15-.056-.212s-.174-.041-.249-.024c-.106.024-1.793 1.14-5.061 3.345-.48.33-.913.49-1.302.48-.428-.008-1.252-.241-1.865-.44-.752-.245-1.349-.374-1.297-.789.027-.216.325-.437.893-.663 3.498-1.524 5.83-2.529 6.998-3.014 3.332-1.386 4.025-1.627 4.476-1.635z" fill="#ffffff"/></g><g transform="translate(115.852,180.700) scale(0.23333)"><path d="M12 0q-.934 0-1.83.139l.17 1.111a11 11 0 0 1 3.32 0l.172-1.111A12 12 0 0 0 12 0M9.152.34A12 12 0 0 0 5.77 1.742l.584.961a10.8 10.8 0 0 1 3.066-1.27zm5.696 0-.268 1.094a10.8 10.8 0 0 1 3.066 1.27l.584-.962A12 12 0 0 0 14.848.34M12 2.25a9.75 9.75 0 0 0-8.539 14.459c.074.134.1.292.064.441l-1.013 4.338 4.338-1.013a.62.62 0 0 1 .441.064A9.7 9.7 0 0 0 12 21.75c5.385 0 9.75-4.365 9.75-9.75S17.385 2.25 12 2.25m-7.092.068a12 12 0 0 0-2.59 2.59l.909.664a11 11 0 0 1 2.345-2.345zm14.184 0-.664.909a11 11 0 0 1 2.345 2.345l.909-.664a12 12 0 0 0-2.59-2.59M1.742 5.77A12 12 0 0 0 .34 9.152l1.094.268a10.8 10.8 0 0 1 1.269-3.066zm20.516 0-.961.584a10.8 10.8 0 0 1 1.27 3.066l1.093-.268a12 12 0 0 0-1.402-3.383M.138 10.168A12 12 0 0 0 0 12q0 .934.139 1.83l1.111-.17A11 11 0 0 1 1.125 12q0-.848.125-1.66zm23.723.002-1.111.17q.125.812.125 1.66c0 .848-.042 1.12-.125 1.66l1.111.172a12.1 12.1 0 0 0 0-3.662M1.434 14.58l-1.094.268a12 12 0 0 0 .96 2.591l-.265 1.14 1.096.255.36-1.539-.188-.365a10.8 10.8 0 0 1-.87-2.35m21.133 0a10.8 10.8 0 0 1-1.27 3.067l.962.584a12 12 0 0 0 1.402-3.383zm-1.793 3.848a11 11 0 0 1-2.345 2.345l.664.909a12 12 0 0 0 2.59-2.59zm-19.959 1.1L.357 21.48a1.8 1.8 0 0 0 2.162 2.161l1.954-.455-.256-1.095-1.953.455a.675.675 0 0 1-.81-.81l.454-1.954zm16.832 1.769a10.8 10.8 0 0 1-3.066 1.27l.268 1.093a12 12 0 0 0 3.382-1.402zm-10.94.213-1.54.36.256 1.095 1.139-.266c.814.415 1.683.74 2.591.961l.268-1.094a10.8 10.8 0 0 1-2.35-.869zm3.634 1.24-.172 1.111a12.1 12.1 0 0 0 3.662 0l-.17-1.111q-.812.125-1.66.125a11 11 0 0 1-1.66-.125" fill="#ffffff"/></g><text x="69.980" y="191.5" font-family="Liberation Sans, Arial, DejaVu Sans, sans-serif" font-size="3.9" fill="#d7e0ea" text-anchor="start"><tspan font-weight="normal">Office@w-paternoster.at</tspan></text><rect x="26.191" y="195.300" rx="6.2" width="101.617" height="12.400" fill="#ffffff"/><text x="77.0" y="203.444" font-family="Liberation Sans, Arial, DejaVu Sans, sans-serif" font-size="5.4" font-weight="bold" fill="#0d2b45" text-anchor="middle">www.24-stunden-mietwerkstatt.at</text></svg>