<svg xmlns="http://www.w3.org/2000/svg" width="154.0mm" height="216.0mm" viewBox="0 0 154.0 216.0">
<defs><linearGradient id="bg" x1="0" y1="0" x2="0" y2="1"><stop offset="0" stop-color="#0d2b45"/><stop offset="1" stop-color="#0b2438"/></linearGradient></defs><rect x="0" y="0" width="154.0" height="216.0" fill="url(#bg)"/><g opacity="0.45"><g transform="translate(123.2,38.879999999999995) rotate(35) scale(3.2) translate(-12,-12)"><g transform="translate(0.000,0.000) scale(1.00000)"><path d="M7 10h3v-3l-3.5 -3.5a6 6 0 0 1 8 8l6 6a2 2 0 0 1 -3 3l-6 -6a6 6 0 0 1 -8 -8l3.5 3.5" fill="none" stroke="#163a5c" stroke-width="1.4" stroke-linecap="round" stroke-linejoin="round"/></g></g><g transform="translate(123.2,38.879999999999995) rotate(-35) scale(3.2) translate(-12,-12)"><g transform="translate(0.000,0.000) scale(1.00000)"><path d="M7 10h3v-3l-3.5 -3.5a6 6 0 0 1 8 8l6 6a2 2 0 0 1 -3 3l-6 -6a6 6 0 0 1 -8 -8l3.5 3.5" fill="none" stroke="#163a5c" stroke-width="1.4" stroke-linecap="round" stroke-linejoin="round"/></g></g></g><g opacity="0.45"><g transform="translate(30.8,177.11999999999998) rotate(35) scale(3.6) translate(-12,-12)"><g transform="translate(0.000,0.000) scale(1.00000)"><path d="M7 10h3v-3l-3.5 -3.5a6 6 0 0 1 8 8l6 6a2 2 0 0 1 -3 3l-6 -6a6 6 0 0 1 -8 -8l3.5 3.5" fill="none" stroke="#163a5c" stroke-width="1.4" stroke-linecap="round" stroke-linejoin="round"/></g></g><g transform="translate(30.8,177.11999999999998) rotate(-35) scale(3.6) translate(-12,-12)"><g transform="translate(0.000,0.000) scale(1.00000)"><path d="M7 10h3v-3l-3.5 -3.5a6 6 0 0 1 8 8l6 6a2 2 0 0 1 -3 3l-6 -6a6 6 0 0 1 -8 -8l3.5 3.5" fill="none" stroke="#163a5c" stroke-width="1.4" stroke-linecap="round" stroke-linejoin="round"/></g></g></g><circle cx="77.0" cy="28" r="15" fill="none" stroke="#ffffff" stroke-width="0.9"/><circle cx="77.0" cy="28" r="12.6" fill="none" stroke="#ffffff" stroke-width="0.45"/><g transform="translate(70.100,20.500) scale(0.86250)"><path d="M6.956 1.745C7.021.81 7.908.087 8.864.325l.261.066c.463.116.874.456 1.012.965.22.816.533 2.511.062 4.51a10 10 0 0 1 .443-.051c.713-.065 1.669-.072 2.516.21.518.173.994.681 1.2 1.273.184.532.16 1.162-.234 1.733q.086.18.138.363c.077.27.113.567.113.856s-.036.586-.113.856c-.039.135-.09.273-.16.404.169.387.107.819-.003 1.148a3.2 3.2 0 0 1-.488.901c.054.152.076.312.076.465 0 .305-.089.625-.253.912C13.1 15.522 12.437 16 11.5 16H8c-.605 0-1.07-.081-1.466-.218a4.8 4.8 0 0 1-.97-.484l-.048-.03c-.504-.307-.999-.609-2.068-.722C2.682 14.464 2 13.846 2 13V9c0-.85.685-1.432 1.357-1.615.849-.232 1.574-.787 2.132-1.41.56-.627.914-1.28 1.039-1.639.199-.575.356-1.539.428-2.59z" fill="#ffffff"/></g><text x="67.316" y="23.689" transform="rotate(-66.000 67.316 23.689)" font-family="Liberation Sans, Arial, DejaVu Sans, sans-serif" font-size="2.325" font-weight="bold" letter-spacing="1.0" fill="#ffffff" text-anchor="middle" dominant-baseline="central">M</text><text x="68.035" y="22.344" transform="rotate(-57.750 68.035 22.344)" font-family="Liberation Sans, Arial, DejaVu Sans, sans-serif" font-size="2.325" font-weight="bold" letter-spacing="1.0" fill="#ffffff" text-anchor="middle" dominant-baseline="central">A</text><text x="68.940" y="21.116" transform="rotate(-49.500 68.940 21.116)" font-family="Liberation Sans, Arial, DejaVu Sans, sans-serif" font-size="2.325" font-weight="bold" letter-spacing="1.0" fill="#ffffff" text-anchor="middle" dominant-baseline="central">C</text><text x="70.011" y="20.030" transform="rotate(-41.250 70.011 20.030)" font-family="Liberation Sans, Arial, DejaVu Sans, sans-serif" font-size="2.325" font-weight="bold" letter-spacing="1.0" fill="#ffffff" text-anchor="middle" dominant-baseline="central">H</text><text x="71.227" y="19.110" transform="rotate(-33.000 71.227 19.110)" font-family="Liberation Sans, Arial, DejaVu Sans, sans-serif" font-size="2.325" font-weight="bold" letter-spacing="1.0" fill="#ffffff" text-anchor="middle" dominant-baseline="central">'</text><text x="72.562" y="18.374" transform="rotate(-24.750 72.562 18.374)" font-family="Liberation Sans, Arial, DejaVu Sans, sans-serif" font-size="2.325" font-weight="bold" letter-spacing="1.0" fill="#ffffff" text-anchor="middle" dominant-baseline="central">S</text><text x="73.989" y="17.837" transform="rotate(-16.500 73.989 17.837)" font-family="Liberation Sans, Arial, DejaVu Sans, sans-serif" font-size="2.325" font-weight="bold" letter-spacing="1.0" fill="#ffffff" text-anchor="middle" dominant-baseline="central"> </text><text x="75.479" y="17.510" transform="rotate(-8.250 75.479 17.510)" font-family="Liberation Sans, Arial, DejaVu Sans, sans-serif" font-size="2.325" font-weight="bold" letter-spacing="1.0" fill="#ffffff" text-anchor="middle" dominant-baseline="central">D</text><text x="77.000" y="17.400" transform="rotate(0.000 77.000 17.400)" font-family="Liberation Sans, Arial, DejaVu Sans, sans-serif" font-size="2.325" font-weight="bold" letter-spacing="1.0" fill="#ffffff" text-anchor="middle" dominant-baseline="central">I</text><text x="78.521" y="17.510" transform="rotate(8.250 78.521 17.510)" font-family="Liberation Sans, Arial, DejaVu Sans, sans-serif" font-size="2.325" font-weight="bold" letter-spacing="1.0" fill="#ffffff" text-anchor="middle" dominant-baseline="central">R</text><text x="80.011" y="17.837" transform="rotate(16.500 80.011 17.837)" font-family="Liberation Sans, Arial, DejaVu Sans, sans-serif" font-size="2.325" font-weight="bold" letter-spacing="1.0" fill="#ffffff" text-anchor="middle" dominant-baseline="central"> </text><text x="81.438" y="18.374" transform="rotate(24.750 81.438 18.374)" font-family="Liberation Sans, Arial, DejaVu Sans, sans-serif" font-size="2.325" font-weight="bold" letter-spacing="1.0" fill="#ffffff" text-anchor="middle" dominant-baseline="central">S</text><text x="82.773" y="19.110" transform="rotate(33.000 82.773 19.110)" font-family="Liberation Sans, Arial, DejaVu Sans, sans-serif" font-size="2.325" font-weight="bold" letter-spacing="1.0" fill="#ffffff" text-anchor="middle" dominant-baseline="central">E</text><text x="83.989" y="20.030" transform="rotate(41.250 83.989 20.030)" font-family="Liberation Sans, Arial, DejaVu Sans, sans-serif" font-size="2.325" font-weight="bold" letter-spacing="1.0" fill="#ffffff" text-anchor="middle" dominant-baseline="central">L</text><text x="85.060" y="21.116" transform="rotate(49.500 85.060 21.116)" font-family="Liberation Sans, Arial, DejaVu Sans, sans-serif" font-size="2.325" font-weight="bold" letter-spacing="1.0" fill="#ffffff" text-anchor="middle" dominant-baseline="central">B</text><text x="85.965" y="22.344" transform="rotate(57.750 85.965 22.344)" font-family="Liberation Sans, Arial, DejaVu Sans, sans-serif" font-size="2.325" font-weight="bold" letter-spacing="1.0" fill="#ffffff" text-anchor="middle" dominant-baseline="central">S</text><text x="86.684" y="23.689" transform="rotate(66.000 86.684 23.689)" font-family="Liberation Sans, Arial, DejaVu Sans, sans-serif" font-size="2.325" font-weight="bold" letter-spacing="1.0" fill="#ffffff" text-anchor="middle" dominant-baseline="central">T</text><text x="69.000" y="34.954" transform="rotate(49.000 69.000 34.954)" font-family="Liberation Sans, Arial, DejaVu Sans, sans-serif" font-size="2.325" font-weight="bold" letter-spacing="1.0" fill="#ffffff" text-anchor="middle" dominant-baseline="central">M</text><text x="70.069" y="36.020" transform="rotate(40.833 70.069 36.020)" font-family="Liberation Sans, Arial, DejaVu Sans, sans-serif" font-size="2.325" font-weight="bold" letter-spacing="1.0" fill="#ffffff" text-anchor="middle" dominant-baseline="central">I</text><text x="71.279" y="36.923" transform="rotate(32.667 71.279 36.923)" font-family="Liberation Sans, Arial, DejaVu Sans, sans-serif" font-size="2.325" font-weight="bold" letter-spacing="1.0" fill="#ffffff" text-anchor="middle" dominant-baseline="central">E</text><text x="72.604" y="37.646" transform="rotate(24.500 72.604 37.646)" font-family="Liberation Sans, Arial, DejaVu Sans, sans-serif" font-size="2.325" font-weight="bold" letter-spacing="1.0" fill="#ffffff" text-anchor="middle" dominant-baseline="central">T</text><text x="74.019" y="38.172" transform="rotate(16.333 74.019 38.172)" font-family="Liberation Sans, Arial, DejaVu Sans, sans-serif" font-size="2.325" font-weight="bold" letter-spacing="1.0" fill="#ffffff" text-anchor="middle" dominant-baseline="central">W</text><text x="75.494" y="38.493" transform="rotate(8.167 75.494 38.493)" font-family="Liberation Sans, Arial, DejaVu Sans, sans-serif" font-size="2.325" font-weight="bold" letter-spacing="1.0" fill="#ffffff" text-anchor="middle" dominant-baseline="central">E</text><text x="77.000" y="38.600" transform="rotate(0.000 77.000 38.600)" font-family="Liberation Sans, Arial, DejaVu Sans, sans-serif" font-size="2.325" font-weight="bold" letter-spacing="1.0" fill="#ffffff" text-anchor="middle" dominant-baseline="central">R</text><text x="78.506" y="38.493" transform="rotate(-8.167 78.506 38.493)" font-family="Liberation Sans, Arial, DejaVu Sans, sans-serif" font-size="2.325" font-weight="bold" letter-spacing="1.0" fill="#ffffff" text-anchor="middle" dominant-baseline="central">K</text><text x="79.981" y="38.172" transform="rotate(-16.333 79.981 38.172)" font-family="Liberation Sans, Arial, DejaVu Sans, sans-serif" font-size="2.325" font-weight="bold" letter-spacing="1.0" fill="#ffffff" text-anchor="middle" dominant-baseline="central">S</text><text x="81.396" y="37.646" transform="rotate(-24.500 81.396 37.646)" font-family="Liberation Sans, Arial, DejaVu Sans, sans-serif" font-size="2.325" font-weight="bold" letter-spacing="1.0" fill="#ffffff" text-anchor="middle" dominant-baseline="central">T</text><text x="82.721" y="36.923" transform="rotate(-32.667 82.721 36.923)" font-family="Liberation Sans, Arial, DejaVu Sans, sans-serif" font-size="2.325" font-weight="bold" letter-spacing="1.0" fill="#ffffff" text-anchor="middle" dominant-baseline="central">A</text><text x="83.931" y="36.020" transform="rotate(-40.833 83.931 36.020)" font-family="Liberation Sans, Arial, DejaVu Sans, sans-serif" font-size="2.325" font-weight="bold" letter-spacing="1.0" fill="#ffffff" text-anchor="middle" dominant-baseline="central">T</text><text x="85.000" y="34.954" transform="rotate(-49.000 85.000 34.954)" font-family="Liberation Sans, Arial, DejaVu Sans, sans-serif" font-size="2.325" font-weight="bold" letter-spacing="1.0" fill="#ffffff" text-anchor="middle" dominant-baseline="central">T</text><text x="29.697" y="54" font-family="Liberation Sans, Arial, DejaVu Sans, sans-serif" font-size="10.0" fill="#ffffff" text-anchor="start"><tspan font-weight="bold">So einfach geht's</tspan></text><line x1="21.0" y1="62" x2="133.0" y2="62" stroke="#ffffff" stroke-width="0.4" opacity="0.35"/><circle cx="26.0" cy="76" r="6.5" fill="#12324f" stroke="#7fb2e0" stroke-width="0.8"/><text x="26.0" y="78.3" font-family="Liberation Sans, Arial, DejaVu Sans, sans-serif" font-size="7.5" font-weight="bold" fill="#ffffff" text-anchor="middle">1</text><text x="39.0" y="74.8" font-family="Liberation Sans, Arial, DejaVu Sans, sans-serif" font-size="6.0" font-weight="bold" fill="#ffffff">Anfragen</text><text x="39.0" y="81.4" font-family="Liberation Sans, Arial, DejaVu Sans, sans-serif" font-size="4.0" fill="#d7e0ea">Kontakt per WhatsApp, Telegram oder Signal.</text><circle cx="26.0" cy="98" r="6.5" fill="#12324f" stroke="#7fb2e0" stroke-width="0.8"/><text x="26.0" y="100.3" font-family="Liberation Sans, Arial, DejaVu Sans, sans-serif" font-size="7.5" font-weight="bold" fill="#ffffff" text-anchor="middle">2</text><text x="39.0" y="96.8" font-family="Liberation Sans, Arial, DejaVu Sans, sans-serif" font-size="6.0" font-weight="bold" fill="#ffffff">Registrieren &amp; Einweisung</text><text x="39.0" y="103.4" font-family="Liberation Sans, Arial, DejaVu Sans, sans-serif" font-size="4.0" fill="#d7e0ea">Kurze Einweisung – danach 24/7 Zugang.</text><circle cx="26.0" cy="120" r="6.5" fill="#12324f" stroke="#7fb2e0" stroke-width="0.8"/><text x="26.0" y="122.3" font-family="Liberation Sans, Arial, DejaVu Sans, sans-serif" font-size="7.5" font-weight="bold" fill="#ffffff" text-anchor="middle">3</text><text x="39.0" y="118.8" font-family="Liberation Sans, Arial, DejaVu Sans, sans-serif" font-size="6.0" font-weight="bold" fill="#ffffff">Termin buchen</text><text x="39.0" y="125.4" font-family="Liberation Sans, Arial, DejaVu Sans, sans-serif" font-size="4.0" fill="#d7e0ea">Hebebühne &amp; Platz flexibel rund um die Uhr.</text><circle cx="26.0" cy="142" r="6.5" fill="#12324f" stroke="#7fb2e0" stroke-width="0.8"/><text x="26.0" y="144.3" font-family="Liberation Sans, Arial, DejaVu Sans, sans-serif" font-size="7.5" font-weight="bold" fill="#ffffff" text-anchor="middle">4</text><text x="39.0" y="140.8" font-family="Liberation Sans, Arial, DejaVu Sans, sans-serif" font-size="6.0" font-weight="bold" fill="#ffffff">Selbst schrauben</text><text x="39.0" y="147.4" font-family="Liberation Sans, Arial, DejaVu Sans, sans-serif" font-size="4.0" fill="#d7e0ea">Eigenständig arbeiten – Profi-Werkzeug inklusive.</text><line x1="21.0" y1="164" x2="133.0" y2="164" stroke="#ffffff" stroke-width="0.4" opacity="0.35"/><text x="64.980" y="173" font-family="Liberation Sans, Arial, DejaVu Sans, sans-serif" font-size="5.4" fill="#ffffff" text-anchor="start"><tspan font-weight="bold">Standort</tspan></text><text x="41.649" y="181" font-family="Liberation Sans, Arial, DejaVu Sans, sans-serif" font-size="4.6" fill="#d7e0ea" text-anchor="start"><tspan font-weight="normal">Schwadorf 18, 3100 St. Pölten</tspan></text><text x="60.888" y="187" font-family="Liberation Sans, Arial, DejaVu Sans, sans-serif" font-size="3.8" fill="#d7e0ea" text-anchor="start"><tspan font-weight="normal">UID: ATU62142005</tspan></text><rect x="19.710" y="189.500" rx="6.5" width="114.580" height="13.000" fill="#ffffff"/><text x="77.0" y="198.160" font-family="Liberation Sans, Arial, DejaVu Sans, sans-serif" font-size="6.0" font-weight="bold" fill="#0d2b45" text-anchor="middle">www.24-stunden-mietwerkstatt.at</text><text x="33.116" y="209" font-family="Liberation Sans, Arial, DejaVu Sans, sans-serif" font-size="3.6" fill="#d7e0ea" text-anchor="start"><tspan font-weight="normal">24/7 Zugang nach Registrierung und Einweisung.</tspan></text></svg>