<svg xmlns="http://www.w3.org/2000/svg" width="154.0mm" height="216.0mm" viewBox="0 0 154.0 216.0">
<defs><linearGradient id="bg" x1="0" y1="0" x2="0" y2="1"><stop offset="0" stop-color="#0d2b45"/><stop offset="1" stop-color="#0b2438"/></linearGradient></defs><rect x="0" y="0" width="154.0" height="216.0" fill="url(#bg)"/><g opacity="0.45"><g transform="translate(123.2,38.879999999999995) rotate(35) scale(3.2) translate(-12,-12)"><g transform="translate(0.000,0.000) scale(1.00000)"><path d="M7 10h3v-3l-3.5 -3.5a6 6 0 0 1 8 8l6 6a2 2 0 0 1 -3 3l-6 -6a6 6 0 0 1 -8 -8l3.5 3.5" fill="none" stroke="#163a5c" stroke-width="1.4" stroke-linecap="round" stroke-linejoin="round"/></g></g><g transform="translate(123.2,38.879999999999995) rotate(-35) scale(3.2) translate(-12,-12)"><g transform="translate(0.000,0.000) scale(1.00000)"><path d="M7 10h3v-3l-3.5 -3.5a6 6 0 0 1 8 8l6 6a2 2 0 0 1 -3 3l-6 -6a6 6 0 0 1 -8 -8l3.5 3.5" fill="none" stroke="#163a5c" stroke-width="1.4" stroke-linecap="round" stroke-linejoin="round"/></g></g></g><g opacity="0.45"><g transform="translate(30.8,177.11999999999998) rotate(35) scale(3.6) translate(-12,-12)"><g transform="translate(0.000,0.000) scale(1.00000)"><path d="M7 10h3v-3l-3.5 -3.5a6 6 0 0 1 8 8l6 6a2 2 0 0 1 -3 3l-6 -6a6 6 0 0 1 -8 -8l3.5 3.5" fill="none" stroke="#163a5c" stroke-width="1.4" stroke-linecap="round" stroke-linejoin="round"/></g></g><g transform="translate(30.8,177.11999999999998) rotate(-35) scale(3.6) translate(-12,-12)"><g transform="translate(0.000,0.000) scale(1.00000)"><path d="M7 10h3v-3l-3.5 -3.5a6 6 0 0 1 8 8l6 6a2 2 0 0 1 -3 3l-6 -6a6 6 0 0 1 -8 -8l3.5 3.5" fill="none" stroke="#163a5c" stroke-width="1.4" stroke-linecap="round" stroke-linejoin="round"/></g></g></g><circle cx="77.0" cy="30" r="16" fill="none" stroke="#ffffff" stroke-width="0.9"/><circle cx="77.0" cy="30" r="13.6" fill="none" stroke="#ffffff" stroke-width="0.45"/><g transform="translate(69.640,22.000) scale(0.92000)"><path d="M6.956 1.745C7.021.81 7.908.087 8.864.325l.261.066c.463.116.874.456 1.012.965.22.816.533 2.511.062 4.51a10 10 0 0 1 .443-.051c.713-.065 1.669-.072 2.516.21.518.173.994.681 1.2 1.273.184.532.16 1.162-.234 1.733q.086.18.138.363c.077.27.113.567.113.856s-.036.586-.113.856c-.039.135-.09.273-.16.404.169.387.107.819-.003 1.148a3.2 3.2 0 0 1-.488.901c.054.152.076.312.076.465 0 .305-.089.625-.253.912C13.1 15.522 12.437 16 11.5 16H8c-.605 0-1.07-.081-1.466-.218a4.8 4.8 0 0 1-.97-.484l-.048-.03c-.504-.307-.999-.609-2.068-.722C2.682 14.464 2 13.846 2 13V9c0-.85.685-1.432 1.357-1.615.849-.232 1.574-.787 2.132-1.41.56-.627.914-1.28 1.039-1.639.199-.575.356-1.539.428-2.59z" fill="#ffffff"/></g><text x="66.403" y="25.282" transform="rotate(-66.000 66.403 25.282)" font-family="Liberation Sans, Arial, DejaVu Sans, sans-serif" font-size="2.48" font-weight="bold" letter-spacing="1.0" fill="#ffffff" text-anchor="middle" dominant-baseline="central">M</text><text x="67.190" y="23.810" transform="rotate(-57.750 67.190 23.810)" font-family="Liberation Sans, Arial, DejaVu Sans, sans-serif" font-size="2.48" font-weight="bold" letter-spacing="1.0" fill="#ffffff" text-anchor="middle" dominant-baseline="central">A</text><text x="68.179" y="22.466" transform="rotate(-49.500 68.179 22.466)" font-family="Liberation Sans, Arial, DejaVu Sans, sans-serif" font-size="2.48" font-weight="bold" letter-spacing="1.0" fill="#ffffff" text-anchor="middle" dominant-baseline="central">C</text><text x="69.352" y="21.279" transform="rotate(-41.250 69.352 21.279)" font-family="Liberation Sans, Arial, DejaVu Sans, sans-serif" font-size="2.48" font-weight="bold" letter-spacing="1.0" fill="#ffffff" text-anchor="middle" dominant-baseline="central">H</text><text x="70.682" y="20.271" transform="rotate(-33.000 70.682 20.271)" font-family="Liberation Sans, Arial, DejaVu Sans, sans-serif" font-size="2.48" font-weight="bold" letter-spacing="1.0" fill="#ffffff" text-anchor="middle" dominant-baseline="central">'</text><text x="72.144" y="19.466" transform="rotate(-24.750 72.144 19.466)" font-family="Liberation Sans, Arial, DejaVu Sans, sans-serif" font-size="2.48" font-weight="bold" letter-spacing="1.0" fill="#ffffff" text-anchor="middle" dominant-baseline="central">S</text><text x="73.705" y="18.878" transform="rotate(-16.500 73.705 18.878)" font-family="Liberation Sans, Arial, DejaVu Sans, sans-serif" font-size="2.48" font-weight="bold" letter-spacing="1.0" fill="#ffffff" text-anchor="middle" dominant-baseline="central"> </text><text x="75.335" y="18.520" transform="rotate(-8.250 75.335 18.520)" font-family="Liberation Sans, Arial, DejaVu Sans, sans-serif" font-size="2.48" font-weight="bold" letter-spacing="1.0" fill="#ffffff" text-anchor="middle" dominant-baseline="central">D</text><text x="77.000" y="18.400" transform="rotate(0.000 77.000 18.400)" font-family="Liberation Sans, Arial, DejaVu Sans, sans-serif" font-size="2.48" font-weight="bold" letter-spacing="1.0" fill="#ffffff" text-anchor="middle" dominant-baseline="central">I</text><text x="78.665" y="18.520" transform="rotate(8.250 78.665 18.520)" font-family="Liberation Sans, Arial, DejaVu Sans, sans-serif" font-size="2.48" font-weight="bold" letter-spacing="1.0" fill="#ffffff" text-anchor="middle" dominant-baseline="central">R</text><text x="80.295" y="18.878" transform="rotate(16.500 80.295 18.878)" font-family="Liberation Sans, Arial, DejaVu Sans, sans-serif" font-size="2.48" font-weight="bold" letter-spacing="1.0" fill="#ffffff" text-anchor="middle" dominant-baseline="central"> </text><text x="81.856" y="19.466" transform="rotate(24.750 81.856 19.466)" font-family="Liberation Sans, Arial, DejaVu Sans, sans-serif" font-size="2.48" font-weight="bold" letter-spacing="1.0" fill="#ffffff" text-anchor="middle" dominant-baseline="central">S</text><text x="83.318" y="20.271" transform="rotate(33.000 83.318 20.271)" font-family="Liberation Sans, Arial, DejaVu Sans, sans-serif" font-size="2.48" font-weight="bold" letter-spacing="1.0" fill="#ffffff" text-anchor="middle" dominant-baseline="central">E</text><text x="84.648" y="21.279" transform="rotate(41.250 84.648 21.279)" font-family="Liberation Sans, Arial, DejaVu Sans, sans-serif" font-size="2.48" font-weight="bold" letter-spacing="1.0" fill="#ffffff" text-anchor="middle" dominant-baseline="central">L</text><text x="85.821" y="22.466" transform="rotate(49.500 85.821 22.466)" font-family="Liberation Sans, Arial, DejaVu Sans, sans-serif" font-size="2.48" font-weight="bold" letter-spacing="1.0" fill="#ffffff" text-anchor="middle" dominant-baseline="central">B</text><text x="86.810" y="23.810" transform="rotate(57.750 86.810 23.810)" font-family="Liberation Sans, Arial, DejaVu Sans, sans-serif" font-size="2.48" font-weight="bold" letter-spacing="1.0" fill="#ffffff" text-anchor="middle" dominant-baseline="central">S</text><text x="87.597" y="25.282" transform="rotate(66.000 87.597 25.282)" font-family="Liberation Sans, Arial, DejaVu Sans, sans-serif" font-size="2.48" font-weight="bold" letter-spacing="1.0" fill="#ffffff" text-anchor="middle" dominant-baseline="central">T</text><text x="68.245" y="37.610" transform="rotate(49.000 68.245 37.610)" font-family="Liberation Sans, Arial, DejaVu Sans, sans-serif" font-size="2.48" font-weight="bold" letter-spacing="1.0" fill="#ffffff" text-anchor="middle" dominant-baseline="central">M</text><text x="69.415" y="38.777" transform="rotate(40.833 69.415 38.777)" font-family="Liberation Sans, Arial, DejaVu Sans, sans-serif" font-size="2.48" font-weight="bold" letter-spacing="1.0" fill="#ffffff" text-anchor="middle" dominant-baseline="central">I</text><text x="70.739" y="39.765" transform="rotate(32.667 70.739 39.765)" font-family="Liberation Sans, Arial, DejaVu Sans, sans-serif" font-size="2.48" font-weight="bold" letter-spacing="1.0" fill="#ffffff" text-anchor="middle" dominant-baseline="central">E</text><text x="72.190" y="40.556" transform="rotate(24.500 72.190 40.556)" font-family="Liberation Sans, Arial, DejaVu Sans, sans-serif" font-size="2.48" font-weight="bold" letter-spacing="1.0" fill="#ffffff" text-anchor="middle" dominant-baseline="central">T</text><text x="73.738" y="41.132" transform="rotate(16.333 73.738 41.132)" font-family="Liberation Sans, Arial, DejaVu Sans, sans-serif" font-size="2.48" font-weight="bold" letter-spacing="1.0" fill="#ffffff" text-anchor="middle" dominant-baseline="central">W</text><text x="75.352" y="41.482" transform="rotate(8.167 75.352 41.482)" font-family="Liberation Sans, Arial, DejaVu Sans, sans-serif" font-size="2.48" font-weight="bold" letter-spacing="1.0" fill="#ffffff" text-anchor="middle" dominant-baseline="central">E</text><text x="77.000" y="41.600" transform="rotate(0.000 77.000 41.600)" font-family="Liberation Sans, Arial, DejaVu Sans, sans-serif" font-size="2.48" font-weight="bold" letter-spacing="1.0" fill="#ffffff" text-anchor="middle" dominant-baseline="central">R</text><text x="78.648" y="41.482" transform="rotate(-8.167 78.648 41.482)" font-family="Liberation Sans, Arial, DejaVu Sans, sans-serif" font-size="2.48" font-weight="bold" letter-spacing="1.0" fill="#ffffff" text-anchor="middle" dominant-baseline="central">K</text><text x="80.262" y="41.132" transform="rotate(-16.333 80.262 41.132)" font-family="Liberation Sans, Arial, DejaVu Sans, sans-serif" font-size="2.48" font-weight="bold" letter-spacing="1.0" fill="#ffffff" text-anchor="middle" dominant-baseline="central">S</text><text x="81.810" y="40.556" transform="rotate(-24.500 81.810 40.556)" font-family="Liberation Sans, Arial, DejaVu Sans, sans-serif" font-size="2.48" font-weight="bold" letter-spacing="1.0" fill="#ffffff" text-anchor="middle" dominant-baseline="central">T</text><text x="83.261" y="39.765" transform="rotate(-32.667 83.261 39.765)" font-family="Liberation Sans, Arial, DejaVu Sans, sans-serif" font-size="2.48" font-weight="bold" letter-spacing="1.0" fill="#ffffff" text-anchor="middle" dominant-baseline="central">A</text><text x="84.585" y="38.777" transform="rotate(-40.833 84.585 38.777)" font-family="Liberation Sans, Arial, DejaVu Sans, sans-serif" font-size="2.48" font-weight="bold" letter-spacing="1.0" fill="#ffffff" text-anchor="middle" dominant-baseline="central">T</text><text x="85.755" y="37.610" transform="rotate(-49.000 85.755 37.610)" font-family="Liberation Sans, Arial, DejaVu Sans, sans-serif" font-size="2.48" font-weight="bold" letter-spacing="1.0" fill="#ffffff" text-anchor="middle" dominant-baseline="central">T</text><text x="27.889" y="53" font-family="Liberation Sans, Arial, DejaVu Sans, sans-serif" font-size="10.5" letter-spacing="0.2" fill="#ffffff" text-anchor="start"><tspan font-weight="normal">24h </tspan><tspan font-weight="bold">MIETWERKSTATT</tspan></text><text x="29.300" y="62" font-family="Liberation Sans, Arial, DejaVu Sans, sans-serif" font-size="5.0" fill="#d7e0ea" text-anchor="start"><tspan font-weight="normal">Werner Paternoster · 3100 St. Pölten</tspan></text><text x="10.538" y="69.5" font-family="Liberation Sans, Arial, DejaVu Sans, sans-serif" font-size="4.4" fill="#7fb2e0" text-anchor="start"><tspan font-weight="normal">Mach's dir selbst – deine Profi-Werkstatt zur Selbstmiete</tspan></text><line x1="21.0" y1="76" x2="133.0" y2="76" stroke="#ffffff" stroke-width="0.4" opacity="0.35"/><text x="45.780" y="87" font-family="Liberation Sans, Arial, DejaVu Sans, sans-serif" font-size="6.6" fill="#ffffff" text-anchor="start"><tspan font-weight="bold">Unsere Leistungen</tspan></text><g transform="translate(27.000,91.800) scale(0.31667)"><path d="M5 12.5l4.2 4.2L19 7" fill="none" stroke="#7fb2e0" stroke-width="2.6" stroke-linecap="round" stroke-linejoin="round"/></g><text x="37.5" y="98.0" font-family="Liberation Sans, Arial, DejaVu Sans, sans-serif" font-size="5.8" fill="#ffffff">Hebebühnen bis 5,5t</text><g transform="translate(27.000,102.800) scale(0.31667)"><path d="M5 12.5l4.2 4.2L19 7" fill="none" stroke="#7fb2e0" stroke-width="2.6" stroke-linecap="round" stroke-linejoin="round"/></g><text x="37.5" y="109.0" font-family="Liberation Sans, Arial, DejaVu Sans, sans-serif" font-size="5.8" fill="#ffffff">Werkzeugwagen inklusive</text><g transform="translate(27.000,113.800) scale(0.31667)"><path d="M5 12.5l4.2 4.2L19 7" fill="none" stroke="#7fb2e0" stroke-width="2.6" stroke-linecap="round" stroke-linejoin="round"/></g><text x="37.5" y="120.0" font-family="Liberation Sans, Arial, DejaVu Sans, sans-serif" font-size="5.8" fill="#ffffff">24/7 Zugang nach Einweisung</text><g transform="translate(27.000,124.800) scale(0.31667)"><path d="M5 12.5l4.2 4.2L19 7" fill="none" stroke="#7fb2e0" stroke-width="2.6" stroke-linecap="round" stroke-linejoin="round"/></g><text x="37.5" y="131.0" font-family="Liberation Sans, Arial, DejaVu Sans, sans-serif" font-size="5.8" fill="#ffffff">Trockeneis- &amp; Klimaservice</text><g transform="translate(27.000,135.800) scale(0.31667)"><path d="M5 12.5l4.2 4.2L19 7" fill="none" stroke="#7fb2e0" stroke-width="2.6" stroke-linecap="round" stroke-linejoin="round"/></g><text x="37.5" y="142.0" font-family="Liberation Sans, Arial, DejaVu Sans, sans-serif" font-size="5.8" fill="#ffffff">Reifenhandel</text><line x1="21.0" y1="151" x2="133.0" y2="151" stroke="#ffffff" stroke-width="0.4" opacity="0.35"/><text x="20.714" y="158" font-family="Liberation Sans, Arial, DejaVu Sans, sans-serif" font-size="3.6" fill="#d7e0ea" text-anchor="start"><tspan font-weight="normal">Anfragen ausschließlich per WhatsApp, Telegram oder Signal.</tspan></text><text x="41.463" y="163" font-family="Liberation Sans, Arial, DejaVu Sans, sans-serif" font-size="3.6" fill="#d7e0ea" text-anchor="start"><tspan font-weight="normal">Anrufe werden </tspan><tspan font-weight="bold">NICHT</tspan><tspan font-weight="normal"> entgegengenommen.</tspan></text><rect x="11.0" y="168" width="132.0" height="40" rx="3" fill="#12324f" stroke="#ffffff" stroke-opacity="0.15" stroke-width="0.4"/><rect x="15.0" y="172" width="32" height="32" rx="1.6" fill="#ffffff"/><path d="M17.462 174.462h0.821v0.821h-0.821zM18.282 174.462h0.821v0.821h-0.821zM19.103 174.462h0.821v0.821h-0.821zM19.923 174.462h0.821v0.821h-0.821zM20.744 174.462h0.821v0.821h-0.821zM21.564 174.462h0.821v0.821h-0.821zM22.385 174.462h0.821v0.821h-0.821zM24.846 174.462h0.821v0.821h-0.821zM26.487 174.462h0.821v0.821h-0.821zM27.308 174.462h0.821v0.821h-0.821zM28.128 174.462h0.821v0.821h-0.821zM30.590 174.462h0.821v0.821h-0.821zM32.231 174.462h0.821v0.821h-0.821zM33.051 174.462h0.821v0.821h-0.821zM33.872 174.462h0.821v0.821h-0.821zM35.513 174.462h0.821v0.821h-0.821zM36.333 174.462h0.821v0.821h-0.821zM37.154 174.462h0.821v0.821h-0.821zM38.795 174.462h0.821v0.821h-0.821zM39.615 174.462h0.821v0.821h-0.821zM40.436 174.462h0.821v0.821h-0.821zM41.256 174.462h0.821v0.821h-0.821zM42.077 174.462h0.821v0.821h-0.821zM42.897 174.462h0.821v0.821h-0.821zM43.718 174.462h0.821v0.821h-0.821zM17.462 175.282h0.821v0.821h-0.821zM22.385 175.282h0.821v0.821h-0.821zM24.026 175.282h0.821v0.821h-0.821zM24.846 175.282h0.821v0.821h-0.821zM25.667 175.282h0.821v0.821h-0.821zM26.487 175.282h0.821v0.821h-0.821zM27.308 175.282h0.821v0.821h-0.821zM28.128 175.282h0.821v0.821h-0.821zM28.949 175.282h0.821v0.821h-0.821zM31.410 175.282h0.821v0.821h-0.821zM34.692 175.282h0.821v0.821h-0.821zM35.513 175.282h0.821v0.821h-0.821zM36.333 175.282h0.821v0.821h-0.821zM38.795 175.282h0.821v0.821h-0.821zM43.718 175.282h0.821v0.821h-0.821zM17.462 176.103h0.821v0.821h-0.821zM19.103 176.103h0.821v0.821h-0.821zM19.923 176.103h0.821v0.821h-0.821zM20.744 176.103h0.821v0.821h-0.821zM22.385 176.103h0.821v0.821h-0.821zM24.026 176.103h0.821v0.821h-0.821zM25.667 176.103h0.821v0.821h-0.821zM26.487 176.103h0.821v0.821h-0.821zM27.308 176.103h0.821v0.821h-0.821zM28.949 176.103h0.821v0.821h-0.821zM29.769 176.103h0.821v0.821h-0.821zM32.231 176.103h0.821v0.821h-0.821zM33.051 176.103h0.821v0.821h-0.821zM33.872 176.103h0.821v0.821h-0.821zM35.513 176.103h0.821v0.821h-0.821zM36.333 176.103h0.821v0.821h-0.821zM38.795 176.103h0.821v0.821h-0.821zM40.436 176.103h0.821v0.821h-0.821zM41.256 176.103h0.821v0.821h-0.821zM42.077 176.103h0.821v0.821h-0.821zM43.718 176.103h0.821v0.821h-0.821zM17.462 176.923h0.821v0.821h-0.821zM19.103 176.923h0.821v0.821h-0.821zM19.923 176.923h0.821v0.821h-0.821zM20.744 176.923h0.821v0.821h-0.821zM22.385 176.923h0.821v0.821h-0.821zM25.667 176.923h0.821v0.821h-0.821zM29.769 176.923h0.821v0.821h-0.821zM32.231 176.923h0.821v0.821h-0.821zM35.513 176.923h0.821v0.821h-0.821zM37.154 176.923h0.821v0.821h-0.821zM38.795 176.923h0.821v0.821h-0.821zM40.436 176.923h0.821v0.821h-0.821zM41.256 176.923h0.821v0.821h-0.821zM42.077 176.923h0.821v0.821h-0.821zM43.718 176.923h0.821v0.821h-0.821zM17.462 177.744h0.821v0.821h-0.821zM19.103 177.744h0.821v0.821h-0.821zM19.923 177.744h0.821v0.821h-0.821zM20.744 177.744h0.821v0.821h-0.821zM22.385 177.744h0.821v0.821h-0.821zM25.667 177.744h0.821v0.821h-0.821zM28.128 177.744h0.821v0.821h-0.821zM28.949 177.744h0.821v0.821h-0.821zM29.769 177.744h0.821v0.821h-0.821zM32.231 177.744h0.821v0.821h-0.821zM38.795 177.744h0.821v0.821h-0.821zM40.436 177.744h0.821v0.821h-0.821zM41.256 177.744h0.821v0.821h-0.821zM42.077 177.744h0.821v0.821h-0.821zM43.718 177.744h0.821v0.821h-0.821zM17.462 178.564h0.821v0.821h-0.821zM22.385 178.564h0.821v0.821h-0.821zM26.487 178.564h0.821v0.821h-0.821zM29.769 178.564h0.821v0.821h-0.821zM30.590 178.564h0.821v0.821h-0.821zM31.410 178.564h0.821v0.821h-0.821zM32.231 178.564h0.821v0.821h-0.821zM38.795 178.564h0.821v0.821h-0.821zM43.718 178.564h0.821v0.821h-0.821zM17.462 179.385h0.821v0.821h-0.821zM18.282 179.385h0.821v0.821h-0.821zM19.103 179.385h0.821v0.821h-0.821zM19.923 179.385h0.821v0.821h-0.821zM20.744 179.385h0.821v0.821h-0.821zM21.564 179.385h0.821v0.821h-0.821zM22.385 179.385h0.821v0.821h-0.821zM24.026 179.385h0.821v0.821h-0.821zM25.667 179.385h0.821v0.821h-0.821zM27.308 179.385h0.821v0.821h-0.821zM28.949 179.385h0.821v0.821h-0.821zM30.590 179.385h0.821v0.821h-0.821zM32.231 179.385h0.821v0.821h-0.821zM33.872 179.385h0.821v0.821h-0.821zM35.513 179.385h0.821v0.821h-0.821zM37.154 179.385h0.821v0.821h-0.821zM38.795 179.385h0.821v0.821h-0.821zM39.615 179.385h0.821v0.821h-0.821zM40.436 179.385h0.821v0.821h-0.821zM41.256 179.385h0.821v0.821h-0.821zM42.077 179.385h0.821v0.821h-0.821zM42.897 179.385h0.821v0.821h-0.821zM43.718 179.385h0.821v0.821h-0.821zM24.846 180.205h0.821v0.821h-0.821zM26.487 180.205h0.821v0.821h-0.821zM28.128 180.205h0.821v0.821h-0.821zM29.769 180.205h0.821v0.821h-0.821zM30.590 180.205h0.821v0.821h-0.821zM31.410 180.205h0.821v0.821h-0.821zM33.051 180.205h0.821v0.821h-0.821zM36.333 180.205h0.821v0.821h-0.821zM37.154 180.205h0.821v0.821h-0.821zM18.282 181.026h0.821v0.821h-0.821zM19.103 181.026h0.821v0.821h-0.821zM19.923 181.026h0.821v0.821h-0.821zM21.564 181.026h0.821v0.821h-0.821zM22.385 181.026h0.821v0.821h-0.821zM25.667 181.026h0.821v0.821h-0.821zM29.769 181.026h0.821v0.821h-0.821zM30.590 181.026h0.821v0.821h-0.821zM31.410 181.026h0.821v0.821h-0.821zM34.692 181.026h0.821v0.821h-0.821zM35.513 181.026h0.821v0.821h-0.821zM37.154 181.026h0.821v0.821h-0.821zM42.077 181.026h0.821v0.821h-0.821zM42.897 181.026h0.821v0.821h-0.821zM17.462 181.846h0.821v0.821h-0.821zM19.923 181.846h0.821v0.821h-0.821zM20.744 181.846h0.821v0.821h-0.821zM24.026 181.846h0.821v0.821h-0.821zM25.667 181.846h0.821v0.821h-0.821zM26.487 181.846h0.821v0.821h-0.821zM27.308 181.846h0.821v0.821h-0.821zM28.949 181.846h0.821v0.821h-0.821zM29.769 181.846h0.821v0.821h-0.821zM30.590 181.846h0.821v0.821h-0.821zM31.410 181.846h0.821v0.821h-0.821zM32.231 181.846h0.821v0.821h-0.821zM33.051 181.846h0.821v0.821h-0.821zM33.872 181.846h0.821v0.821h-0.821zM34.692 181.846h0.821v0.821h-0.821zM36.333 181.846h0.821v0.821h-0.821zM37.154 181.846h0.821v0.821h-0.821zM38.795 181.846h0.821v0.821h-0.821zM39.615 181.846h0.821v0.821h-0.821zM41.256 181.846h0.821v0.821h-0.821zM42.077 181.846h0.821v0.821h-0.821zM43.718 181.846h0.821v0.821h-0.821zM18.282 182.667h0.821v0.821h-0.821zM19.103 182.667h0.821v0.821h-0.821zM19.923 182.667h0.821v0.821h-0.821zM20.744 182.667h0.821v0.821h-0.821zM21.564 182.667h0.821v0.821h-0.821zM22.385 182.667h0.821v0.821h-0.821zM23.205 182.667h0.821v0.821h-0.821zM24.846 182.667h0.821v0.821h-0.821zM25.667 182.667h0.821v0.821h-0.821zM28.128 182.667h0.821v0.821h-0.821zM29.769 182.667h0.821v0.821h-0.821zM32.231 182.667h0.821v0.821h-0.821zM33.872 182.667h0.821v0.821h-0.821zM36.333 182.667h0.821v0.821h-0.821zM39.615 182.667h0.821v0.821h-0.821zM40.436 182.667h0.821v0.821h-0.821zM41.256 182.667h0.821v0.821h-0.821zM42.897 182.667h0.821v0.821h-0.821zM43.718 182.667h0.821v0.821h-0.821zM17.462 183.487h0.821v0.821h-0.821zM19.923 183.487h0.821v0.821h-0.821zM23.205 183.487h0.821v0.821h-0.821zM29.769 183.487h0.821v0.821h-0.821zM30.590 183.487h0.821v0.821h-0.821zM31.410 183.487h0.821v0.821h-0.821zM33.051 183.487h0.821v0.821h-0.821zM33.872 183.487h0.821v0.821h-0.821zM36.333 183.487h0.821v0.821h-0.821zM37.154 183.487h0.821v0.821h-0.821zM38.795 183.487h0.821v0.821h-0.821zM39.615 183.487h0.821v0.821h-0.821zM41.256 183.487h0.821v0.821h-0.821zM17.462 184.308h0.821v0.821h-0.821zM19.103 184.308h0.821v0.821h-0.821zM20.744 184.308h0.821v0.821h-0.821zM21.564 184.308h0.821v0.821h-0.821zM22.385 184.308h0.821v0.821h-0.821zM24.026 184.308h0.821v0.821h-0.821zM25.667 184.308h0.821v0.821h-0.821zM26.487 184.308h0.821v0.821h-0.821zM27.308 184.308h0.821v0.821h-0.821zM28.128 184.308h0.821v0.821h-0.821zM33.872 184.308h0.821v0.821h-0.821zM35.513 184.308h0.821v0.821h-0.821zM36.333 184.308h0.821v0.821h-0.821zM37.974 184.308h0.821v0.821h-0.821zM39.615 184.308h0.821v0.821h-0.821zM40.436 184.308h0.821v0.821h-0.821zM41.256 184.308h0.821v0.821h-0.821zM43.718 184.308h0.821v0.821h-0.821zM17.462 185.128h0.821v0.821h-0.821zM18.282 185.128h0.821v0.821h-0.821zM19.103 185.128h0.821v0.821h-0.821zM19.923 185.128h0.821v0.821h-0.821zM20.744 185.128h0.821v0.821h-0.821zM21.564 185.128h0.821v0.821h-0.821zM23.205 185.128h0.821v0.821h-0.821zM27.308 185.128h0.821v0.821h-0.821zM31.410 185.128h0.821v0.821h-0.821zM33.872 185.128h0.821v0.821h-0.821zM34.692 185.128h0.821v0.821h-0.821zM35.513 185.128h0.821v0.821h-0.821zM37.154 185.128h0.821v0.821h-0.821zM37.974 185.128h0.821v0.821h-0.821zM39.615 185.128h0.821v0.821h-0.821zM42.897 185.128h0.821v0.821h-0.821zM17.462 185.949h0.821v0.821h-0.821zM18.282 185.949h0.821v0.821h-0.821zM19.103 185.949h0.821v0.821h-0.821zM19.923 185.949h0.821v0.821h-0.821zM20.744 185.949h0.821v0.821h-0.821zM22.385 185.949h0.821v0.821h-0.821zM23.205 185.949h0.821v0.821h-0.821zM24.026 185.949h0.821v0.821h-0.821zM24.846 185.949h0.821v0.821h-0.821zM26.487 185.949h0.821v0.821h-0.821zM27.308 185.949h0.821v0.821h-0.821zM29.769 185.949h0.821v0.821h-0.821zM30.590 185.949h0.821v0.821h-0.821zM32.231 185.949h0.821v0.821h-0.821zM33.051 185.949h0.821v0.821h-0.821zM33.872 185.949h0.821v0.821h-0.821zM38.795 185.949h0.821v0.821h-0.821zM41.256 185.949h0.821v0.821h-0.821zM18.282 186.769h0.821v0.821h-0.821zM19.103 186.769h0.821v0.821h-0.821zM19.923 186.769h0.821v0.821h-0.821zM20.744 186.769h0.821v0.821h-0.821zM23.205 186.769h0.821v0.821h-0.821zM24.026 186.769h0.821v0.821h-0.821zM24.846 186.769h0.821v0.821h-0.821zM25.667 186.769h0.821v0.821h-0.821zM26.487 186.769h0.821v0.821h-0.821zM28.128 186.769h0.821v0.821h-0.821zM28.949 186.769h0.821v0.821h-0.821zM30.590 186.769h0.821v0.821h-0.821zM32.231 186.769h0.821v0.821h-0.821zM34.692 186.769h0.821v0.821h-0.821zM35.513 186.769h0.821v0.821h-0.821zM37.974 186.769h0.821v0.821h-0.821zM38.795 186.769h0.821v0.821h-0.821zM39.615 186.769h0.821v0.821h-0.821zM41.256 186.769h0.821v0.821h-0.821zM42.077 186.769h0.821v0.821h-0.821zM17.462 187.590h0.821v0.821h-0.821zM18.282 187.590h0.821v0.821h-0.821zM19.103 187.590h0.821v0.821h-0.821zM19.923 187.590h0.821v0.821h-0.821zM21.564 187.590h0.821v0.821h-0.821zM22.385 187.590h0.821v0.821h-0.821zM23.205 187.590h0.821v0.821h-0.821zM24.026 187.590h0.821v0.821h-0.821zM24.846 187.590h0.821v0.821h-0.821zM25.667 187.590h0.821v0.821h-0.821zM32.231 187.590h0.821v0.821h-0.821zM33.872 187.590h0.821v0.821h-0.821zM34.692 187.590h0.821v0.821h-0.821zM35.513 187.590h0.821v0.821h-0.821zM36.333 187.590h0.821v0.821h-0.821zM37.974 187.590h0.821v0.821h-0.821zM38.795 187.590h0.821v0.821h-0.821zM40.436 187.590h0.821v0.821h-0.821zM42.077 187.590h0.821v0.821h-0.821zM17.462 188.410h0.821v0.821h-0.821zM23.205 188.410h0.821v0.821h-0.821zM24.026 188.410h0.821v0.821h-0.821zM24.846 188.410h0.821v0.821h-0.821zM25.667 188.410h0.821v0.821h-0.821zM26.487 188.410h0.821v0.821h-0.821zM27.308 188.410h0.821v0.821h-0.821zM28.128 188.410h0.821v0.821h-0.821zM29.769 188.410h0.821v0.821h-0.821zM31.410 188.410h0.821v0.821h-0.821zM33.872 188.410h0.821v0.821h-0.821zM36.333 188.410h0.821v0.821h-0.821zM38.795 188.410h0.821v0.821h-0.821zM40.436 188.410h0.821v0.821h-0.821zM41.256 188.410h0.821v0.821h-0.821zM42.897 188.410h0.821v0.821h-0.821zM43.718 188.410h0.821v0.821h-0.821zM19.103 189.231h0.821v0.821h-0.821zM19.923 189.231h0.821v0.821h-0.821zM20.744 189.231h0.821v0.821h-0.821zM22.385 189.231h0.821v0.821h-0.821zM23.205 189.231h0.821v0.821h-0.821zM24.026 189.231h0.821v0.821h-0.821zM24.846 189.231h0.821v0.821h-0.821zM25.667 189.231h0.821v0.821h-0.821zM27.308 189.231h0.821v0.821h-0.821zM28.949 189.231h0.821v0.821h-0.821zM29.769 189.231h0.821v0.821h-0.821zM31.410 189.231h0.821v0.821h-0.821zM32.231 189.231h0.821v0.821h-0.821zM34.692 189.231h0.821v0.821h-0.821zM35.513 189.231h0.821v0.821h-0.821zM39.615 189.231h0.821v0.821h-0.821zM40.436 189.231h0.821v0.821h-0.821zM42.077 189.231h0.821v0.821h-0.821zM42.897 189.231h0.821v0.821h-0.821zM17.462 190.051h0.821v0.821h-0.821zM18.282 190.051h0.821v0.821h-0.821zM19.103 190.051h0.821v0.821h-0.821zM19.923 190.051h0.821v0.821h-0.821zM27.308 190.051h0.821v0.821h-0.821zM33.051 190.051h0.821v0.821h-0.821zM37.154 190.051h0.821v0.821h-0.821zM37.974 190.051h0.821v0.821h-0.821zM40.436 190.051h0.821v0.821h-0.821zM42.897 190.051h0.821v0.821h-0.821zM43.718 190.051h0.821v0.821h-0.821zM17.462 190.872h0.821v0.821h-0.821zM18.282 190.872h0.821v0.821h-0.821zM22.385 190.872h0.821v0.821h-0.821zM23.205 190.872h0.821v0.821h-0.821zM27.308 190.872h0.821v0.821h-0.821zM29.769 190.872h0.821v0.821h-0.821zM35.513 190.872h0.821v0.821h-0.821zM37.154 190.872h0.821v0.821h-0.821zM39.615 190.872h0.821v0.821h-0.821zM41.256 190.872h0.821v0.821h-0.821zM42.077 190.872h0.821v0.821h-0.821zM43.718 190.872h0.821v0.821h-0.821zM17.462 191.692h0.821v0.821h-0.821zM19.103 191.692h0.821v0.821h-0.821zM21.564 191.692h0.821v0.821h-0.821zM24.026 191.692h0.821v0.821h-0.821zM27.308 191.692h0.821v0.821h-0.821zM28.128 191.692h0.821v0.821h-0.821zM33.872 191.692h0.821v0.821h-0.821zM34.692 191.692h0.821v0.821h-0.821zM36.333 191.692h0.821v0.821h-0.821zM37.974 191.692h0.821v0.821h-0.821zM38.795 191.692h0.821v0.821h-0.821zM41.256 191.692h0.821v0.821h-0.821zM42.077 191.692h0.821v0.821h-0.821zM43.718 191.692h0.821v0.821h-0.821zM20.744 192.513h0.821v0.821h-0.821zM22.385 192.513h0.821v0.821h-0.821zM23.205 192.513h0.821v0.821h-0.821zM24.026 192.513h0.821v0.821h-0.821zM24.846 192.513h0.821v0.821h-0.821zM25.667 192.513h0.821v0.821h-0.821zM26.487 192.513h0.821v0.821h-0.821zM28.128 192.513h0.821v0.821h-0.821zM29.769 192.513h0.821v0.821h-0.821zM30.590 192.513h0.821v0.821h-0.821zM32.231 192.513h0.821v0.821h-0.821zM33.051 192.513h0.821v0.821h-0.821zM33.872 192.513h0.821v0.821h-0.821zM34.692 192.513h0.821v0.821h-0.821zM36.333 192.513h0.821v0.821h-0.821zM37.154 192.513h0.821v0.821h-0.821zM37.974 192.513h0.821v0.821h-0.821zM38.795 192.513h0.821v0.821h-0.821zM39.615 192.513h0.821v0.821h-0.821zM41.256 192.513h0.821v0.821h-0.821zM42.897 192.513h0.821v0.821h-0.821zM43.718 192.513h0.821v0.821h-0.821zM18.282 193.333h0.821v0.821h-0.821zM21.564 193.333h0.821v0.821h-0.821zM26.487 193.333h0.821v0.821h-0.821zM28.949 193.333h0.821v0.821h-0.821zM29.769 193.333h0.821v0.821h-0.821zM31.410 193.333h0.821v0.821h-0.821zM33.872 193.333h0.821v0.821h-0.821zM38.795 193.333h0.821v0.821h-0.821zM39.615 193.333h0.821v0.821h-0.821zM40.436 193.333h0.821v0.821h-0.821zM41.256 193.333h0.821v0.821h-0.821zM43.718 193.333h0.821v0.821h-0.821zM17.462 194.154h0.821v0.821h-0.821zM19.103 194.154h0.821v0.821h-0.821zM19.923 194.154h0.821v0.821h-0.821zM20.744 194.154h0.821v0.821h-0.821zM21.564 194.154h0.821v0.821h-0.821zM22.385 194.154h0.821v0.821h-0.821zM23.205 194.154h0.821v0.821h-0.821zM28.128 194.154h0.821v0.821h-0.821zM29.769 194.154h0.821v0.821h-0.821zM30.590 194.154h0.821v0.821h-0.821zM31.410 194.154h0.821v0.821h-0.821zM32.231 194.154h0.821v0.821h-0.821zM33.051 194.154h0.821v0.821h-0.821zM35.513 194.154h0.821v0.821h-0.821zM37.154 194.154h0.821v0.821h-0.821zM37.974 194.154h0.821v0.821h-0.821zM38.795 194.154h0.821v0.821h-0.821zM39.615 194.154h0.821v0.821h-0.821zM40.436 194.154h0.821v0.821h-0.821zM41.256 194.154h0.821v0.821h-0.821zM42.897 194.154h0.821v0.821h-0.821zM24.026 194.974h0.821v0.821h-0.821zM24.846 194.974h0.821v0.821h-0.821zM25.667 194.974h0.821v0.821h-0.821zM26.487 194.974h0.821v0.821h-0.821zM28.128 194.974h0.821v0.821h-0.821zM29.769 194.974h0.821v0.821h-0.821zM31.410 194.974h0.821v0.821h-0.821zM33.051 194.974h0.821v0.821h-0.821zM34.692 194.974h0.821v0.821h-0.821zM35.513 194.974h0.821v0.821h-0.821zM37.154 194.974h0.821v0.821h-0.821zM40.436 194.974h0.821v0.821h-0.821zM41.256 194.974h0.821v0.821h-0.821zM17.462 195.795h0.821v0.821h-0.821zM18.282 195.795h0.821v0.821h-0.821zM19.103 195.795h0.821v0.821h-0.821zM19.923 195.795h0.821v0.821h-0.821zM20.744 195.795h0.821v0.821h-0.821zM21.564 195.795h0.821v0.821h-0.821zM22.385 195.795h0.821v0.821h-0.821zM24.846 195.795h0.821v0.821h-0.821zM26.487 195.795h0.821v0.821h-0.821zM28.128 195.795h0.821v0.821h-0.821zM31.410 195.795h0.821v0.821h-0.821zM33.051 195.795h0.821v0.821h-0.821zM33.872 195.795h0.821v0.821h-0.821zM34.692 195.795h0.821v0.821h-0.821zM36.333 195.795h0.821v0.821h-0.821zM37.154 195.795h0.821v0.821h-0.821zM38.795 195.795h0.821v0.821h-0.821zM40.436 195.795h0.821v0.821h-0.821zM17.462 196.615h0.821v0.821h-0.821zM22.385 196.615h0.821v0.821h-0.821zM24.026 196.615h0.821v0.821h-0.821zM25.667 196.615h0.821v0.821h-0.821zM26.487 196.615h0.821v0.821h-0.821zM27.308 196.615h0.821v0.821h-0.821zM28.949 196.615h0.821v0.821h-0.821zM30.590 196.615h0.821v0.821h-0.821zM31.410 196.615h0.821v0.821h-0.821zM33.872 196.615h0.821v0.821h-0.821zM36.333 196.615h0.821v0.821h-0.821zM37.154 196.615h0.821v0.821h-0.821zM40.436 196.615h0.821v0.821h-0.821zM41.256 196.615h0.821v0.821h-0.821zM42.077 196.615h0.821v0.821h-0.821zM42.897 196.615h0.821v0.821h-0.821zM17.462 197.436h0.821v0.821h-0.821zM19.103 197.436h0.821v0.821h-0.821zM19.923 197.436h0.821v0.821h-0.821zM20.744 197.436h0.821v0.821h-0.821zM22.385 197.436h0.821v0.821h-0.821zM26.487 197.436h0.821v0.821h-0.821zM28.128 197.436h0.821v0.821h-0.821zM28.949 197.436h0.821v0.821h-0.821zM30.590 197.436h0.821v0.821h-0.821zM31.410 197.436h0.821v0.821h-0.821zM32.231 197.436h0.821v0.821h-0.821zM35.513 197.436h0.821v0.821h-0.821zM36.333 197.436h0.821v0.821h-0.821zM37.154 197.436h0.821v0.821h-0.821zM37.974 197.436h0.821v0.821h-0.821zM38.795 197.436h0.821v0.821h-0.821zM39.615 197.436h0.821v0.821h-0.821zM40.436 197.436h0.821v0.821h-0.821zM42.077 197.436h0.821v0.821h-0.821zM42.897 197.436h0.821v0.821h-0.821zM17.462 198.256h0.821v0.821h-0.821zM19.103 198.256h0.821v0.821h-0.821zM19.923 198.256h0.821v0.821h-0.821zM20.744 198.256h0.821v0.821h-0.821zM22.385 198.256h0.821v0.821h-0.821zM24.026 198.256h0.821v0.821h-0.821zM24.846 198.256h0.821v0.821h-0.821zM26.487 198.256h0.821v0.821h-0.821zM27.308 198.256h0.821v0.821h-0.821zM28.128 198.256h0.821v0.821h-0.821zM29.769 198.256h0.821v0.821h-0.821zM30.590 198.256h0.821v0.821h-0.821zM32.231 198.256h0.821v0.821h-0.821zM33.051 198.256h0.821v0.821h-0.821zM35.513 198.256h0.821v0.821h-0.821zM36.333 198.256h0.821v0.821h-0.821zM37.154 198.256h0.821v0.821h-0.821zM39.615 198.256h0.821v0.821h-0.821zM41.256 198.256h0.821v0.821h-0.821zM42.897 198.256h0.821v0.821h-0.821zM43.718 198.256h0.821v0.821h-0.821zM17.462 199.077h0.821v0.821h-0.821zM19.103 199.077h0.821v0.821h-0.821zM19.923 199.077h0.821v0.821h-0.821zM20.744 199.077h0.821v0.821h-0.821zM22.385 199.077h0.821v0.821h-0.821zM24.026 199.077h0.821v0.821h-0.821zM24.846 199.077h0.821v0.821h-0.821zM25.667 199.077h0.821v0.821h-0.821zM26.487 199.077h0.821v0.821h-0.821zM27.308 199.077h0.821v0.821h-0.821zM28.128 199.077h0.821v0.821h-0.821zM28.949 199.077h0.821v0.821h-0.821zM32.231 199.077h0.821v0.821h-0.821zM33.872 199.077h0.821v0.821h-0.821zM34.692 199.077h0.821v0.821h-0.821zM35.513 199.077h0.821v0.821h-0.821zM36.333 199.077h0.821v0.821h-0.821zM37.154 199.077h0.821v0.821h-0.821zM37.974 199.077h0.821v0.821h-0.821zM38.795 199.077h0.821v0.821h-0.821zM39.615 199.077h0.821v0.821h-0.821zM41.256 199.077h0.821v0.821h-0.821zM17.462 199.897h0.821v0.821h-0.821zM22.385 199.897h0.821v0.821h-0.821zM24.026 199.897h0.821v0.821h-0.821zM24.846 199.897h0.821v0.821h-0.821zM25.667 199.897h0.821v0.821h-0.821zM26.487 199.897h0.821v0.821h-0.821zM28.128 199.897h0.821v0.821h-0.821zM29.769 199.897h0.821v0.821h-0.821zM30.590 199.897h0.821v0.821h-0.821zM31.410 199.897h0.821v0.821h-0.821zM32.231 199.897h0.821v0.821h-0.821zM33.872 199.897h0.821v0.821h-0.821zM36.333 199.897h0.821v0.821h-0.821zM37.154 199.897h0.821v0.821h-0.821zM37.974 199.897h0.821v0.821h-0.821zM38.795 199.897h0.821v0.821h-0.821zM39.615 199.897h0.821v0.821h-0.821zM40.436 199.897h0.821v0.821h-0.821zM43.718 199.897h0.821v0.821h-0.821zM17.462 200.718h0.821v0.821h-0.821zM18.282 200.718h0.821v0.821h-0.821zM19.103 200.718h0.821v0.821h-0.821zM19.923 200.718h0.821v0.821h-0.821zM20.744 200.718h0.821v0.821h-0.821zM21.564 200.718h0.821v0.821h-0.821zM22.385 200.718h0.821v0.821h-0.821zM24.846 200.718h0.821v0.821h-0.821zM26.487 200.718h0.821v0.821h-0.821zM27.308 200.718h0.821v0.821h-0.821zM28.949 200.718h0.821v0.821h-0.821zM30.590 200.718h0.821v0.821h-0.821zM33.051 200.718h0.821v0.821h-0.821zM33.872 200.718h0.821v0.821h-0.821zM34.692 200.718h0.821v0.821h-0.821zM36.333 200.718h0.821v0.821h-0.821zM37.974 200.718h0.821v0.821h-0.821zM40.436 200.718h0.821v0.821h-0.821zM42.077 200.718h0.821v0.821h-0.821z" fill="#000000" shape-rendering="crispEdges"/><text x="64.892" y="177" font-family="Liberation Sans, Arial, DejaVu Sans, sans-serif" font-size="3.5" fill="#d7e0ea" text-anchor="start"><tspan font-weight="normal">Termine &amp; Infos – einfach scannen</tspan></text><g transform="translate(63.025,184.000) scale(0.25000)"><path d="M17.472 14.382c-.297-.149-1.758-.867-2.03-.967-.273-.099-.471-.148-.67.15-.197.297-.767.966-.94 1.164-.173.199-.347.223-.644.075-.297-.15-1.255-.463-2.39-1.475-.883-.788-1.48-1.761-1.653-2.059-.173-.297-.018-.458.13-.606.134-.133.298-.347.446-.52.149-.174.198-.298.298-.497.099-.198.05-.371-.025-.52-.075-.149-.669-1.612-.916-2.207-.242-.579-.487-.5-.669-.51-.173-.008-.371-.01-.57-.01-.198 0-.52.074-.792.372-.272.297-1.04 1.016-1.04 2.479 0 1.462 1.065 2.875 1.213 3.074.149.198 2.096 3.2 5.077 4.487.709.306 1.262.489 1.694.625.712.227 1.36.195 1.871.118.571-.085 1.758-.719 2.006-1.413.248-.694.248-1.289.173-1.413-.074-.124-.272-.198-.57-.347m-5.421 7.403h-.004a9.87 9.87 0 01-5.031-1.378l-.361-.214-3.741.982.998-3.648-.235-.374a9.86 9.86 0 01-1.51-5.26c.001-5.45 4.436-9.884 9.888-9.884 2.64 0 5.122 1.03 6.988 2.898a9.825 9.825 0 012.893 6.994c-.003 5.45-4.437 9.884-9.885 9.884m8.413-18.297A11.815 11.815 0 0012.05 0C5.495 0 .16 5.335.157 11.892c0 2.096.547 4.142 1.588 5.945L.057 24l6.305-1.654a11.882 11.882 0 005.683 1.448h.005c6.554 0 11.89-5.335 11.893-11.893a11.821 11.821 0 00-3.48-8.413Z" fill="#ffffff"/></g><text x="91.300" y="188.800" font-family="Liberation Sans, Arial, DejaVu Sans, sans-serif" font-size="5.0" font-weight="bold" fill="#ffffff" text-anchor="middle">+43 664 5171370</text><g transform="translate(113.575,184.000) scale(0.25000)"><path d="M11.944 0A12 12 0 0 0 0 12a12 12 0 0 0 12 12 12 12 0 0 0 12-12A12 12 0 0 0 12 0a12 12 0 0 0-.056 0zm4.962 7.224c.1-.002.321.023.465.14a.506.506 0 0 1 .171.325c.016.093.036.306.02.472-.18 1.898-.962 6.502-1.36 8.627-.168.9-.499 1.201-.82 1.23-.696.065-1.225-.46-1.9-.902-1.056-.693-1.653-1.124-2.678-1.8-1.185-.78-.417-1.21.258-1.91.177-.184 3.247-2.977 3.307-3.23.007-.032.014-.15-.056-.212s-.174-.041-.249-.024c-.106.024-1.793 1.14-5.061 3.345-.48.33-.913.49-1.302.48-.428-.008-1.252-.241-1.865-.44-.752-.245-1.349-.374-1.297-.789.027-.216.325-.437.893-.663 3.498-1.524 5.83-2.529 6.998-3.014 3.332-1.386 4.025-1.627 4.476-1.635z" fill="#ffffff"/></g><g transform="translate(121.975,184.000) scale(0.25000)"><path d="M12 0q-.934 0-1.83.139l.17 1.111a11 11 0 0 1 3.32 0l.172-1.111A12 12 0 0 0 12 0M9.152.34A12 12 0 0 0 5.77 1.742l.584.961a10.8 10.8 0 0 1 3.066-1.27zm5.696 0-.268 1.094a10.8 10.8 0 0 1 3.066 1.27l.584-.962A12 12 0 0 0 14.848.34M12 2.25a9.75 9.75 0 0 0-8.539 14.459c.074.134.1.292.064.441l-1.013 4.338 4.338-1.013a.62.62 0 0 1 .441.064A9.7 9.7 0 0 0 12 21.75c5.385 0 9.75-4.365 9.75-9.75S17.385 2.25 12 2.25m-7.092.068a12 12 0 0 0-2.59 2.59l.909.664a11 11 0 0 1 2.345-2.345zm14.184 0-.664.909a11 11 0 0 1 2.345 2.345l.909-.664a12 12 0 0 0-2.59-2.59M1.742 5.77A12 12 0 0 0 .34 9.152l1.094.268a10.8 10.8 0 0 1 1.269-3.066zm20.516 0-.961.584a10.8 10.8 0 0 1 1.27 3.066l1.093-.268a12 12 0 0 0-1.402-3.383M.138 10.168A12 12 0 0 0 0 12q0 .934.139 1.83l1.111-.17A11 11 0 0 1 1.125 12q0-.848.125-1.66zm23.723.002-1.111.17q.125.812.125 1.66c0 .848-.042 1.12-.125 1.66l1.111.172a12.1 12.1 0 0 0 0-3.662M1.434 14.58l-1.094.268a12 12 0 0 0 .96 2.591l-.265 1.14 1.096.255.36-1.539-.188-.365a10.8 10.8 0 0 1-.87-2.35m21.133 0a10.8 10.8 0 0 1-1.27 3.067l.962.584a12 12 0 0 0 1.402-3.383zm-1.793 3.848a11 11 0 0 1-2.345 2.345l.664.909a12 12 0 0 0 2.59-2.59zm-19.959 1.1L.357 21.48a1.8 1.8 0 0 0 2.162 2.161l1.954-.455-.256-1.095-1.953.455a.675.675 0 0 1-.81-.81l.454-1.954zm16.832 1.769a10.8 10.8 0 0 1-3.066 1.27l.268 1.093a12 12 0 0 0 3.382-1.402zm-10.94.213-1.54.36.256 1.095 1.139-.266c.814.415 1.683.74 2.591.961l.268-1.094a10.8 10.8 0 0 1-2.35-.869zm3.634 1.24-.172 1.111a12.1 12.1 0 0 0 3.662 0l-.17-1.111q-.812.125-1.66.125a11 11 0 0 1-1.66-.125" fill="#ffffff"/></g><text x="71.120" y="196" font-family="Liberation Sans, Arial, DejaVu Sans, sans-serif" font-size="4.0" fill="#d7e0ea" text-anchor="start"><tspan font-weight="normal">Office@w-paternoster.at</tspan></text><rect x="48.068" y="197.100" rx="5.9" width="94.864" height="11.800" fill="#ffffff"/><text x="95.5" y="204.728" font-family="Liberation Sans, Arial, DejaVu Sans, sans-serif" font-size="4.8" font-weight="bold" fill="#0d2b45" text-anchor="middle">www.24-stunden-mietwerkstatt.at</text></svg>