<svg xmlns="http://www.w3.org/2000/svg" width="91.0mm" height="61.0mm" viewBox="0 0 91.0 61.0">
<defs><linearGradient id="bg" x1="0" y1="0" x2="0" y2="1"><stop offset="0" stop-color="#0d2b45"/><stop offset="1" stop-color="#0b2438"/></linearGradient></defs><rect x="0" y="0" width="91.0" height="61.0" fill="url(#bg)"/><g opacity="0.5" stroke="none"><g transform="translate(65.52,30.5) rotate(35) scale(1.5) translate(-12,-12)"><g transform="translate(0.000,0.000) scale(1.00000)"><path d="M7 10h3v-3l-3.5 -3.5a6 6 0 0 1 8 8l6 6a2 2 0 0 1 -3 3l-6 -6a6 6 0 0 1 -8 -8l3.5 3.5" fill="none" stroke="#163a5c" stroke-width="1.6" stroke-linecap="round" stroke-linejoin="round"/></g></g><g transform="translate(65.52,30.5) rotate(-35) scale(1.5) translate(-12,-12)"><g transform="translate(0.000,0.000) scale(1.00000)"><path d="M7 10h3v-3l-3.5 -3.5a6 6 0 0 1 8 8l6 6a2 2 0 0 1 -3 3l-6 -6a6 6 0 0 1 -8 -8l3.5 3.5" fill="none" stroke="#163a5c" stroke-width="1.6" stroke-linecap="round" stroke-linejoin="round"/></g></g></g><text x="16.638" y="12.5" font-family="Liberation Sans, Arial, DejaVu Sans, sans-serif" font-size="3.35" fill="#ffffff" text-anchor="start"><tspan font-weight="normal">Anfragen ausschließlich per WhatsApp</tspan></text><text x="28.306" y="17.3" font-family="Liberation Sans, Arial, DejaVu Sans, sans-serif" font-size="3.35" fill="#ffffff" text-anchor="start"><tspan font-weight="normal">oder Telegram / Signal.</tspan></text><text x="12.726" y="23.6" font-family="Liberation Sans, Arial, DejaVu Sans, sans-serif" font-size="3.35" fill="#ffffff" text-anchor="start"><tspan font-weight="normal">Anrufe werden </tspan><tspan font-weight="bold">NICHT</tspan><tspan font-weight="normal"> entgegengenommen.</tspan></text><g transform="translate(17.573,30.700) scale(0.23333)"><path d="M17.472 14.382c-.297-.149-1.758-.867-2.03-.967-.273-.099-.471-.148-.67.15-.197.297-.767.966-.94 1.164-.173.199-.347.223-.644.075-.297-.15-1.255-.463-2.39-1.475-.883-.788-1.48-1.761-1.653-2.059-.173-.297-.018-.458.13-.606.134-.133.298-.347.446-.52.149-.174.198-.298.298-.497.099-.198.05-.371-.025-.52-.075-.149-.669-1.612-.916-2.207-.242-.579-.487-.5-.669-.51-.173-.008-.371-.01-.57-.01-.198 0-.52.074-.792.372-.272.297-1.04 1.016-1.04 2.479 0 1.462 1.065 2.875 1.213 3.074.149.198 2.096 3.2 5.077 4.487.709.306 1.262.489 1.694.625.712.227 1.36.195 1.871.118.571-.085 1.758-.719 2.006-1.413.248-.694.248-1.289.173-1.413-.074-.124-.272-.198-.57-.347m-5.421 7.403h-.004a9.87 9.87 0 01-5.031-1.378l-.361-.214-3.741.982.998-3.648-.235-.374a9.86 9.86 0 01-1.51-5.26c.001-5.45 4.436-9.884 9.888-9.884 2.64 0 5.122 1.03 6.988 2.898a9.825 9.825 0 012.893 6.994c-.003 5.45-4.437 9.884-9.885 9.884m8.413-18.297A11.815 11.815 0 0012.05 0C5.495 0 .16 5.335.157 11.892c0 2.096.547 4.142 1.588 5.945L.057 24l6.305-1.654a11.882 11.882 0 005.683 1.448h.005c6.554 0 11.89-5.335 11.893-11.893a11.821 11.821 0 00-3.48-8.413Z" fill="#ffffff"/></g><text x="41.4" y="34.94" font-family="Liberation Sans, Arial, DejaVu Sans, sans-serif" font-size="4.0" font-weight="bold" fill="#ffffff" text-anchor="middle">+43 664 5171370</text><g transform="translate(59.627,30.700) scale(0.23333)"><path d="M11.944 0A12 12 0 0 0 0 12a12 12 0 0 0 12 12 12 12 0 0 0 12-12A12 12 0 0 0 12 0a12 12 0 0 0-.056 0zm4.962 7.224c.1-.002.321.023.465.14a.506.506 0 0 1 .171.325c.016.093.036.306.02.472-.18 1.898-.962 6.502-1.36 8.627-.168.9-.499 1.201-.82 1.23-.696.065-1.225-.46-1.9-.902-1.056-.693-1.653-1.124-2.678-1.8-1.185-.78-.417-1.21.258-1.91.177-.184 3.247-2.977 3.307-3.23.007-.032.014-.15-.056-.212s-.174-.041-.249-.024c-.106.024-1.793 1.14-5.061 3.345-.48.33-.913.49-1.302.48-.428-.008-1.252-.241-1.865-.44-.752-.245-1.349-.374-1.297-.789.027-.216.325-.437.893-.663 3.498-1.524 5.83-2.529 6.998-3.014 3.332-1.386 4.025-1.627 4.476-1.635z" fill="#ffffff"/></g><g transform="translate(67.827,30.700) scale(0.23333)"><path d="M12 0q-.934 0-1.83.139l.17 1.111a11 11 0 0 1 3.32 0l.172-1.111A12 12 0 0 0 12 0M9.152.34A12 12 0 0 0 5.77 1.742l.584.961a10.8 10.8 0 0 1 3.066-1.27zm5.696 0-.268 1.094a10.8 10.8 0 0 1 3.066 1.27l.584-.962A12 12 0 0 0 14.848.34M12 2.25a9.75 9.75 0 0 0-8.539 14.459c.074.134.1.292.064.441l-1.013 4.338 4.338-1.013a.62.62 0 0 1 .441.064A9.7 9.7 0 0 0 12 21.75c5.385 0 9.75-4.365 9.75-9.75S17.385 2.25 12 2.25m-7.092.068a12 12 0 0 0-2.59 2.59l.909.664a11 11 0 0 1 2.345-2.345zm14.184 0-.664.909a11 11 0 0 1 2.345 2.345l.909-.664a12 12 0 0 0-2.59-2.59M1.742 5.77A12 12 0 0 0 .34 9.152l1.094.268a10.8 10.8 0 0 1 1.269-3.066zm20.516 0-.961.584a10.8 10.8 0 0 1 1.27 3.066l1.093-.268a12 12 0 0 0-1.402-3.383M.138 10.168A12 12 0 0 0 0 12q0 .934.139 1.83l1.111-.17A11 11 0 0 1 1.125 12q0-.848.125-1.66zm23.723.002-1.111.17q.125.812.125 1.66c0 .848-.042 1.12-.125 1.66l1.111.172a12.1 12.1 0 0 0 0-3.662M1.434 14.58l-1.094.268a12 12 0 0 0 .96 2.591l-.265 1.14 1.096.255.36-1.539-.188-.365a10.8 10.8 0 0 1-.87-2.35m21.133 0a10.8 10.8 0 0 1-1.27 3.067l.962.584a12 12 0 0 0 1.402-3.383zm-1.793 3.848a11 11 0 0 1-2.345 2.345l.664.909a12 12 0 0 0 2.59-2.59zm-19.959 1.1L.357 21.48a1.8 1.8 0 0 0 2.162 2.161l1.954-.455-.256-1.095-1.953.455a.675.675 0 0 1-.81-.81l.454-1.954zm16.832 1.769a10.8 10.8 0 0 1-3.066 1.27l.268 1.093a12 12 0 0 0 3.382-1.402zm-10.94.213-1.54.36.256 1.095 1.139-.266c.814.415 1.683.74 2.591.961l.268-1.094a10.8 10.8 0 0 1-2.35-.869zm3.634 1.24-.172 1.111a12.1 12.1 0 0 0 3.662 0l-.17-1.111q-.812.125-1.66.125a11 11 0 0 1-1.66-.125" fill="#ffffff"/></g><text x="27.445" y="42.5" font-family="Liberation Sans, Arial, DejaVu Sans, sans-serif" font-size="3.35" fill="#d7e0ea" text-anchor="start"><tspan font-weight="normal">Office@w-paternoster.at</tspan></text><line x1="23.5" y1="47.5" x2="67.5" y2="47.5" stroke="#ffffff" stroke-width="0.25" opacity="0.3"/><text x="12.645" y="52.5" font-family="Liberation Sans, Arial, DejaVu Sans, sans-serif" font-size="3.0" fill="#d7e0ea" text-anchor="start"><tspan font-weight="normal">24/7 Zugang nach Registrierung und Einweisung.</tspan></text><g id="trim-guides" opacity="0.0"><rect x="3.0" y="3.0" width="85.0" height="55.0" fill="none" stroke="#ff00ff" stroke-width="0.1"/></g></svg>