<svg xmlns="http://www.w3.org/2000/svg" width="91.0mm" height="61.0mm" viewBox="0 0 91.0 61.0">
<defs><linearGradient id="bg" x1="0" y1="0" x2="0" y2="1"><stop offset="0" stop-color="#0d2b45"/><stop offset="1" stop-color="#0b2438"/></linearGradient></defs><rect x="0" y="0" width="91.0" height="61.0" fill="url(#bg)"/><g opacity="0.5" stroke="none"><g transform="translate(65.52,30.5) rotate(35) scale(1.5) translate(-12,-12)"><g transform="translate(0.000,0.000) scale(1.00000)"><path d="M7 10h3v-3l-3.5 -3.5a6 6 0 0 1 8 8l6 6a2 2 0 0 1 -3 3l-6 -6a6 6 0 0 1 -8 -8l3.5 3.5" fill="none" stroke="#163a5c" stroke-width="1.6" stroke-linecap="round" stroke-linejoin="round"/></g></g><g transform="translate(65.52,30.5) rotate(-35) scale(1.5) translate(-12,-12)"><g transform="translate(0.000,0.000) scale(1.00000)"><path d="M7 10h3v-3l-3.5 -3.5a6 6 0 0 1 8 8l6 6a2 2 0 0 1 -3 3l-6 -6a6 6 0 0 1 -8 -8l3.5 3.5" fill="none" stroke="#163a5c" stroke-width="1.6" stroke-linecap="round" stroke-linejoin="round"/></g></g></g><circle cx="15.5" cy="14.5" r="10.0" fill="none" stroke="#ffffff" stroke-width="0.5"/><circle cx="15.5" cy="14.5" r="8.6" fill="none" stroke="#ffffff" stroke-width="0.25"/><g transform="translate(11.000,9.600) scale(0.56250)"><path d="M6.956 1.745C7.021.81 7.908.087 8.864.325l.261.066c.463.116.874.456 1.012.965.22.816.533 2.511.062 4.51a10 10 0 0 1 .443-.051c.713-.065 1.669-.072 2.516.21.518.173.994.681 1.2 1.273.184.532.16 1.162-.234 1.733q.086.18.138.363c.077.27.113.567.113.856s-.036.586-.113.856c-.039.135-.09.273-.16.404.169.387.107.819-.003 1.148a3.2 3.2 0 0 1-.488.901c.054.152.076.312.076.465 0 .305-.089.625-.253.912C13.1 15.522 12.437 16 11.5 16H8c-.605 0-1.07-.081-1.466-.218a4.8 4.8 0 0 1-.97-.484l-.048-.03c-.504-.307-.999-.609-2.068-.722C2.682 14.464 2 13.846 2 13V9c0-.85.685-1.432 1.357-1.615.849-.232 1.574-.787 2.132-1.41.56-.627.914-1.28 1.039-1.639.199-.575.356-1.539.428-2.59z" fill="#ffffff"/></g><text x="8.793" y="11.373" transform="rotate(-65.000 8.793 11.373)" font-family="Liberation Sans, Arial, DejaVu Sans, sans-serif" font-size="1.65" font-weight="bold" letter-spacing="1.0" fill="#ffffff" text-anchor="middle" dominant-baseline="central">M</text><text x="9.303" y="10.456" transform="rotate(-56.875 9.303 10.456)" font-family="Liberation Sans, Arial, DejaVu Sans, sans-serif" font-size="1.65" font-weight="bold" letter-spacing="1.0" fill="#ffffff" text-anchor="middle" dominant-baseline="central">A</text><text x="9.936" y="9.621" transform="rotate(-48.750 9.936 9.621)" font-family="Liberation Sans, Arial, DejaVu Sans, sans-serif" font-size="1.65" font-weight="bold" letter-spacing="1.0" fill="#ffffff" text-anchor="middle" dominant-baseline="central">C</text><text x="10.682" y="8.883" transform="rotate(-40.625 10.682 8.883)" font-family="Liberation Sans, Arial, DejaVu Sans, sans-serif" font-size="1.65" font-weight="bold" letter-spacing="1.0" fill="#ffffff" text-anchor="middle" dominant-baseline="central">H</text><text x="11.524" y="8.259" transform="rotate(-32.500 11.524 8.259)" font-family="Liberation Sans, Arial, DejaVu Sans, sans-serif" font-size="1.65" font-weight="bold" letter-spacing="1.0" fill="#ffffff" text-anchor="middle" dominant-baseline="central">'</text><text x="12.446" y="7.760" transform="rotate(-24.375 12.446 7.760)" font-family="Liberation Sans, Arial, DejaVu Sans, sans-serif" font-size="1.65" font-weight="bold" letter-spacing="1.0" fill="#ffffff" text-anchor="middle" dominant-baseline="central">S</text><text x="13.429" y="7.396" transform="rotate(-16.250 13.429 7.396)" font-family="Liberation Sans, Arial, DejaVu Sans, sans-serif" font-size="1.65" font-weight="bold" letter-spacing="1.0" fill="#ffffff" text-anchor="middle" dominant-baseline="central"> </text><text x="14.454" y="7.174" transform="rotate(-8.125 14.454 7.174)" font-family="Liberation Sans, Arial, DejaVu Sans, sans-serif" font-size="1.65" font-weight="bold" letter-spacing="1.0" fill="#ffffff" text-anchor="middle" dominant-baseline="central">D</text><text x="15.500" y="7.100" transform="rotate(0.000 15.500 7.100)" font-family="Liberation Sans, Arial, DejaVu Sans, sans-serif" font-size="1.65" font-weight="bold" letter-spacing="1.0" fill="#ffffff" text-anchor="middle" dominant-baseline="central">I</text><text x="16.546" y="7.174" transform="rotate(8.125 16.546 7.174)" font-family="Liberation Sans, Arial, DejaVu Sans, sans-serif" font-size="1.65" font-weight="bold" letter-spacing="1.0" fill="#ffffff" text-anchor="middle" dominant-baseline="central">R</text><text x="17.571" y="7.396" transform="rotate(16.250 17.571 7.396)" font-family="Liberation Sans, Arial, DejaVu Sans, sans-serif" font-size="1.65" font-weight="bold" letter-spacing="1.0" fill="#ffffff" text-anchor="middle" dominant-baseline="central"> </text><text x="18.554" y="7.760" transform="rotate(24.375 18.554 7.760)" font-family="Liberation Sans, Arial, DejaVu Sans, sans-serif" font-size="1.65" font-weight="bold" letter-spacing="1.0" fill="#ffffff" text-anchor="middle" dominant-baseline="central">S</text><text x="19.476" y="8.259" transform="rotate(32.500 19.476 8.259)" font-family="Liberation Sans, Arial, DejaVu Sans, sans-serif" font-size="1.65" font-weight="bold" letter-spacing="1.0" fill="#ffffff" text-anchor="middle" dominant-baseline="central">E</text><text x="20.318" y="8.883" transform="rotate(40.625 20.318 8.883)" font-family="Liberation Sans, Arial, DejaVu Sans, sans-serif" font-size="1.65" font-weight="bold" letter-spacing="1.0" fill="#ffffff" text-anchor="middle" dominant-baseline="central">L</text><text x="21.064" y="9.621" transform="rotate(48.750 21.064 9.621)" font-family="Liberation Sans, Arial, DejaVu Sans, sans-serif" font-size="1.65" font-weight="bold" letter-spacing="1.0" fill="#ffffff" text-anchor="middle" dominant-baseline="central">B</text><text x="21.697" y="10.456" transform="rotate(56.875 21.697 10.456)" font-family="Liberation Sans, Arial, DejaVu Sans, sans-serif" font-size="1.65" font-weight="bold" letter-spacing="1.0" fill="#ffffff" text-anchor="middle" dominant-baseline="central">S</text><text x="22.207" y="11.373" transform="rotate(65.000 22.207 11.373)" font-family="Liberation Sans, Arial, DejaVu Sans, sans-serif" font-size="1.65" font-weight="bold" letter-spacing="1.0" fill="#ffffff" text-anchor="middle" dominant-baseline="central">T</text><text x="10.044" y="19.499" transform="rotate(47.500 10.044 19.499)" font-family="Liberation Sans, Arial, DejaVu Sans, sans-serif" font-size="1.65" font-weight="bold" letter-spacing="1.0" fill="#ffffff" text-anchor="middle" dominant-baseline="central">M</text><text x="10.785" y="20.203" transform="rotate(39.583 10.785 20.203)" font-family="Liberation Sans, Arial, DejaVu Sans, sans-serif" font-size="1.65" font-weight="bold" letter-spacing="1.0" fill="#ffffff" text-anchor="middle" dominant-baseline="central">I</text><text x="11.615" y="20.798" transform="rotate(31.667 11.615 20.798)" font-family="Liberation Sans, Arial, DejaVu Sans, sans-serif" font-size="1.65" font-weight="bold" letter-spacing="1.0" fill="#ffffff" text-anchor="middle" dominant-baseline="central">E</text><text x="12.520" y="21.273" transform="rotate(23.750 12.520 21.273)" font-family="Liberation Sans, Arial, DejaVu Sans, sans-serif" font-size="1.65" font-weight="bold" letter-spacing="1.0" fill="#ffffff" text-anchor="middle" dominant-baseline="central">T</text><text x="13.481" y="21.619" transform="rotate(15.833 13.481 21.619)" font-family="Liberation Sans, Arial, DejaVu Sans, sans-serif" font-size="1.65" font-weight="bold" letter-spacing="1.0" fill="#ffffff" text-anchor="middle" dominant-baseline="central">W</text><text x="14.481" y="21.829" transform="rotate(7.917 14.481 21.829)" font-family="Liberation Sans, Arial, DejaVu Sans, sans-serif" font-size="1.65" font-weight="bold" letter-spacing="1.0" fill="#ffffff" text-anchor="middle" dominant-baseline="central">E</text><text x="15.500" y="21.900" transform="rotate(0.000 15.500 21.900)" font-family="Liberation Sans, Arial, DejaVu Sans, sans-serif" font-size="1.65" font-weight="bold" letter-spacing="1.0" fill="#ffffff" text-anchor="middle" dominant-baseline="central">R</text><text x="16.519" y="21.829" transform="rotate(-7.917 16.519 21.829)" font-family="Liberation Sans, Arial, DejaVu Sans, sans-serif" font-size="1.65" font-weight="bold" letter-spacing="1.0" fill="#ffffff" text-anchor="middle" dominant-baseline="central">K</text><text x="17.519" y="21.619" transform="rotate(-15.833 17.519 21.619)" font-family="Liberation Sans, Arial, DejaVu Sans, sans-serif" font-size="1.65" font-weight="bold" letter-spacing="1.0" fill="#ffffff" text-anchor="middle" dominant-baseline="central">S</text><text x="18.480" y="21.273" transform="rotate(-23.750 18.480 21.273)" font-family="Liberation Sans, Arial, DejaVu Sans, sans-serif" font-size="1.65" font-weight="bold" letter-spacing="1.0" fill="#ffffff" text-anchor="middle" dominant-baseline="central">T</text><text x="19.385" y="20.798" transform="rotate(-31.667 19.385 20.798)" font-family="Liberation Sans, Arial, DejaVu Sans, sans-serif" font-size="1.65" font-weight="bold" letter-spacing="1.0" fill="#ffffff" text-anchor="middle" dominant-baseline="central">A</text><text x="20.215" y="20.203" transform="rotate(-39.583 20.215 20.203)" font-family="Liberation Sans, Arial, DejaVu Sans, sans-serif" font-size="1.65" font-weight="bold" letter-spacing="1.0" fill="#ffffff" text-anchor="middle" dominant-baseline="central">T</text><text x="20.956" y="19.499" transform="rotate(-47.500 20.956 19.499)" font-family="Liberation Sans, Arial, DejaVu Sans, sans-serif" font-size="1.65" font-weight="bold" letter-spacing="1.0" fill="#ffffff" text-anchor="middle" dominant-baseline="central">T</text><text x="30.0" y="12.5" font-family="Liberation Sans, Arial, DejaVu Sans, sans-serif" font-size="6.4" font-weight="bold" fill="#ffffff">Werner Paternoster</text><text x="30.0" y="17.6" font-family="Liberation Sans, Arial, DejaVu Sans, sans-serif" font-size="3.1" fill="#d7e0ea">Schwadorf 18, 3100 St. Pölten</text><text x="30.0" y="21.6" font-family="Liberation Sans, Arial, DejaVu Sans, sans-serif" font-size="3.1" fill="#d7e0ea">UID: ATU62142005</text><line x1="7.0" y1="28.0" x2="84.0" y2="28.0" stroke="#ffffff" stroke-width="0.25" opacity="0.35"/><circle cx="7.9" cy="33.4" r="0.85" fill="#ffffff"/><text x="10.2" y="34.5" font-family="Liberation Sans, Arial, DejaVu Sans, sans-serif" font-size="3.25" fill="#ffffff">Hebebühnen bis 5,5t</text><circle cx="7.9" cy="38.4" r="0.85" fill="#ffffff"/><text x="10.2" y="39.5" font-family="Liberation Sans, Arial, DejaVu Sans, sans-serif" font-size="3.25" fill="#ffffff">Werkzeugwagen inklusive</text><circle cx="7.9" cy="43.4" r="0.85" fill="#ffffff"/><text x="10.2" y="44.5" font-family="Liberation Sans, Arial, DejaVu Sans, sans-serif" font-size="3.25" fill="#ffffff">24/7 Zugang nach Einweisung</text><circle cx="7.9" cy="48.4" r="0.85" fill="#ffffff"/><text x="10.2" y="49.5" font-family="Liberation Sans, Arial, DejaVu Sans, sans-serif" font-size="3.25" fill="#ffffff">Trockeneis- &amp; Klimaservice</text><circle cx="7.9" cy="53.4" r="0.85" fill="#ffffff"/><text x="10.2" y="54.5" font-family="Liberation Sans, Arial, DejaVu Sans, sans-serif" font-size="3.25" fill="#ffffff">Reifenhandel</text><rect x="60.0" y="30.0" width="24.0" height="24.0" rx="1.8" fill="#ffffff"/><path d="M60.960 30.960h0.320v0.320h-0.320zM61.280 30.960h0.320v0.320h-0.320zM61.600 30.960h0.320v0.320h-0.320zM61.920 30.960h0.320v0.320h-0.320zM62.240 30.960h0.320v0.320h-0.320zM62.560 30.960h0.320v0.320h-0.320zM62.880 30.960h0.320v0.320h-0.320zM63.520 30.960h0.320v0.320h-0.320zM63.840 30.960h0.320v0.320h-0.320zM64.480 30.960h0.320v0.320h-0.320zM64.800 30.960h0.320v0.320h-0.320zM65.120 30.960h0.320v0.320h-0.320zM65.440 30.960h0.320v0.320h-0.320zM65.760 30.960h0.320v0.320h-0.320zM66.080 30.960h0.320v0.320h-0.320zM66.400 30.960h0.320v0.320h-0.320zM66.720 30.960h0.320v0.320h-0.320zM67.360 30.960h0.320v0.320h-0.320zM67.680 30.960h0.320v0.320h-0.320zM68.000 30.960h0.320v0.320h-0.320zM68.320 30.960h0.320v0.320h-0.320zM68.960 30.960h0.320v0.320h-0.320zM69.920 30.960h0.320v0.320h-0.320zM70.240 30.960h0.320v0.320h-0.320zM70.560 30.960h0.320v0.320h-0.320zM70.880 30.960h0.320v0.320h-0.320zM71.200 30.960h0.320v0.320h-0.320zM71.520 30.960h0.320v0.320h-0.320zM72.800 30.960h0.320v0.320h-0.320zM73.120 30.960h0.320v0.320h-0.320zM73.440 30.960h0.320v0.320h-0.320zM74.080 30.960h0.320v0.320h-0.320zM74.400 30.960h0.320v0.320h-0.320zM74.720 30.960h0.320v0.320h-0.320zM75.040 30.960h0.320v0.320h-0.320zM75.360 30.960h0.320v0.320h-0.320zM75.680 30.960h0.320v0.320h-0.320zM76.640 30.960h0.320v0.320h-0.320zM76.960 30.960h0.320v0.320h-0.320zM77.920 30.960h0.320v0.320h-0.320zM78.240 30.960h0.320v0.320h-0.320zM78.560 30.960h0.320v0.320h-0.320zM79.520 30.960h0.320v0.320h-0.320zM79.840 30.960h0.320v0.320h-0.320zM80.160 30.960h0.320v0.320h-0.320zM80.800 30.960h0.320v0.320h-0.320zM81.120 30.960h0.320v0.320h-0.320zM81.440 30.960h0.320v0.320h-0.320zM81.760 30.960h0.320v0.320h-0.320zM82.080 30.960h0.320v0.320h-0.320zM82.400 30.960h0.320v0.320h-0.320zM82.720 30.960h0.320v0.320h-0.320zM60.960 31.280h0.320v0.320h-0.320zM62.880 31.280h0.320v0.320h-0.320zM63.520 31.280h0.320v0.320h-0.320zM64.480 31.280h0.320v0.320h-0.320zM64.800 31.280h0.320v0.320h-0.320zM65.760 31.280h0.320v0.320h-0.320zM66.080 31.280h0.320v0.320h-0.320zM66.400 31.280h0.320v0.320h-0.320zM66.720 31.280h0.320v0.320h-0.320zM67.040 31.280h0.320v0.320h-0.320zM67.360 31.280h0.320v0.320h-0.320zM68.320 31.280h0.320v0.320h-0.320zM70.560 31.280h0.320v0.320h-0.320zM71.840 31.280h0.320v0.320h-0.320zM72.160 31.280h0.320v0.320h-0.320zM73.120 31.280h0.320v0.320h-0.320zM73.440 31.280h0.320v0.320h-0.320zM75.360 31.280h0.320v0.320h-0.320zM76.640 31.280h0.320v0.320h-0.320zM76.960 31.280h0.320v0.320h-0.320zM77.280 31.280h0.320v0.320h-0.320zM78.560 31.280h0.320v0.320h-0.320zM78.880 31.280h0.320v0.320h-0.320zM79.200 31.280h0.320v0.320h-0.320zM80.800 31.280h0.320v0.320h-0.320zM82.720 31.280h0.320v0.320h-0.320zM60.960 31.600h0.320v0.320h-0.320zM61.600 31.600h0.320v0.320h-0.320zM61.920 31.600h0.320v0.320h-0.320zM62.240 31.600h0.320v0.320h-0.320zM62.880 31.600h0.320v0.320h-0.320zM63.520 31.600h0.320v0.320h-0.320zM63.840 31.600h0.320v0.320h-0.320zM64.160 31.600h0.320v0.320h-0.320zM64.800 31.600h0.320v0.320h-0.320zM65.120 31.600h0.320v0.320h-0.320zM65.440 31.600h0.320v0.320h-0.320zM65.760 31.600h0.320v0.320h-0.320zM66.080 31.600h0.320v0.320h-0.320zM66.720 31.600h0.320v0.320h-0.320zM67.040 31.600h0.320v0.320h-0.320zM67.360 31.600h0.320v0.320h-0.320zM68.320 31.600h0.320v0.320h-0.320zM68.640 31.600h0.320v0.320h-0.320zM69.600 31.600h0.320v0.320h-0.320zM69.920 31.600h0.320v0.320h-0.320zM70.560 31.600h0.320v0.320h-0.320zM71.200 31.600h0.320v0.320h-0.320zM71.840 31.600h0.320v0.320h-0.320zM73.120 31.600h0.320v0.320h-0.320zM73.760 31.600h0.320v0.320h-0.320zM74.080 31.600h0.320v0.320h-0.320zM75.040 31.600h0.320v0.320h-0.320zM75.680 31.600h0.320v0.320h-0.320zM76.000 31.600h0.320v0.320h-0.320zM76.960 31.600h0.320v0.320h-0.320zM77.280 31.600h0.320v0.320h-0.320zM77.920 31.600h0.320v0.320h-0.320zM78.240 31.600h0.320v0.320h-0.320zM78.560 31.600h0.320v0.320h-0.320zM78.880 31.600h0.320v0.320h-0.320zM79.520 31.600h0.320v0.320h-0.320zM80.800 31.600h0.320v0.320h-0.320zM81.440 31.600h0.320v0.320h-0.320zM81.760 31.600h0.320v0.320h-0.320zM82.080 31.600h0.320v0.320h-0.320zM82.720 31.600h0.320v0.320h-0.320zM60.960 31.920h0.320v0.320h-0.320zM61.600 31.920h0.320v0.320h-0.320zM61.920 31.920h0.320v0.320h-0.320zM62.240 31.920h0.320v0.320h-0.320zM62.880 31.920h0.320v0.320h-0.320zM63.520 31.920h0.320v0.320h-0.320zM63.840 31.920h0.320v0.320h-0.320zM65.440 31.920h0.320v0.320h-0.320zM66.400 31.920h0.320v0.320h-0.320zM67.360 31.920h0.320v0.320h-0.320zM67.680 31.920h0.320v0.320h-0.320zM68.000 31.920h0.320v0.320h-0.320zM69.600 31.920h0.320v0.320h-0.320zM70.240 31.920h0.320v0.320h-0.320zM70.560 31.920h0.320v0.320h-0.320zM70.880 31.920h0.320v0.320h-0.320zM71.200 31.920h0.320v0.320h-0.320zM71.520 31.920h0.320v0.320h-0.320zM72.480 31.920h0.320v0.320h-0.320zM74.400 31.920h0.320v0.320h-0.320zM74.720 31.920h0.320v0.320h-0.320zM75.360 31.920h0.320v0.320h-0.320zM75.680 31.920h0.320v0.320h-0.320zM76.640 31.920h0.320v0.320h-0.320zM76.960 31.920h0.320v0.320h-0.320zM77.920 31.920h0.320v0.320h-0.320zM78.240 31.920h0.320v0.320h-0.320zM79.200 31.920h0.320v0.320h-0.320zM80.160 31.920h0.320v0.320h-0.320zM80.800 31.920h0.320v0.320h-0.320zM81.440 31.920h0.320v0.320h-0.320zM81.760 31.920h0.320v0.320h-0.320zM82.080 31.920h0.320v0.320h-0.320zM82.720 31.920h0.320v0.320h-0.320zM60.960 32.240h0.320v0.320h-0.320zM61.600 32.240h0.320v0.320h-0.320zM61.920 32.240h0.320v0.320h-0.320zM62.240 32.240h0.320v0.320h-0.320zM62.880 32.240h0.320v0.320h-0.320zM63.520 32.240h0.320v0.320h-0.320zM63.840 32.240h0.320v0.320h-0.320zM64.800 32.240h0.320v0.320h-0.320zM65.440 32.240h0.320v0.320h-0.320zM66.400 32.240h0.320v0.320h-0.320zM66.720 32.240h0.320v0.320h-0.320zM67.040 32.240h0.320v0.320h-0.320zM67.360 32.240h0.320v0.320h-0.320zM67.680 32.240h0.320v0.320h-0.320zM68.320 32.240h0.320v0.320h-0.320zM68.640 32.240h0.320v0.320h-0.320zM69.280 32.240h0.320v0.320h-0.320zM69.600 32.240h0.320v0.320h-0.320zM70.240 32.240h0.320v0.320h-0.320zM71.200 32.240h0.320v0.320h-0.320zM71.520 32.240h0.320v0.320h-0.320zM71.840 32.240h0.320v0.320h-0.320zM72.160 32.240h0.320v0.320h-0.320zM72.480 32.240h0.320v0.320h-0.320zM73.120 32.240h0.320v0.320h-0.320zM73.440 32.240h0.320v0.320h-0.320zM74.080 32.240h0.320v0.320h-0.320zM74.400 32.240h0.320v0.320h-0.320zM74.720 32.240h0.320v0.320h-0.320zM75.040 32.240h0.320v0.320h-0.320zM75.680 32.240h0.320v0.320h-0.320zM76.000 32.240h0.320v0.320h-0.320zM76.320 32.240h0.320v0.320h-0.320zM76.640 32.240h0.320v0.320h-0.320zM76.960 32.240h0.320v0.320h-0.320zM77.280 32.240h0.320v0.320h-0.320zM77.920 32.240h0.320v0.320h-0.320zM78.240 32.240h0.320v0.320h-0.320zM78.560 32.240h0.320v0.320h-0.320zM78.880 32.240h0.320v0.320h-0.320zM79.520 32.240h0.320v0.320h-0.320zM80.160 32.240h0.320v0.320h-0.320zM80.800 32.240h0.320v0.320h-0.320zM81.440 32.240h0.320v0.320h-0.320zM81.760 32.240h0.320v0.320h-0.320zM82.080 32.240h0.320v0.320h-0.320zM82.720 32.240h0.320v0.320h-0.320zM60.960 32.560h0.320v0.320h-0.320zM62.880 32.560h0.320v0.320h-0.320zM63.840 32.560h0.320v0.320h-0.320zM64.160 32.560h0.320v0.320h-0.320zM64.480 32.560h0.320v0.320h-0.320zM64.800 32.560h0.320v0.320h-0.320zM65.120 32.560h0.320v0.320h-0.320zM66.080 32.560h0.320v0.320h-0.320zM66.400 32.560h0.320v0.320h-0.320zM66.720 32.560h0.320v0.320h-0.320zM67.040 32.560h0.320v0.320h-0.320zM67.360 32.560h0.320v0.320h-0.320zM67.680 32.560h0.320v0.320h-0.320zM68.000 32.560h0.320v0.320h-0.320zM68.640 32.560h0.320v0.320h-0.320zM69.600 32.560h0.320v0.320h-0.320zM69.920 32.560h0.320v0.320h-0.320zM71.200 32.560h0.320v0.320h-0.320zM72.480 32.560h0.320v0.320h-0.320zM74.400 32.560h0.320v0.320h-0.320zM75.040 32.560h0.320v0.320h-0.320zM75.360 32.560h0.320v0.320h-0.320zM76.640 32.560h0.320v0.320h-0.320zM77.280 32.560h0.320v0.320h-0.320zM78.240 32.560h0.320v0.320h-0.320zM78.880 32.560h0.320v0.320h-0.320zM79.200 32.560h0.320v0.320h-0.320zM79.520 32.560h0.320v0.320h-0.320zM80.800 32.560h0.320v0.320h-0.320zM82.720 32.560h0.320v0.320h-0.320zM60.960 32.880h0.320v0.320h-0.320zM61.280 32.880h0.320v0.320h-0.320zM61.600 32.880h0.320v0.320h-0.320zM61.920 32.880h0.320v0.320h-0.320zM62.240 32.880h0.320v0.320h-0.320zM62.560 32.880h0.320v0.320h-0.320zM62.880 32.880h0.320v0.320h-0.320zM63.520 32.880h0.320v0.320h-0.320zM64.160 32.880h0.320v0.320h-0.320zM64.800 32.880h0.320v0.320h-0.320zM65.440 32.880h0.320v0.320h-0.320zM66.080 32.880h0.320v0.320h-0.320zM66.720 32.880h0.320v0.320h-0.320zM67.360 32.880h0.320v0.320h-0.320zM68.000 32.880h0.320v0.320h-0.320zM68.640 32.880h0.320v0.320h-0.320zM69.280 32.880h0.320v0.320h-0.320zM69.920 32.880h0.320v0.320h-0.320zM70.560 32.880h0.320v0.320h-0.320zM71.200 32.880h0.320v0.320h-0.320zM71.840 32.880h0.320v0.320h-0.320zM72.480 32.880h0.320v0.320h-0.320zM73.120 32.880h0.320v0.320h-0.320zM73.760 32.880h0.320v0.320h-0.320zM74.400 32.880h0.320v0.320h-0.320zM75.040 32.880h0.320v0.320h-0.320zM75.680 32.880h0.320v0.320h-0.320zM76.320 32.880h0.320v0.320h-0.320zM76.960 32.880h0.320v0.320h-0.320zM77.600 32.880h0.320v0.320h-0.320zM78.240 32.880h0.320v0.320h-0.320zM78.880 32.880h0.320v0.320h-0.320zM79.520 32.880h0.320v0.320h-0.320zM80.160 32.880h0.320v0.320h-0.320zM80.800 32.880h0.320v0.320h-0.320zM81.120 32.880h0.320v0.320h-0.320zM81.440 32.880h0.320v0.320h-0.320zM81.760 32.880h0.320v0.320h-0.320zM82.080 32.880h0.320v0.320h-0.320zM82.400 32.880h0.320v0.320h-0.320zM82.720 32.880h0.320v0.320h-0.320zM63.520 33.200h0.320v0.320h-0.320zM64.160 33.200h0.320v0.320h-0.320zM64.480 33.200h0.320v0.320h-0.320zM64.800 33.200h0.320v0.320h-0.320zM65.120 33.200h0.320v0.320h-0.320zM66.080 33.200h0.320v0.320h-0.320zM66.400 33.200h0.320v0.320h-0.320zM67.040 33.200h0.320v0.320h-0.320zM68.320 33.200h0.320v0.320h-0.320zM68.960 33.200h0.320v0.320h-0.320zM69.280 33.200h0.320v0.320h-0.320zM70.240 33.200h0.320v0.320h-0.320zM71.200 33.200h0.320v0.320h-0.320zM72.480 33.200h0.320v0.320h-0.320zM73.760 33.200h0.320v0.320h-0.320zM74.720 33.200h0.320v0.320h-0.320zM75.040 33.200h0.320v0.320h-0.320zM76.000 33.200h0.320v0.320h-0.320zM76.960 33.200h0.320v0.320h-0.320zM77.280 33.200h0.320v0.320h-0.320zM78.240 33.200h0.320v0.320h-0.320zM78.880 33.200h0.320v0.320h-0.320zM79.840 33.200h0.320v0.320h-0.320zM61.280 33.520h0.320v0.320h-0.320zM61.600 33.520h0.320v0.320h-0.320zM62.240 33.520h0.320v0.320h-0.320zM62.880 33.520h0.320v0.320h-0.320zM63.200 33.520h0.320v0.320h-0.320zM63.840 33.520h0.320v0.320h-0.320zM64.480 33.520h0.320v0.320h-0.320zM64.800 33.520h0.320v0.320h-0.320zM65.440 33.520h0.320v0.320h-0.320zM65.760 33.520h0.320v0.320h-0.320zM66.400 33.520h0.320v0.320h-0.320zM67.680 33.520h0.320v0.320h-0.320zM68.960 33.520h0.320v0.320h-0.320zM69.280 33.520h0.320v0.320h-0.320zM69.600 33.520h0.320v0.320h-0.320zM70.240 33.520h0.320v0.320h-0.320zM70.560 33.520h0.320v0.320h-0.320zM70.880 33.520h0.320v0.320h-0.320zM71.200 33.520h0.320v0.320h-0.320zM71.520 33.520h0.320v0.320h-0.320zM71.840 33.520h0.320v0.320h-0.320zM72.160 33.520h0.320v0.320h-0.320zM72.480 33.520h0.320v0.320h-0.320zM72.800 33.520h0.320v0.320h-0.320zM73.120 33.520h0.320v0.320h-0.320zM73.760 33.520h0.320v0.320h-0.320zM74.080 33.520h0.320v0.320h-0.320zM74.720 33.520h0.320v0.320h-0.320zM75.040 33.520h0.320v0.320h-0.320zM75.680 33.520h0.320v0.320h-0.320zM76.320 33.520h0.320v0.320h-0.320zM77.600 33.520h0.320v0.320h-0.320zM77.920 33.520h0.320v0.320h-0.320zM78.240 33.520h0.320v0.320h-0.320zM78.560 33.520h0.320v0.320h-0.320zM78.880 33.520h0.320v0.320h-0.320zM79.840 33.520h0.320v0.320h-0.320zM80.160 33.520h0.320v0.320h-0.320zM80.800 33.520h0.320v0.320h-0.320zM81.440 33.520h0.320v0.320h-0.320zM81.760 33.520h0.320v0.320h-0.320zM82.080 33.520h0.320v0.320h-0.320zM82.400 33.520h0.320v0.320h-0.320zM82.720 33.520h0.320v0.320h-0.320zM60.960 33.840h0.320v0.320h-0.320zM61.920 33.840h0.320v0.320h-0.320zM62.240 33.840h0.320v0.320h-0.320zM62.560 33.840h0.320v0.320h-0.320zM64.480 33.840h0.320v0.320h-0.320zM65.120 33.840h0.320v0.320h-0.320zM65.440 33.840h0.320v0.320h-0.320zM65.760 33.840h0.320v0.320h-0.320zM66.720 33.840h0.320v0.320h-0.320zM67.360 33.840h0.320v0.320h-0.320zM67.680 33.840h0.320v0.320h-0.320zM68.000 33.840h0.320v0.320h-0.320zM69.920 33.840h0.320v0.320h-0.320zM70.560 33.840h0.320v0.320h-0.320zM71.200 33.840h0.320v0.320h-0.320zM71.840 33.840h0.320v0.320h-0.320zM72.160 33.840h0.320v0.320h-0.320zM72.800 33.840h0.320v0.320h-0.320zM73.440 33.840h0.320v0.320h-0.320zM74.720 33.840h0.320v0.320h-0.320zM75.040 33.840h0.320v0.320h-0.320zM76.640 33.840h0.320v0.320h-0.320zM77.600 33.840h0.320v0.320h-0.320zM78.560 33.840h0.320v0.320h-0.320zM81.120 33.840h0.320v0.320h-0.320zM81.440 33.840h0.320v0.320h-0.320zM82.720 33.840h0.320v0.320h-0.320zM61.280 34.160h0.320v0.320h-0.320zM61.600 34.160h0.320v0.320h-0.320zM62.240 34.160h0.320v0.320h-0.320zM62.560 34.160h0.320v0.320h-0.320zM62.880 34.160h0.320v0.320h-0.320zM63.200 34.160h0.320v0.320h-0.320zM64.160 34.160h0.320v0.320h-0.320zM64.480 34.160h0.320v0.320h-0.320zM64.800 34.160h0.320v0.320h-0.320zM65.120 34.160h0.320v0.320h-0.320zM66.080 34.160h0.320v0.320h-0.320zM66.400 34.160h0.320v0.320h-0.320zM67.680 34.160h0.320v0.320h-0.320zM68.000 34.160h0.320v0.320h-0.320zM68.320 34.160h0.320v0.320h-0.320zM69.280 34.160h0.320v0.320h-0.320zM69.600 34.160h0.320v0.320h-0.320zM70.240 34.160h0.320v0.320h-0.320zM70.560 34.160h0.320v0.320h-0.320zM70.880 34.160h0.320v0.320h-0.320zM71.200 34.160h0.320v0.320h-0.320zM71.520 34.160h0.320v0.320h-0.320zM71.840 34.160h0.320v0.320h-0.320zM72.800 34.160h0.320v0.320h-0.320zM73.440 34.160h0.320v0.320h-0.320zM73.760 34.160h0.320v0.320h-0.320zM75.040 34.160h0.320v0.320h-0.320zM76.000 34.160h0.320v0.320h-0.320zM78.240 34.160h0.320v0.320h-0.320zM78.560 34.160h0.320v0.320h-0.320zM78.880 34.160h0.320v0.320h-0.320zM79.840 34.160h0.320v0.320h-0.320zM80.160 34.160h0.320v0.320h-0.320zM81.440 34.160h0.320v0.320h-0.320zM81.760 34.160h0.320v0.320h-0.320zM82.080 34.160h0.320v0.320h-0.320zM82.720 34.160h0.320v0.320h-0.320zM60.960 34.480h0.320v0.320h-0.320zM61.280 34.480h0.320v0.320h-0.320zM61.600 34.480h0.320v0.320h-0.320zM63.520 34.480h0.320v0.320h-0.320zM63.840 34.480h0.320v0.320h-0.320zM64.800 34.480h0.320v0.320h-0.320zM65.440 34.480h0.320v0.320h-0.320zM65.760 34.480h0.320v0.320h-0.320zM66.080 34.480h0.320v0.320h-0.320zM67.360 34.480h0.320v0.320h-0.320zM68.000 34.480h0.320v0.320h-0.320zM68.320 34.480h0.320v0.320h-0.320zM68.640 34.480h0.320v0.320h-0.320zM68.960 34.480h0.320v0.320h-0.320zM69.280 34.480h0.320v0.320h-0.320zM69.600 34.480h0.320v0.320h-0.320zM70.240 34.480h0.320v0.320h-0.320zM70.880 34.480h0.320v0.320h-0.320zM72.160 34.480h0.320v0.320h-0.320zM72.480 34.480h0.320v0.320h-0.320zM73.120 34.480h0.320v0.320h-0.320zM74.400 34.480h0.320v0.320h-0.320zM74.720 34.480h0.320v0.320h-0.320zM75.360 34.480h0.320v0.320h-0.320zM75.680 34.480h0.320v0.320h-0.320zM77.280 34.480h0.320v0.320h-0.320zM77.600 34.480h0.320v0.320h-0.320zM78.560 34.480h0.320v0.320h-0.320zM78.880 34.480h0.320v0.320h-0.320zM79.520 34.480h0.320v0.320h-0.320zM79.840 34.480h0.320v0.320h-0.320zM80.160 34.480h0.320v0.320h-0.320zM80.480 34.480h0.320v0.320h-0.320zM82.400 34.480h0.320v0.320h-0.320zM82.720 34.480h0.320v0.320h-0.320zM61.600 34.800h0.320v0.320h-0.320zM61.920 34.800h0.320v0.320h-0.320zM62.240 34.800h0.320v0.320h-0.320zM62.560 34.800h0.320v0.320h-0.320zM62.880 34.800h0.320v0.320h-0.320zM64.160 34.800h0.320v0.320h-0.320zM64.800 34.800h0.320v0.320h-0.320zM65.440 34.800h0.320v0.320h-0.320zM65.760 34.800h0.320v0.320h-0.320zM66.400 34.800h0.320v0.320h-0.320zM67.040 34.800h0.320v0.320h-0.320zM68.960 34.800h0.320v0.320h-0.320zM70.240 34.800h0.320v0.320h-0.320zM70.560 34.800h0.320v0.320h-0.320zM71.200 34.800h0.320v0.320h-0.320zM71.520 34.800h0.320v0.320h-0.320zM72.480 34.800h0.320v0.320h-0.320zM72.800 34.800h0.320v0.320h-0.320zM73.440 34.800h0.320v0.320h-0.320zM73.760 34.800h0.320v0.320h-0.320zM74.080 34.800h0.320v0.320h-0.320zM74.720 34.800h0.320v0.320h-0.320zM75.040 34.800h0.320v0.320h-0.320zM75.360 34.800h0.320v0.320h-0.320zM76.000 34.800h0.320v0.320h-0.320zM76.320 34.800h0.320v0.320h-0.320zM76.640 34.800h0.320v0.320h-0.320zM76.960 34.800h0.320v0.320h-0.320zM77.280 34.800h0.320v0.320h-0.320zM77.600 34.800h0.320v0.320h-0.320zM77.920 34.800h0.320v0.320h-0.320zM78.240 34.800h0.320v0.320h-0.320zM78.560 34.800h0.320v0.320h-0.320zM78.880 34.800h0.320v0.320h-0.320zM79.200 34.800h0.320v0.320h-0.320zM79.520 34.800h0.320v0.320h-0.320zM79.840 34.800h0.320v0.320h-0.320zM80.480 34.800h0.320v0.320h-0.320zM80.800 34.800h0.320v0.320h-0.320zM81.120 34.800h0.320v0.320h-0.320zM81.440 34.800h0.320v0.320h-0.320zM81.760 34.800h0.320v0.320h-0.320zM82.720 34.800h0.320v0.320h-0.320zM60.960 35.120h0.320v0.320h-0.320zM61.280 35.120h0.320v0.320h-0.320zM61.600 35.120h0.320v0.320h-0.320zM63.200 35.120h0.320v0.320h-0.320zM63.840 35.120h0.320v0.320h-0.320zM64.480 35.120h0.320v0.320h-0.320zM64.800 35.120h0.320v0.320h-0.320zM65.440 35.120h0.320v0.320h-0.320zM65.760 35.120h0.320v0.320h-0.320zM66.080 35.120h0.320v0.320h-0.320zM66.400 35.120h0.320v0.320h-0.320zM68.320 35.120h0.320v0.320h-0.320zM70.240 35.120h0.320v0.320h-0.320zM70.560 35.120h0.320v0.320h-0.320zM70.880 35.120h0.320v0.320h-0.320zM71.200 35.120h0.320v0.320h-0.320zM71.840 35.120h0.320v0.320h-0.320zM72.160 35.120h0.320v0.320h-0.320zM72.480 35.120h0.320v0.320h-0.320zM73.440 35.120h0.320v0.320h-0.320zM73.760 35.120h0.320v0.320h-0.320zM74.720 35.120h0.320v0.320h-0.320zM75.360 35.120h0.320v0.320h-0.320zM77.280 35.120h0.320v0.320h-0.320zM78.560 35.120h0.320v0.320h-0.320zM78.880 35.120h0.320v0.320h-0.320zM79.200 35.120h0.320v0.320h-0.320zM79.840 35.120h0.320v0.320h-0.320zM80.480 35.120h0.320v0.320h-0.320zM81.440 35.120h0.320v0.320h-0.320zM81.760 35.120h0.320v0.320h-0.320zM82.400 35.120h0.320v0.320h-0.320zM60.960 35.440h0.320v0.320h-0.320zM61.920 35.440h0.320v0.320h-0.320zM62.240 35.440h0.320v0.320h-0.320zM62.560 35.440h0.320v0.320h-0.320zM62.880 35.440h0.320v0.320h-0.320zM63.200 35.440h0.320v0.320h-0.320zM63.520 35.440h0.320v0.320h-0.320zM64.160 35.440h0.320v0.320h-0.320zM64.480 35.440h0.320v0.320h-0.320zM65.120 35.440h0.320v0.320h-0.320zM65.440 35.440h0.320v0.320h-0.320zM65.760 35.440h0.320v0.320h-0.320zM66.720 35.440h0.320v0.320h-0.320zM67.040 35.440h0.320v0.320h-0.320zM67.360 35.440h0.320v0.320h-0.320zM68.000 35.440h0.320v0.320h-0.320zM68.640 35.440h0.320v0.320h-0.320zM71.200 35.440h0.320v0.320h-0.320zM71.840 35.440h0.320v0.320h-0.320zM72.480 35.440h0.320v0.320h-0.320zM72.800 35.440h0.320v0.320h-0.320zM73.120 35.440h0.320v0.320h-0.320zM74.080 35.440h0.320v0.320h-0.320zM74.400 35.440h0.320v0.320h-0.320zM75.040 35.440h0.320v0.320h-0.320zM75.360 35.440h0.320v0.320h-0.320zM76.320 35.440h0.320v0.320h-0.320zM76.640 35.440h0.320v0.320h-0.320zM77.600 35.440h0.320v0.320h-0.320zM78.240 35.440h0.320v0.320h-0.320zM78.880 35.440h0.320v0.320h-0.320zM79.520 35.440h0.320v0.320h-0.320zM80.160 35.440h0.320v0.320h-0.320zM80.480 35.440h0.320v0.320h-0.320zM82.400 35.440h0.320v0.320h-0.320zM82.720 35.440h0.320v0.320h-0.320zM60.960 35.760h0.320v0.320h-0.320zM61.600 35.760h0.320v0.320h-0.320zM61.920 35.760h0.320v0.320h-0.320zM62.560 35.760h0.320v0.320h-0.320zM65.760 35.760h0.320v0.320h-0.320zM66.080 35.760h0.320v0.320h-0.320zM68.320 35.760h0.320v0.320h-0.320zM70.240 35.760h0.320v0.320h-0.320zM70.560 35.760h0.320v0.320h-0.320zM71.520 35.760h0.320v0.320h-0.320zM72.160 35.760h0.320v0.320h-0.320zM73.760 35.760h0.320v0.320h-0.320zM75.040 35.760h0.320v0.320h-0.320zM75.360 35.760h0.320v0.320h-0.320zM76.320 35.760h0.320v0.320h-0.320zM76.960 35.760h0.320v0.320h-0.320zM78.880 35.760h0.320v0.320h-0.320zM79.200 35.760h0.320v0.320h-0.320zM79.520 35.760h0.320v0.320h-0.320zM79.840 35.760h0.320v0.320h-0.320zM80.480 35.760h0.320v0.320h-0.320zM80.800 35.760h0.320v0.320h-0.320zM81.120 35.760h0.320v0.320h-0.320zM81.440 35.760h0.320v0.320h-0.320zM81.760 35.760h0.320v0.320h-0.320zM82.720 35.760h0.320v0.320h-0.320zM60.960 36.080h0.320v0.320h-0.320zM61.280 36.080h0.320v0.320h-0.320zM62.560 36.080h0.320v0.320h-0.320zM62.880 36.080h0.320v0.320h-0.320zM63.520 36.080h0.320v0.320h-0.320zM63.840 36.080h0.320v0.320h-0.320zM64.160 36.080h0.320v0.320h-0.320zM65.120 36.080h0.320v0.320h-0.320zM65.440 36.080h0.320v0.320h-0.320zM65.760 36.080h0.320v0.320h-0.320zM66.080 36.080h0.320v0.320h-0.320zM66.400 36.080h0.320v0.320h-0.320zM68.000 36.080h0.320v0.320h-0.320zM69.600 36.080h0.320v0.320h-0.320zM71.200 36.080h0.320v0.320h-0.320zM71.520 36.080h0.320v0.320h-0.320zM71.840 36.080h0.320v0.320h-0.320zM72.480 36.080h0.320v0.320h-0.320zM73.120 36.080h0.320v0.320h-0.320zM73.760 36.080h0.320v0.320h-0.320zM74.400 36.080h0.320v0.320h-0.320zM75.040 36.080h0.320v0.320h-0.320zM75.360 36.080h0.320v0.320h-0.320zM76.000 36.080h0.320v0.320h-0.320zM76.320 36.080h0.320v0.320h-0.320zM76.960 36.080h0.320v0.320h-0.320zM77.280 36.080h0.320v0.320h-0.320zM77.600 36.080h0.320v0.320h-0.320zM77.920 36.080h0.320v0.320h-0.320zM78.240 36.080h0.320v0.320h-0.320zM78.880 36.080h0.320v0.320h-0.320zM79.200 36.080h0.320v0.320h-0.320zM79.520 36.080h0.320v0.320h-0.320zM79.840 36.080h0.320v0.320h-0.320zM80.480 36.080h0.320v0.320h-0.320zM81.440 36.080h0.320v0.320h-0.320zM81.760 36.080h0.320v0.320h-0.320zM82.400 36.080h0.320v0.320h-0.320zM61.280 36.400h0.320v0.320h-0.320zM61.600 36.400h0.320v0.320h-0.320zM62.240 36.400h0.320v0.320h-0.320zM64.160 36.400h0.320v0.320h-0.320zM64.480 36.400h0.320v0.320h-0.320zM65.440 36.400h0.320v0.320h-0.320zM65.760 36.400h0.320v0.320h-0.320zM66.400 36.400h0.320v0.320h-0.320zM66.720 36.400h0.320v0.320h-0.320zM67.360 36.400h0.320v0.320h-0.320zM67.680 36.400h0.320v0.320h-0.320zM68.640 36.400h0.320v0.320h-0.320zM68.960 36.400h0.320v0.320h-0.320zM70.240 36.400h0.320v0.320h-0.320zM71.200 36.400h0.320v0.320h-0.320zM72.480 36.400h0.320v0.320h-0.320zM73.440 36.400h0.320v0.320h-0.320zM73.760 36.400h0.320v0.320h-0.320zM74.080 36.400h0.320v0.320h-0.320zM75.040 36.400h0.320v0.320h-0.320zM75.360 36.400h0.320v0.320h-0.320zM75.680 36.400h0.320v0.320h-0.320zM78.560 36.400h0.320v0.320h-0.320zM78.880 36.400h0.320v0.320h-0.320zM79.840 36.400h0.320v0.320h-0.320zM81.120 36.400h0.320v0.320h-0.320zM82.400 36.400h0.320v0.320h-0.320zM82.720 36.400h0.320v0.320h-0.320zM61.600 36.720h0.320v0.320h-0.320zM62.240 36.720h0.320v0.320h-0.320zM62.880 36.720h0.320v0.320h-0.320zM63.520 36.720h0.320v0.320h-0.320zM64.800 36.720h0.320v0.320h-0.320zM65.760 36.720h0.320v0.320h-0.320zM67.040 36.720h0.320v0.320h-0.320zM67.360 36.720h0.320v0.320h-0.320zM68.960 36.720h0.320v0.320h-0.320zM69.280 36.720h0.320v0.320h-0.320zM69.600 36.720h0.320v0.320h-0.320zM70.560 36.720h0.320v0.320h-0.320zM71.520 36.720h0.320v0.320h-0.320zM72.160 36.720h0.320v0.320h-0.320zM73.440 36.720h0.320v0.320h-0.320zM74.400 36.720h0.320v0.320h-0.320zM75.040 36.720h0.320v0.320h-0.320zM75.360 36.720h0.320v0.320h-0.320zM76.320 36.720h0.320v0.320h-0.320zM76.960 36.720h0.320v0.320h-0.320zM77.600 36.720h0.320v0.320h-0.320zM78.240 36.720h0.320v0.320h-0.320zM78.880 36.720h0.320v0.320h-0.320zM79.520 36.720h0.320v0.320h-0.320zM80.160 36.720h0.320v0.320h-0.320zM80.480 36.720h0.320v0.320h-0.320zM80.800 36.720h0.320v0.320h-0.320zM82.080 36.720h0.320v0.320h-0.320zM82.400 36.720h0.320v0.320h-0.320zM60.960 37.040h0.320v0.320h-0.320zM61.280 37.040h0.320v0.320h-0.320zM61.600 37.040h0.320v0.320h-0.320zM61.920 37.040h0.320v0.320h-0.320zM62.560 37.040h0.320v0.320h-0.320zM63.840 37.040h0.320v0.320h-0.320zM64.160 37.040h0.320v0.320h-0.320zM65.120 37.040h0.320v0.320h-0.320zM66.400 37.040h0.320v0.320h-0.320zM67.040 37.040h0.320v0.320h-0.320zM67.680 37.040h0.320v0.320h-0.320zM68.320 37.040h0.320v0.320h-0.320zM68.640 37.040h0.320v0.320h-0.320zM69.280 37.040h0.320v0.320h-0.320zM69.600 37.040h0.320v0.320h-0.320zM69.920 37.040h0.320v0.320h-0.320zM70.560 37.040h0.320v0.320h-0.320zM70.880 37.040h0.320v0.320h-0.320zM71.200 37.040h0.320v0.320h-0.320zM71.520 37.040h0.320v0.320h-0.320zM71.840 37.040h0.320v0.320h-0.320zM72.480 37.040h0.320v0.320h-0.320zM73.120 37.040h0.320v0.320h-0.320zM73.440 37.040h0.320v0.320h-0.320zM73.760 37.040h0.320v0.320h-0.320zM74.080 37.040h0.320v0.320h-0.320zM74.720 37.040h0.320v0.320h-0.320zM75.040 37.040h0.320v0.320h-0.320zM76.640 37.040h0.320v0.320h-0.320zM76.960 37.040h0.320v0.320h-0.320zM78.240 37.040h0.320v0.320h-0.320zM78.560 37.040h0.320v0.320h-0.320zM79.200 37.040h0.320v0.320h-0.320zM79.840 37.040h0.320v0.320h-0.320zM80.480 37.040h0.320v0.320h-0.320zM82.400 37.040h0.320v0.320h-0.320zM60.960 37.360h0.320v0.320h-0.320zM61.280 37.360h0.320v0.320h-0.320zM61.600 37.360h0.320v0.320h-0.320zM61.920 37.360h0.320v0.320h-0.320zM62.880 37.360h0.320v0.320h-0.320zM63.520 37.360h0.320v0.320h-0.320zM65.440 37.360h0.320v0.320h-0.320zM66.720 37.360h0.320v0.320h-0.320zM69.280 37.360h0.320v0.320h-0.320zM69.600 37.360h0.320v0.320h-0.320zM69.920 37.360h0.320v0.320h-0.320zM70.240 37.360h0.320v0.320h-0.320zM70.560 37.360h0.320v0.320h-0.320zM70.880 37.360h0.320v0.320h-0.320zM73.440 37.360h0.320v0.320h-0.320zM73.760 37.360h0.320v0.320h-0.320zM74.080 37.360h0.320v0.320h-0.320zM74.720 37.360h0.320v0.320h-0.320zM75.040 37.360h0.320v0.320h-0.320zM75.360 37.360h0.320v0.320h-0.320zM75.680 37.360h0.320v0.320h-0.320zM76.000 37.360h0.320v0.320h-0.320zM76.320 37.360h0.320v0.320h-0.320zM76.640 37.360h0.320v0.320h-0.320zM76.960 37.360h0.320v0.320h-0.320zM77.280 37.360h0.320v0.320h-0.320zM77.600 37.360h0.320v0.320h-0.320zM78.560 37.360h0.320v0.320h-0.320zM78.880 37.360h0.320v0.320h-0.320zM79.520 37.360h0.320v0.320h-0.320zM79.840 37.360h0.320v0.320h-0.320zM80.160 37.360h0.320v0.320h-0.320zM80.480 37.360h0.320v0.320h-0.320zM81.120 37.360h0.320v0.320h-0.320zM81.440 37.360h0.320v0.320h-0.320zM81.760 37.360h0.320v0.320h-0.320zM82.080 37.360h0.320v0.320h-0.320zM82.720 37.360h0.320v0.320h-0.320zM60.960 37.680h0.320v0.320h-0.320zM61.280 37.680h0.320v0.320h-0.320zM63.200 37.680h0.320v0.320h-0.320zM63.840 37.680h0.320v0.320h-0.320zM64.160 37.680h0.320v0.320h-0.320zM64.800 37.680h0.320v0.320h-0.320zM65.760 37.680h0.320v0.320h-0.320zM66.080 37.680h0.320v0.320h-0.320zM67.680 37.680h0.320v0.320h-0.320zM68.640 37.680h0.320v0.320h-0.320zM69.600 37.680h0.320v0.320h-0.320zM69.920 37.680h0.320v0.320h-0.320zM70.240 37.680h0.320v0.320h-0.320zM71.200 37.680h0.320v0.320h-0.320zM71.520 37.680h0.320v0.320h-0.320zM72.160 37.680h0.320v0.320h-0.320zM72.480 37.680h0.320v0.320h-0.320zM73.120 37.680h0.320v0.320h-0.320zM73.760 37.680h0.320v0.320h-0.320zM75.040 37.680h0.320v0.320h-0.320zM76.320 37.680h0.320v0.320h-0.320zM77.280 37.680h0.320v0.320h-0.320zM77.600 37.680h0.320v0.320h-0.320zM78.560 37.680h0.320v0.320h-0.320zM78.880 37.680h0.320v0.320h-0.320zM79.200 37.680h0.320v0.320h-0.320zM80.480 37.680h0.320v0.320h-0.320zM81.120 37.680h0.320v0.320h-0.320zM82.720 37.680h0.320v0.320h-0.320zM60.960 38.000h0.320v0.320h-0.320zM61.920 38.000h0.320v0.320h-0.320zM62.560 38.000h0.320v0.320h-0.320zM62.880 38.000h0.320v0.320h-0.320zM63.200 38.000h0.320v0.320h-0.320zM64.800 38.000h0.320v0.320h-0.320zM65.120 38.000h0.320v0.320h-0.320zM65.440 38.000h0.320v0.320h-0.320zM66.080 38.000h0.320v0.320h-0.320zM66.720 38.000h0.320v0.320h-0.320zM68.000 38.000h0.320v0.320h-0.320zM68.320 38.000h0.320v0.320h-0.320zM69.280 38.000h0.320v0.320h-0.320zM69.600 38.000h0.320v0.320h-0.320zM70.240 38.000h0.320v0.320h-0.320zM70.560 38.000h0.320v0.320h-0.320zM71.200 38.000h0.320v0.320h-0.320zM72.480 38.000h0.320v0.320h-0.320zM73.120 38.000h0.320v0.320h-0.320zM73.440 38.000h0.320v0.320h-0.320zM73.760 38.000h0.320v0.320h-0.320zM75.040 38.000h0.320v0.320h-0.320zM76.960 38.000h0.320v0.320h-0.320zM78.240 38.000h0.320v0.320h-0.320zM79.520 38.000h0.320v0.320h-0.320zM79.840 38.000h0.320v0.320h-0.320zM80.160 38.000h0.320v0.320h-0.320zM80.480 38.000h0.320v0.320h-0.320zM81.440 38.000h0.320v0.320h-0.320zM82.080 38.000h0.320v0.320h-0.320zM82.400 38.000h0.320v0.320h-0.320zM82.720 38.000h0.320v0.320h-0.320zM61.280 38.320h0.320v0.320h-0.320zM61.600 38.320h0.320v0.320h-0.320zM63.520 38.320h0.320v0.320h-0.320zM64.160 38.320h0.320v0.320h-0.320zM65.440 38.320h0.320v0.320h-0.320zM66.400 38.320h0.320v0.320h-0.320zM66.720 38.320h0.320v0.320h-0.320zM67.360 38.320h0.320v0.320h-0.320zM67.680 38.320h0.320v0.320h-0.320zM68.640 38.320h0.320v0.320h-0.320zM68.960 38.320h0.320v0.320h-0.320zM69.280 38.320h0.320v0.320h-0.320zM70.240 38.320h0.320v0.320h-0.320zM71.840 38.320h0.320v0.320h-0.320zM73.440 38.320h0.320v0.320h-0.320zM75.040 38.320h0.320v0.320h-0.320zM75.360 38.320h0.320v0.320h-0.320zM75.680 38.320h0.320v0.320h-0.320zM76.000 38.320h0.320v0.320h-0.320zM76.320 38.320h0.320v0.320h-0.320zM76.960 38.320h0.320v0.320h-0.320zM77.280 38.320h0.320v0.320h-0.320zM77.600 38.320h0.320v0.320h-0.320zM79.520 38.320h0.320v0.320h-0.320zM79.840 38.320h0.320v0.320h-0.320zM80.160 38.320h0.320v0.320h-0.320zM80.800 38.320h0.320v0.320h-0.320zM81.120 38.320h0.320v0.320h-0.320zM81.440 38.320h0.320v0.320h-0.320zM61.280 38.640h0.320v0.320h-0.320zM61.600 38.640h0.320v0.320h-0.320zM62.240 38.640h0.320v0.320h-0.320zM62.560 38.640h0.320v0.320h-0.320zM62.880 38.640h0.320v0.320h-0.320zM63.520 38.640h0.320v0.320h-0.320zM63.840 38.640h0.320v0.320h-0.320zM64.160 38.640h0.320v0.320h-0.320zM65.120 38.640h0.320v0.320h-0.320zM66.720 38.640h0.320v0.320h-0.320zM68.000 38.640h0.320v0.320h-0.320zM68.320 38.640h0.320v0.320h-0.320zM68.960 38.640h0.320v0.320h-0.320zM70.240 38.640h0.320v0.320h-0.320zM70.880 38.640h0.320v0.320h-0.320zM71.520 38.640h0.320v0.320h-0.320zM71.840 38.640h0.320v0.320h-0.320zM72.160 38.640h0.320v0.320h-0.320zM72.480 38.640h0.320v0.320h-0.320zM73.440 38.640h0.320v0.320h-0.320zM73.760 38.640h0.320v0.320h-0.320zM74.400 38.640h0.320v0.320h-0.320zM74.720 38.640h0.320v0.320h-0.320zM75.040 38.640h0.320v0.320h-0.320zM75.360 38.640h0.320v0.320h-0.320zM76.320 38.640h0.320v0.320h-0.320zM76.640 38.640h0.320v0.320h-0.320zM76.960 38.640h0.320v0.320h-0.320zM77.600 38.640h0.320v0.320h-0.320zM78.560 38.640h0.320v0.320h-0.320zM78.880 38.640h0.320v0.320h-0.320zM80.480 38.640h0.320v0.320h-0.320zM81.120 38.640h0.320v0.320h-0.320zM81.440 38.640h0.320v0.320h-0.320zM82.400 38.640h0.320v0.320h-0.320zM82.720 38.640h0.320v0.320h-0.320zM61.920 38.960h0.320v0.320h-0.320zM62.240 38.960h0.320v0.320h-0.320zM64.160 38.960h0.320v0.320h-0.320zM64.480 38.960h0.320v0.320h-0.320zM64.800 38.960h0.320v0.320h-0.320zM65.440 38.960h0.320v0.320h-0.320zM65.760 38.960h0.320v0.320h-0.320zM67.040 38.960h0.320v0.320h-0.320zM68.000 38.960h0.320v0.320h-0.320zM68.960 38.960h0.320v0.320h-0.320zM69.920 38.960h0.320v0.320h-0.320zM70.560 38.960h0.320v0.320h-0.320zM71.200 38.960h0.320v0.320h-0.320zM71.520 38.960h0.320v0.320h-0.320zM72.160 38.960h0.320v0.320h-0.320zM72.480 38.960h0.320v0.320h-0.320zM73.120 38.960h0.320v0.320h-0.320zM73.440 38.960h0.320v0.320h-0.320zM73.760 38.960h0.320v0.320h-0.320zM74.720 38.960h0.320v0.320h-0.320zM75.360 38.960h0.320v0.320h-0.320zM76.000 38.960h0.320v0.320h-0.320zM76.320 38.960h0.320v0.320h-0.320zM77.600 38.960h0.320v0.320h-0.320zM78.560 38.960h0.320v0.320h-0.320zM78.880 38.960h0.320v0.320h-0.320zM81.440 38.960h0.320v0.320h-0.320zM81.760 38.960h0.320v0.320h-0.320zM82.080 38.960h0.320v0.320h-0.320zM82.400 38.960h0.320v0.320h-0.320zM60.960 39.280h0.320v0.320h-0.320zM61.280 39.280h0.320v0.320h-0.320zM61.600 39.280h0.320v0.320h-0.320zM62.560 39.280h0.320v0.320h-0.320zM62.880 39.280h0.320v0.320h-0.320zM63.520 39.280h0.320v0.320h-0.320zM64.160 39.280h0.320v0.320h-0.320zM64.480 39.280h0.320v0.320h-0.320zM64.800 39.280h0.320v0.320h-0.320zM66.400 39.280h0.320v0.320h-0.320zM66.720 39.280h0.320v0.320h-0.320zM67.040 39.280h0.320v0.320h-0.320zM67.360 39.280h0.320v0.320h-0.320zM68.000 39.280h0.320v0.320h-0.320zM68.640 39.280h0.320v0.320h-0.320zM68.960 39.280h0.320v0.320h-0.320zM69.600 39.280h0.320v0.320h-0.320zM70.240 39.280h0.320v0.320h-0.320zM70.560 39.280h0.320v0.320h-0.320zM70.880 39.280h0.320v0.320h-0.320zM71.200 39.280h0.320v0.320h-0.320zM71.840 39.280h0.320v0.320h-0.320zM72.160 39.280h0.320v0.320h-0.320zM72.480 39.280h0.320v0.320h-0.320zM72.800 39.280h0.320v0.320h-0.320zM73.120 39.280h0.320v0.320h-0.320zM74.720 39.280h0.320v0.320h-0.320zM75.360 39.280h0.320v0.320h-0.320zM76.640 39.280h0.320v0.320h-0.320zM77.280 39.280h0.320v0.320h-0.320zM77.600 39.280h0.320v0.320h-0.320zM78.240 39.280h0.320v0.320h-0.320zM79.840 39.280h0.320v0.320h-0.320zM80.160 39.280h0.320v0.320h-0.320zM81.120 39.280h0.320v0.320h-0.320zM81.440 39.280h0.320v0.320h-0.320zM81.760 39.280h0.320v0.320h-0.320zM82.400 39.280h0.320v0.320h-0.320zM82.720 39.280h0.320v0.320h-0.320zM61.280 39.600h0.320v0.320h-0.320zM62.240 39.600h0.320v0.320h-0.320zM62.560 39.600h0.320v0.320h-0.320zM63.200 39.600h0.320v0.320h-0.320zM63.840 39.600h0.320v0.320h-0.320zM64.160 39.600h0.320v0.320h-0.320zM64.480 39.600h0.320v0.320h-0.320zM64.800 39.600h0.320v0.320h-0.320zM65.120 39.600h0.320v0.320h-0.320zM65.440 39.600h0.320v0.320h-0.320zM65.760 39.600h0.320v0.320h-0.320zM66.080 39.600h0.320v0.320h-0.320zM67.360 39.600h0.320v0.320h-0.320zM68.000 39.600h0.320v0.320h-0.320zM68.960 39.600h0.320v0.320h-0.320zM69.600 39.600h0.320v0.320h-0.320zM71.520 39.600h0.320v0.320h-0.320zM71.840 39.600h0.320v0.320h-0.320zM72.480 39.600h0.320v0.320h-0.320zM72.800 39.600h0.320v0.320h-0.320zM73.760 39.600h0.320v0.320h-0.320zM74.080 39.600h0.320v0.320h-0.320zM74.400 39.600h0.320v0.320h-0.320zM74.720 39.600h0.320v0.320h-0.320zM75.040 39.600h0.320v0.320h-0.320zM76.000 39.600h0.320v0.320h-0.320zM76.320 39.600h0.320v0.320h-0.320zM77.280 39.600h0.320v0.320h-0.320zM78.240 39.600h0.320v0.320h-0.320zM78.560 39.600h0.320v0.320h-0.320zM80.160 39.600h0.320v0.320h-0.320zM80.480 39.600h0.320v0.320h-0.320zM81.440 39.600h0.320v0.320h-0.320zM81.760 39.600h0.320v0.320h-0.320zM82.400 39.600h0.320v0.320h-0.320zM82.720 39.600h0.320v0.320h-0.320zM61.280 39.920h0.320v0.320h-0.320zM61.600 39.920h0.320v0.320h-0.320zM62.880 39.920h0.320v0.320h-0.320zM63.200 39.920h0.320v0.320h-0.320zM63.520 39.920h0.320v0.320h-0.320zM63.840 39.920h0.320v0.320h-0.320zM64.480 39.920h0.320v0.320h-0.320zM64.800 39.920h0.320v0.320h-0.320zM65.440 39.920h0.320v0.320h-0.320zM66.720 39.920h0.320v0.320h-0.320zM67.040 39.920h0.320v0.320h-0.320zM68.000 39.920h0.320v0.320h-0.320zM69.280 39.920h0.320v0.320h-0.320zM69.600 39.920h0.320v0.320h-0.320zM70.240 39.920h0.320v0.320h-0.320zM70.560 39.920h0.320v0.320h-0.320zM71.520 39.920h0.320v0.320h-0.320zM71.840 39.920h0.320v0.320h-0.320zM72.800 39.920h0.320v0.320h-0.320zM73.120 39.920h0.320v0.320h-0.320zM73.760 39.920h0.320v0.320h-0.320zM74.400 39.920h0.320v0.320h-0.320zM74.720 39.920h0.320v0.320h-0.320zM75.040 39.920h0.320v0.320h-0.320zM75.680 39.920h0.320v0.320h-0.320zM76.000 39.920h0.320v0.320h-0.320zM76.320 39.920h0.320v0.320h-0.320zM77.280 39.920h0.320v0.320h-0.320zM77.600 39.920h0.320v0.320h-0.320zM78.560 39.920h0.320v0.320h-0.320zM78.880 39.920h0.320v0.320h-0.320zM79.520 39.920h0.320v0.320h-0.320zM79.840 39.920h0.320v0.320h-0.320zM80.480 39.920h0.320v0.320h-0.320zM80.800 39.920h0.320v0.320h-0.320zM81.440 39.920h0.320v0.320h-0.320zM81.760 39.920h0.320v0.320h-0.320zM82.720 39.920h0.320v0.320h-0.320zM60.960 40.240h0.320v0.320h-0.320zM61.280 40.240h0.320v0.320h-0.320zM61.600 40.240h0.320v0.320h-0.320zM62.240 40.240h0.320v0.320h-0.320zM62.560 40.240h0.320v0.320h-0.320zM63.200 40.240h0.320v0.320h-0.320zM63.520 40.240h0.320v0.320h-0.320zM64.480 40.240h0.320v0.320h-0.320zM64.800 40.240h0.320v0.320h-0.320zM65.760 40.240h0.320v0.320h-0.320zM66.400 40.240h0.320v0.320h-0.320zM67.040 40.240h0.320v0.320h-0.320zM67.360 40.240h0.320v0.320h-0.320zM67.680 40.240h0.320v0.320h-0.320zM68.000 40.240h0.320v0.320h-0.320zM68.320 40.240h0.320v0.320h-0.320zM69.280 40.240h0.320v0.320h-0.320zM69.920 40.240h0.320v0.320h-0.320zM70.560 40.240h0.320v0.320h-0.320zM71.200 40.240h0.320v0.320h-0.320zM72.800 40.240h0.320v0.320h-0.320zM73.120 40.240h0.320v0.320h-0.320zM73.760 40.240h0.320v0.320h-0.320zM74.080 40.240h0.320v0.320h-0.320zM75.040 40.240h0.320v0.320h-0.320zM76.000 40.240h0.320v0.320h-0.320zM76.320 40.240h0.320v0.320h-0.320zM77.920 40.240h0.320v0.320h-0.320zM81.120 40.240h0.320v0.320h-0.320zM81.440 40.240h0.320v0.320h-0.320zM82.720 40.240h0.320v0.320h-0.320zM61.280 40.560h0.320v0.320h-0.320zM61.920 40.560h0.320v0.320h-0.320zM62.880 40.560h0.320v0.320h-0.320zM63.840 40.560h0.320v0.320h-0.320zM65.440 40.560h0.320v0.320h-0.320zM66.080 40.560h0.320v0.320h-0.320zM66.400 40.560h0.320v0.320h-0.320zM66.720 40.560h0.320v0.320h-0.320zM67.680 40.560h0.320v0.320h-0.320zM68.640 40.560h0.320v0.320h-0.320zM68.960 40.560h0.320v0.320h-0.320zM69.280 40.560h0.320v0.320h-0.320zM69.920 40.560h0.320v0.320h-0.320zM70.240 40.560h0.320v0.320h-0.320zM71.200 40.560h0.320v0.320h-0.320zM71.840 40.560h0.320v0.320h-0.320zM72.160 40.560h0.320v0.320h-0.320zM72.480 40.560h0.320v0.320h-0.320zM73.120 40.560h0.320v0.320h-0.320zM73.440 40.560h0.320v0.320h-0.320zM73.760 40.560h0.320v0.320h-0.320zM74.400 40.560h0.320v0.320h-0.320zM75.040 40.560h0.320v0.320h-0.320zM75.360 40.560h0.320v0.320h-0.320zM75.680 40.560h0.320v0.320h-0.320zM76.320 40.560h0.320v0.320h-0.320zM76.960 40.560h0.320v0.320h-0.320zM77.600 40.560h0.320v0.320h-0.320zM77.920 40.560h0.320v0.320h-0.320zM78.560 40.560h0.320v0.320h-0.320zM78.880 40.560h0.320v0.320h-0.320zM79.840 40.560h0.320v0.320h-0.320zM80.160 40.560h0.320v0.320h-0.320zM80.480 40.560h0.320v0.320h-0.320zM81.760 40.560h0.320v0.320h-0.320zM82.080 40.560h0.320v0.320h-0.320zM82.720 40.560h0.320v0.320h-0.320zM61.280 40.880h0.320v0.320h-0.320zM63.200 40.880h0.320v0.320h-0.320zM63.520 40.880h0.320v0.320h-0.320zM64.480 40.880h0.320v0.320h-0.320zM65.120 40.880h0.320v0.320h-0.320zM66.080 40.880h0.320v0.320h-0.320zM66.400 40.880h0.320v0.320h-0.320zM67.040 40.880h0.320v0.320h-0.320zM67.360 40.880h0.320v0.320h-0.320zM67.680 40.880h0.320v0.320h-0.320zM68.000 40.880h0.320v0.320h-0.320zM68.320 40.880h0.320v0.320h-0.320zM68.960 40.880h0.320v0.320h-0.320zM69.600 40.880h0.320v0.320h-0.320zM69.920 40.880h0.320v0.320h-0.320zM71.200 40.880h0.320v0.320h-0.320zM72.480 40.880h0.320v0.320h-0.320zM72.800 40.880h0.320v0.320h-0.320zM73.440 40.880h0.320v0.320h-0.320zM73.760 40.880h0.320v0.320h-0.320zM75.040 40.880h0.320v0.320h-0.320zM76.000 40.880h0.320v0.320h-0.320zM76.640 40.880h0.320v0.320h-0.320zM77.280 40.880h0.320v0.320h-0.320zM77.920 40.880h0.320v0.320h-0.320zM78.240 40.880h0.320v0.320h-0.320zM78.560 40.880h0.320v0.320h-0.320zM78.880 40.880h0.320v0.320h-0.320zM79.200 40.880h0.320v0.320h-0.320zM79.520 40.880h0.320v0.320h-0.320zM79.840 40.880h0.320v0.320h-0.320zM81.120 40.880h0.320v0.320h-0.320zM62.240 41.200h0.320v0.320h-0.320zM62.560 41.200h0.320v0.320h-0.320zM62.880 41.200h0.320v0.320h-0.320zM63.200 41.200h0.320v0.320h-0.320zM63.520 41.200h0.320v0.320h-0.320zM64.160 41.200h0.320v0.320h-0.320zM64.800 41.200h0.320v0.320h-0.320zM65.120 41.200h0.320v0.320h-0.320zM65.760 41.200h0.320v0.320h-0.320zM66.720 41.200h0.320v0.320h-0.320zM67.040 41.200h0.320v0.320h-0.320zM67.360 41.200h0.320v0.320h-0.320zM68.000 41.200h0.320v0.320h-0.320zM68.640 41.200h0.320v0.320h-0.320zM69.920 41.200h0.320v0.320h-0.320zM70.560 41.200h0.320v0.320h-0.320zM70.880 41.200h0.320v0.320h-0.320zM71.200 41.200h0.320v0.320h-0.320zM71.520 41.200h0.320v0.320h-0.320zM71.840 41.200h0.320v0.320h-0.320zM72.160 41.200h0.320v0.320h-0.320zM72.480 41.200h0.320v0.320h-0.320zM73.120 41.200h0.320v0.320h-0.320zM73.440 41.200h0.320v0.320h-0.320zM73.760 41.200h0.320v0.320h-0.320zM74.720 41.200h0.320v0.320h-0.320zM75.040 41.200h0.320v0.320h-0.320zM75.680 41.200h0.320v0.320h-0.320zM76.000 41.200h0.320v0.320h-0.320zM77.280 41.200h0.320v0.320h-0.320zM77.600 41.200h0.320v0.320h-0.320zM77.920 41.200h0.320v0.320h-0.320zM78.560 41.200h0.320v0.320h-0.320zM78.880 41.200h0.320v0.320h-0.320zM79.200 41.200h0.320v0.320h-0.320zM79.520 41.200h0.320v0.320h-0.320zM80.160 41.200h0.320v0.320h-0.320zM80.480 41.200h0.320v0.320h-0.320zM80.800 41.200h0.320v0.320h-0.320zM81.120 41.200h0.320v0.320h-0.320zM81.440 41.200h0.320v0.320h-0.320zM82.080 41.200h0.320v0.320h-0.320zM82.720 41.200h0.320v0.320h-0.320zM61.280 41.520h0.320v0.320h-0.320zM61.600 41.520h0.320v0.320h-0.320zM62.240 41.520h0.320v0.320h-0.320zM63.520 41.520h0.320v0.320h-0.320zM64.160 41.520h0.320v0.320h-0.320zM64.480 41.520h0.320v0.320h-0.320zM65.120 41.520h0.320v0.320h-0.320zM65.440 41.520h0.320v0.320h-0.320zM65.760 41.520h0.320v0.320h-0.320zM67.040 41.520h0.320v0.320h-0.320zM67.360 41.520h0.320v0.320h-0.320zM68.320 41.520h0.320v0.320h-0.320zM68.640 41.520h0.320v0.320h-0.320zM69.280 41.520h0.320v0.320h-0.320zM69.600 41.520h0.320v0.320h-0.320zM69.920 41.520h0.320v0.320h-0.320zM70.240 41.520h0.320v0.320h-0.320zM70.880 41.520h0.320v0.320h-0.320zM71.200 41.520h0.320v0.320h-0.320zM72.480 41.520h0.320v0.320h-0.320zM73.440 41.520h0.320v0.320h-0.320zM73.760 41.520h0.320v0.320h-0.320zM74.080 41.520h0.320v0.320h-0.320zM74.720 41.520h0.320v0.320h-0.320zM76.000 41.520h0.320v0.320h-0.320zM77.920 41.520h0.320v0.320h-0.320zM78.880 41.520h0.320v0.320h-0.320zM80.160 41.520h0.320v0.320h-0.320zM81.440 41.520h0.320v0.320h-0.320zM82.400 41.520h0.320v0.320h-0.320zM60.960 41.840h0.320v0.320h-0.320zM61.600 41.840h0.320v0.320h-0.320zM61.920 41.840h0.320v0.320h-0.320zM62.240 41.840h0.320v0.320h-0.320zM62.880 41.840h0.320v0.320h-0.320zM63.520 41.840h0.320v0.320h-0.320zM63.840 41.840h0.320v0.320h-0.320zM64.160 41.840h0.320v0.320h-0.320zM65.440 41.840h0.320v0.320h-0.320zM66.080 41.840h0.320v0.320h-0.320zM66.400 41.840h0.320v0.320h-0.320zM67.360 41.840h0.320v0.320h-0.320zM68.960 41.840h0.320v0.320h-0.320zM69.600 41.840h0.320v0.320h-0.320zM69.920 41.840h0.320v0.320h-0.320zM70.240 41.840h0.320v0.320h-0.320zM70.560 41.840h0.320v0.320h-0.320zM71.200 41.840h0.320v0.320h-0.320zM71.840 41.840h0.320v0.320h-0.320zM72.480 41.840h0.320v0.320h-0.320zM72.800 41.840h0.320v0.320h-0.320zM73.760 41.840h0.320v0.320h-0.320zM74.080 41.840h0.320v0.320h-0.320zM74.720 41.840h0.320v0.320h-0.320zM75.040 41.840h0.320v0.320h-0.320zM76.320 41.840h0.320v0.320h-0.320zM76.960 41.840h0.320v0.320h-0.320zM77.280 41.840h0.320v0.320h-0.320zM77.600 41.840h0.320v0.320h-0.320zM77.920 41.840h0.320v0.320h-0.320zM78.880 41.840h0.320v0.320h-0.320zM79.840 41.840h0.320v0.320h-0.320zM80.160 41.840h0.320v0.320h-0.320zM80.800 41.840h0.320v0.320h-0.320zM81.440 41.840h0.320v0.320h-0.320zM81.760 41.840h0.320v0.320h-0.320zM82.400 41.840h0.320v0.320h-0.320zM82.720 41.840h0.320v0.320h-0.320zM61.280 42.160h0.320v0.320h-0.320zM61.600 42.160h0.320v0.320h-0.320zM62.240 42.160h0.320v0.320h-0.320zM63.520 42.160h0.320v0.320h-0.320zM64.800 42.160h0.320v0.320h-0.320zM65.120 42.160h0.320v0.320h-0.320zM65.440 42.160h0.320v0.320h-0.320zM66.080 42.160h0.320v0.320h-0.320zM66.400 42.160h0.320v0.320h-0.320zM66.720 42.160h0.320v0.320h-0.320zM67.040 42.160h0.320v0.320h-0.320zM67.360 42.160h0.320v0.320h-0.320zM68.640 42.160h0.320v0.320h-0.320zM69.280 42.160h0.320v0.320h-0.320zM71.200 42.160h0.320v0.320h-0.320zM72.480 42.160h0.320v0.320h-0.320zM72.800 42.160h0.320v0.320h-0.320zM73.440 42.160h0.320v0.320h-0.320zM73.760 42.160h0.320v0.320h-0.320zM74.720 42.160h0.320v0.320h-0.320zM75.360 42.160h0.320v0.320h-0.320zM76.320 42.160h0.320v0.320h-0.320zM76.640 42.160h0.320v0.320h-0.320zM77.280 42.160h0.320v0.320h-0.320zM77.600 42.160h0.320v0.320h-0.320zM78.240 42.160h0.320v0.320h-0.320zM78.560 42.160h0.320v0.320h-0.320zM79.200 42.160h0.320v0.320h-0.320zM79.840 42.160h0.320v0.320h-0.320zM80.160 42.160h0.320v0.320h-0.320zM81.440 42.160h0.320v0.320h-0.320zM81.760 42.160h0.320v0.320h-0.320zM82.400 42.160h0.320v0.320h-0.320zM60.960 42.480h0.320v0.320h-0.320zM61.920 42.480h0.320v0.320h-0.320zM62.240 42.480h0.320v0.320h-0.320zM62.560 42.480h0.320v0.320h-0.320zM62.880 42.480h0.320v0.320h-0.320zM63.200 42.480h0.320v0.320h-0.320zM63.520 42.480h0.320v0.320h-0.320zM64.160 42.480h0.320v0.320h-0.320zM65.760 42.480h0.320v0.320h-0.320zM66.080 42.480h0.320v0.320h-0.320zM66.400 42.480h0.320v0.320h-0.320zM66.720 42.480h0.320v0.320h-0.320zM67.040 42.480h0.320v0.320h-0.320zM68.320 42.480h0.320v0.320h-0.320zM68.960 42.480h0.320v0.320h-0.320zM69.280 42.480h0.320v0.320h-0.320zM69.920 42.480h0.320v0.320h-0.320zM70.240 42.480h0.320v0.320h-0.320zM70.880 42.480h0.320v0.320h-0.320zM71.200 42.480h0.320v0.320h-0.320zM71.520 42.480h0.320v0.320h-0.320zM71.840 42.480h0.320v0.320h-0.320zM72.160 42.480h0.320v0.320h-0.320zM72.480 42.480h0.320v0.320h-0.320zM73.440 42.480h0.320v0.320h-0.320zM73.760 42.480h0.320v0.320h-0.320zM74.080 42.480h0.320v0.320h-0.320zM74.400 42.480h0.320v0.320h-0.320zM74.720 42.480h0.320v0.320h-0.320zM75.040 42.480h0.320v0.320h-0.320zM76.320 42.480h0.320v0.320h-0.320zM76.640 42.480h0.320v0.320h-0.320zM76.960 42.480h0.320v0.320h-0.320zM77.280 42.480h0.320v0.320h-0.320zM77.600 42.480h0.320v0.320h-0.320zM78.560 42.480h0.320v0.320h-0.320zM78.880 42.480h0.320v0.320h-0.320zM79.520 42.480h0.320v0.320h-0.320zM80.160 42.480h0.320v0.320h-0.320zM80.480 42.480h0.320v0.320h-0.320zM80.800 42.480h0.320v0.320h-0.320zM81.120 42.480h0.320v0.320h-0.320zM81.440 42.480h0.320v0.320h-0.320zM81.760 42.480h0.320v0.320h-0.320zM82.400 42.480h0.320v0.320h-0.320zM82.720 42.480h0.320v0.320h-0.320zM61.280 42.800h0.320v0.320h-0.320zM61.600 42.800h0.320v0.320h-0.320zM61.920 42.800h0.320v0.320h-0.320zM62.240 42.800h0.320v0.320h-0.320zM62.560 42.800h0.320v0.320h-0.320zM63.200 42.800h0.320v0.320h-0.320zM63.840 42.800h0.320v0.320h-0.320zM64.160 42.800h0.320v0.320h-0.320zM64.480 42.800h0.320v0.320h-0.320zM64.800 42.800h0.320v0.320h-0.320zM65.440 42.800h0.320v0.320h-0.320zM65.760 42.800h0.320v0.320h-0.320zM67.040 42.800h0.320v0.320h-0.320zM67.360 42.800h0.320v0.320h-0.320zM68.000 42.800h0.320v0.320h-0.320zM69.600 42.800h0.320v0.320h-0.320zM70.560 42.800h0.320v0.320h-0.320zM71.840 42.800h0.320v0.320h-0.320zM73.120 42.800h0.320v0.320h-0.320zM73.440 42.800h0.320v0.320h-0.320zM74.080 42.800h0.320v0.320h-0.320zM74.720 42.800h0.320v0.320h-0.320zM75.040 42.800h0.320v0.320h-0.320zM76.000 42.800h0.320v0.320h-0.320zM76.320 42.800h0.320v0.320h-0.320zM77.280 42.800h0.320v0.320h-0.320zM78.560 42.800h0.320v0.320h-0.320zM78.880 42.800h0.320v0.320h-0.320zM81.760 42.800h0.320v0.320h-0.320zM82.080 42.800h0.320v0.320h-0.320zM82.720 42.800h0.320v0.320h-0.320zM61.280 43.120h0.320v0.320h-0.320zM61.920 43.120h0.320v0.320h-0.320zM62.240 43.120h0.320v0.320h-0.320zM62.880 43.120h0.320v0.320h-0.320zM64.480 43.120h0.320v0.320h-0.320zM64.800 43.120h0.320v0.320h-0.320zM66.400 43.120h0.320v0.320h-0.320zM67.360 43.120h0.320v0.320h-0.320zM68.000 43.120h0.320v0.320h-0.320zM68.320 43.120h0.320v0.320h-0.320zM68.960 43.120h0.320v0.320h-0.320zM69.920 43.120h0.320v0.320h-0.320zM71.200 43.120h0.320v0.320h-0.320zM71.840 43.120h0.320v0.320h-0.320zM72.480 43.120h0.320v0.320h-0.320zM72.800 43.120h0.320v0.320h-0.320zM73.440 43.120h0.320v0.320h-0.320zM73.760 43.120h0.320v0.320h-0.320zM74.080 43.120h0.320v0.320h-0.320zM75.680 43.120h0.320v0.320h-0.320zM76.640 43.120h0.320v0.320h-0.320zM77.280 43.120h0.320v0.320h-0.320zM77.600 43.120h0.320v0.320h-0.320zM79.520 43.120h0.320v0.320h-0.320zM80.480 43.120h0.320v0.320h-0.320zM80.800 43.120h0.320v0.320h-0.320zM81.760 43.120h0.320v0.320h-0.320zM82.720 43.120h0.320v0.320h-0.320zM61.920 43.440h0.320v0.320h-0.320zM62.560 43.440h0.320v0.320h-0.320zM63.840 43.440h0.320v0.320h-0.320zM64.160 43.440h0.320v0.320h-0.320zM65.120 43.440h0.320v0.320h-0.320zM66.720 43.440h0.320v0.320h-0.320zM67.680 43.440h0.320v0.320h-0.320zM68.320 43.440h0.320v0.320h-0.320zM69.600 43.440h0.320v0.320h-0.320zM70.880 43.440h0.320v0.320h-0.320zM71.200 43.440h0.320v0.320h-0.320zM71.520 43.440h0.320v0.320h-0.320zM73.440 43.440h0.320v0.320h-0.320zM74.400 43.440h0.320v0.320h-0.320zM75.360 43.440h0.320v0.320h-0.320zM75.680 43.440h0.320v0.320h-0.320zM76.320 43.440h0.320v0.320h-0.320zM76.960 43.440h0.320v0.320h-0.320zM77.280 43.440h0.320v0.320h-0.320zM77.600 43.440h0.320v0.320h-0.320zM78.880 43.440h0.320v0.320h-0.320zM79.200 43.440h0.320v0.320h-0.320zM80.480 43.440h0.320v0.320h-0.320zM81.120 43.440h0.320v0.320h-0.320zM81.760 43.440h0.320v0.320h-0.320zM82.720 43.440h0.320v0.320h-0.320zM61.280 43.760h0.320v0.320h-0.320zM61.600 43.760h0.320v0.320h-0.320zM61.920 43.760h0.320v0.320h-0.320zM62.240 43.760h0.320v0.320h-0.320zM62.880 43.760h0.320v0.320h-0.320zM63.520 43.760h0.320v0.320h-0.320zM63.840 43.760h0.320v0.320h-0.320zM65.440 43.760h0.320v0.320h-0.320zM65.760 43.760h0.320v0.320h-0.320zM66.400 43.760h0.320v0.320h-0.320zM66.720 43.760h0.320v0.320h-0.320zM67.360 43.760h0.320v0.320h-0.320zM68.640 43.760h0.320v0.320h-0.320zM70.560 43.760h0.320v0.320h-0.320zM70.880 43.760h0.320v0.320h-0.320zM72.160 43.760h0.320v0.320h-0.320zM72.800 43.760h0.320v0.320h-0.320zM73.120 43.760h0.320v0.320h-0.320zM73.440 43.760h0.320v0.320h-0.320zM73.760 43.760h0.320v0.320h-0.320zM74.720 43.760h0.320v0.320h-0.320zM75.040 43.760h0.320v0.320h-0.320zM76.000 43.760h0.320v0.320h-0.320zM76.320 43.760h0.320v0.320h-0.320zM76.640 43.760h0.320v0.320h-0.320zM76.960 43.760h0.320v0.320h-0.320zM77.600 43.760h0.320v0.320h-0.320zM77.920 43.760h0.320v0.320h-0.320zM78.880 43.760h0.320v0.320h-0.320zM79.200 43.760h0.320v0.320h-0.320zM79.520 43.760h0.320v0.320h-0.320zM80.160 43.760h0.320v0.320h-0.320zM80.800 43.760h0.320v0.320h-0.320zM81.760 43.760h0.320v0.320h-0.320zM61.280 44.080h0.320v0.320h-0.320zM61.920 44.080h0.320v0.320h-0.320zM63.520 44.080h0.320v0.320h-0.320zM64.160 44.080h0.320v0.320h-0.320zM65.440 44.080h0.320v0.320h-0.320zM66.080 44.080h0.320v0.320h-0.320zM66.400 44.080h0.320v0.320h-0.320zM66.720 44.080h0.320v0.320h-0.320zM67.360 44.080h0.320v0.320h-0.320zM67.680 44.080h0.320v0.320h-0.320zM69.600 44.080h0.320v0.320h-0.320zM70.880 44.080h0.320v0.320h-0.320zM71.840 44.080h0.320v0.320h-0.320zM72.480 44.080h0.320v0.320h-0.320zM72.800 44.080h0.320v0.320h-0.320zM73.120 44.080h0.320v0.320h-0.320zM73.760 44.080h0.320v0.320h-0.320zM74.720 44.080h0.320v0.320h-0.320zM75.040 44.080h0.320v0.320h-0.320zM76.320 44.080h0.320v0.320h-0.320zM76.640 44.080h0.320v0.320h-0.320zM77.280 44.080h0.320v0.320h-0.320zM79.200 44.080h0.320v0.320h-0.320zM80.160 44.080h0.320v0.320h-0.320zM80.800 44.080h0.320v0.320h-0.320zM81.760 44.080h0.320v0.320h-0.320zM82.400 44.080h0.320v0.320h-0.320zM82.720 44.080h0.320v0.320h-0.320zM60.960 44.400h0.320v0.320h-0.320zM61.280 44.400h0.320v0.320h-0.320zM61.600 44.400h0.320v0.320h-0.320zM62.560 44.400h0.320v0.320h-0.320zM62.880 44.400h0.320v0.320h-0.320zM63.520 44.400h0.320v0.320h-0.320zM63.840 44.400h0.320v0.320h-0.320zM64.480 44.400h0.320v0.320h-0.320zM64.800 44.400h0.320v0.320h-0.320zM65.760 44.400h0.320v0.320h-0.320zM66.080 44.400h0.320v0.320h-0.320zM66.400 44.400h0.320v0.320h-0.320zM67.360 44.400h0.320v0.320h-0.320zM68.640 44.400h0.320v0.320h-0.320zM69.280 44.400h0.320v0.320h-0.320zM69.600 44.400h0.320v0.320h-0.320zM69.920 44.400h0.320v0.320h-0.320zM70.880 44.400h0.320v0.320h-0.320zM71.200 44.400h0.320v0.320h-0.320zM72.160 44.400h0.320v0.320h-0.320zM72.480 44.400h0.320v0.320h-0.320zM73.760 44.400h0.320v0.320h-0.320zM75.360 44.400h0.320v0.320h-0.320zM75.680 44.400h0.320v0.320h-0.320zM76.320 44.400h0.320v0.320h-0.320zM76.960 44.400h0.320v0.320h-0.320zM77.280 44.400h0.320v0.320h-0.320zM77.600 44.400h0.320v0.320h-0.320zM78.560 44.400h0.320v0.320h-0.320zM78.880 44.400h0.320v0.320h-0.320zM79.200 44.400h0.320v0.320h-0.320zM79.840 44.400h0.320v0.320h-0.320zM80.160 44.400h0.320v0.320h-0.320zM80.800 44.400h0.320v0.320h-0.320zM82.400 44.400h0.320v0.320h-0.320zM82.720 44.400h0.320v0.320h-0.320zM60.960 44.720h0.320v0.320h-0.320zM61.280 44.720h0.320v0.320h-0.320zM61.600 44.720h0.320v0.320h-0.320zM61.920 44.720h0.320v0.320h-0.320zM62.240 44.720h0.320v0.320h-0.320zM62.560 44.720h0.320v0.320h-0.320zM63.200 44.720h0.320v0.320h-0.320zM63.840 44.720h0.320v0.320h-0.320zM64.160 44.720h0.320v0.320h-0.320zM64.480 44.720h0.320v0.320h-0.320zM65.120 44.720h0.320v0.320h-0.320zM65.760 44.720h0.320v0.320h-0.320zM66.400 44.720h0.320v0.320h-0.320zM69.600 44.720h0.320v0.320h-0.320zM69.920 44.720h0.320v0.320h-0.320zM70.240 44.720h0.320v0.320h-0.320zM70.880 44.720h0.320v0.320h-0.320zM71.200 44.720h0.320v0.320h-0.320zM71.520 44.720h0.320v0.320h-0.320zM72.160 44.720h0.320v0.320h-0.320zM73.120 44.720h0.320v0.320h-0.320zM73.440 44.720h0.320v0.320h-0.320zM74.080 44.720h0.320v0.320h-0.320zM74.400 44.720h0.320v0.320h-0.320zM74.720 44.720h0.320v0.320h-0.320zM75.040 44.720h0.320v0.320h-0.320zM75.360 44.720h0.320v0.320h-0.320zM76.320 44.720h0.320v0.320h-0.320zM79.200 44.720h0.320v0.320h-0.320zM79.520 44.720h0.320v0.320h-0.320zM79.840 44.720h0.320v0.320h-0.320zM80.160 44.720h0.320v0.320h-0.320zM80.480 44.720h0.320v0.320h-0.320zM80.800 44.720h0.320v0.320h-0.320zM81.440 44.720h0.320v0.320h-0.320zM81.760 44.720h0.320v0.320h-0.320zM60.960 45.040h0.320v0.320h-0.320zM61.280 45.040h0.320v0.320h-0.320zM61.920 45.040h0.320v0.320h-0.320zM62.880 45.040h0.320v0.320h-0.320zM63.200 45.040h0.320v0.320h-0.320zM64.160 45.040h0.320v0.320h-0.320zM65.120 45.040h0.320v0.320h-0.320zM65.760 45.040h0.320v0.320h-0.320zM66.080 45.040h0.320v0.320h-0.320zM67.360 45.040h0.320v0.320h-0.320zM67.680 45.040h0.320v0.320h-0.320zM68.000 45.040h0.320v0.320h-0.320zM68.960 45.040h0.320v0.320h-0.320zM69.920 45.040h0.320v0.320h-0.320zM70.560 45.040h0.320v0.320h-0.320zM72.160 45.040h0.320v0.320h-0.320zM72.480 45.040h0.320v0.320h-0.320zM72.800 45.040h0.320v0.320h-0.320zM73.440 45.040h0.320v0.320h-0.320zM74.720 45.040h0.320v0.320h-0.320zM75.040 45.040h0.320v0.320h-0.320zM76.000 45.040h0.320v0.320h-0.320zM76.320 45.040h0.320v0.320h-0.320zM76.960 45.040h0.320v0.320h-0.320zM77.280 45.040h0.320v0.320h-0.320zM77.600 45.040h0.320v0.320h-0.320zM77.920 45.040h0.320v0.320h-0.320zM79.200 45.040h0.320v0.320h-0.320zM80.480 45.040h0.320v0.320h-0.320zM80.800 45.040h0.320v0.320h-0.320zM81.440 45.040h0.320v0.320h-0.320zM82.720 45.040h0.320v0.320h-0.320zM60.960 45.360h0.320v0.320h-0.320zM61.920 45.360h0.320v0.320h-0.320zM62.560 45.360h0.320v0.320h-0.320zM63.200 45.360h0.320v0.320h-0.320zM64.800 45.360h0.320v0.320h-0.320zM65.120 45.360h0.320v0.320h-0.320zM65.760 45.360h0.320v0.320h-0.320zM66.720 45.360h0.320v0.320h-0.320zM67.040 45.360h0.320v0.320h-0.320zM67.680 45.360h0.320v0.320h-0.320zM68.000 45.360h0.320v0.320h-0.320zM68.960 45.360h0.320v0.320h-0.320zM69.280 45.360h0.320v0.320h-0.320zM70.240 45.360h0.320v0.320h-0.320zM70.880 45.360h0.320v0.320h-0.320zM71.200 45.360h0.320v0.320h-0.320zM71.520 45.360h0.320v0.320h-0.320zM71.840 45.360h0.320v0.320h-0.320zM72.160 45.360h0.320v0.320h-0.320zM72.800 45.360h0.320v0.320h-0.320zM73.440 45.360h0.320v0.320h-0.320zM73.760 45.360h0.320v0.320h-0.320zM74.080 45.360h0.320v0.320h-0.320zM74.720 45.360h0.320v0.320h-0.320zM75.040 45.360h0.320v0.320h-0.320zM77.600 45.360h0.320v0.320h-0.320zM78.880 45.360h0.320v0.320h-0.320zM79.520 45.360h0.320v0.320h-0.320zM80.160 45.360h0.320v0.320h-0.320zM82.080 45.360h0.320v0.320h-0.320zM82.400 45.360h0.320v0.320h-0.320zM60.960 45.680h0.320v0.320h-0.320zM61.280 45.680h0.320v0.320h-0.320zM62.560 45.680h0.320v0.320h-0.320zM62.880 45.680h0.320v0.320h-0.320zM63.840 45.680h0.320v0.320h-0.320zM64.800 45.680h0.320v0.320h-0.320zM65.120 45.680h0.320v0.320h-0.320zM65.440 45.680h0.320v0.320h-0.320zM66.080 45.680h0.320v0.320h-0.320zM66.400 45.680h0.320v0.320h-0.320zM66.720 45.680h0.320v0.320h-0.320zM68.320 45.680h0.320v0.320h-0.320zM68.640 45.680h0.320v0.320h-0.320zM69.600 45.680h0.320v0.320h-0.320zM70.560 45.680h0.320v0.320h-0.320zM71.520 45.680h0.320v0.320h-0.320zM71.840 45.680h0.320v0.320h-0.320zM72.480 45.680h0.320v0.320h-0.320zM73.120 45.680h0.320v0.320h-0.320zM73.440 45.680h0.320v0.320h-0.320zM74.400 45.680h0.320v0.320h-0.320zM74.720 45.680h0.320v0.320h-0.320zM76.000 45.680h0.320v0.320h-0.320zM76.320 45.680h0.320v0.320h-0.320zM77.280 45.680h0.320v0.320h-0.320zM78.240 45.680h0.320v0.320h-0.320zM78.880 45.680h0.320v0.320h-0.320zM79.520 45.680h0.320v0.320h-0.320zM80.160 45.680h0.320v0.320h-0.320zM80.480 45.680h0.320v0.320h-0.320zM80.800 45.680h0.320v0.320h-0.320zM82.400 45.680h0.320v0.320h-0.320zM82.720 45.680h0.320v0.320h-0.320zM61.280 46.000h0.320v0.320h-0.320zM61.600 46.000h0.320v0.320h-0.320zM61.920 46.000h0.320v0.320h-0.320zM63.520 46.000h0.320v0.320h-0.320zM64.160 46.000h0.320v0.320h-0.320zM64.480 46.000h0.320v0.320h-0.320zM64.800 46.000h0.320v0.320h-0.320zM65.120 46.000h0.320v0.320h-0.320zM66.080 46.000h0.320v0.320h-0.320zM66.400 46.000h0.320v0.320h-0.320zM66.720 46.000h0.320v0.320h-0.320zM67.040 46.000h0.320v0.320h-0.320zM68.320 46.000h0.320v0.320h-0.320zM68.960 46.000h0.320v0.320h-0.320zM69.280 46.000h0.320v0.320h-0.320zM69.600 46.000h0.320v0.320h-0.320zM70.240 46.000h0.320v0.320h-0.320zM70.560 46.000h0.320v0.320h-0.320zM70.880 46.000h0.320v0.320h-0.320zM71.200 46.000h0.320v0.320h-0.320zM71.520 46.000h0.320v0.320h-0.320zM72.480 46.000h0.320v0.320h-0.320zM72.800 46.000h0.320v0.320h-0.320zM73.120 46.000h0.320v0.320h-0.320zM73.760 46.000h0.320v0.320h-0.320zM74.080 46.000h0.320v0.320h-0.320zM74.720 46.000h0.320v0.320h-0.320zM75.680 46.000h0.320v0.320h-0.320zM76.000 46.000h0.320v0.320h-0.320zM76.640 46.000h0.320v0.320h-0.320zM76.960 46.000h0.320v0.320h-0.320zM77.600 46.000h0.320v0.320h-0.320zM77.920 46.000h0.320v0.320h-0.320zM78.880 46.000h0.320v0.320h-0.320zM79.200 46.000h0.320v0.320h-0.320zM79.840 46.000h0.320v0.320h-0.320zM80.800 46.000h0.320v0.320h-0.320zM81.120 46.000h0.320v0.320h-0.320zM81.440 46.000h0.320v0.320h-0.320zM61.280 46.320h0.320v0.320h-0.320zM61.920 46.320h0.320v0.320h-0.320zM62.560 46.320h0.320v0.320h-0.320zM62.880 46.320h0.320v0.320h-0.320zM63.840 46.320h0.320v0.320h-0.320zM64.480 46.320h0.320v0.320h-0.320zM66.080 46.320h0.320v0.320h-0.320zM66.400 46.320h0.320v0.320h-0.320zM66.720 46.320h0.320v0.320h-0.320zM67.040 46.320h0.320v0.320h-0.320zM68.000 46.320h0.320v0.320h-0.320zM68.960 46.320h0.320v0.320h-0.320zM70.880 46.320h0.320v0.320h-0.320zM71.520 46.320h0.320v0.320h-0.320zM71.840 46.320h0.320v0.320h-0.320zM73.440 46.320h0.320v0.320h-0.320zM73.760 46.320h0.320v0.320h-0.320zM74.720 46.320h0.320v0.320h-0.320zM75.040 46.320h0.320v0.320h-0.320zM76.000 46.320h0.320v0.320h-0.320zM76.320 46.320h0.320v0.320h-0.320zM76.640 46.320h0.320v0.320h-0.320zM77.280 46.320h0.320v0.320h-0.320zM77.600 46.320h0.320v0.320h-0.320zM77.920 46.320h0.320v0.320h-0.320zM78.880 46.320h0.320v0.320h-0.320zM79.520 46.320h0.320v0.320h-0.320zM80.160 46.320h0.320v0.320h-0.320zM80.800 46.320h0.320v0.320h-0.320zM81.120 46.320h0.320v0.320h-0.320zM82.080 46.320h0.320v0.320h-0.320zM82.720 46.320h0.320v0.320h-0.320zM60.960 46.640h0.320v0.320h-0.320zM62.240 46.640h0.320v0.320h-0.320zM62.560 46.640h0.320v0.320h-0.320zM63.520 46.640h0.320v0.320h-0.320zM63.840 46.640h0.320v0.320h-0.320zM64.800 46.640h0.320v0.320h-0.320zM65.120 46.640h0.320v0.320h-0.320zM66.080 46.640h0.320v0.320h-0.320zM66.400 46.640h0.320v0.320h-0.320zM66.720 46.640h0.320v0.320h-0.320zM67.360 46.640h0.320v0.320h-0.320zM68.000 46.640h0.320v0.320h-0.320zM68.320 46.640h0.320v0.320h-0.320zM69.280 46.640h0.320v0.320h-0.320zM70.240 46.640h0.320v0.320h-0.320zM70.560 46.640h0.320v0.320h-0.320zM71.840 46.640h0.320v0.320h-0.320zM72.480 46.640h0.320v0.320h-0.320zM73.760 46.640h0.320v0.320h-0.320zM74.720 46.640h0.320v0.320h-0.320zM75.040 46.640h0.320v0.320h-0.320zM75.360 46.640h0.320v0.320h-0.320zM76.000 46.640h0.320v0.320h-0.320zM76.320 46.640h0.320v0.320h-0.320zM78.560 46.640h0.320v0.320h-0.320zM79.840 46.640h0.320v0.320h-0.320zM80.160 46.640h0.320v0.320h-0.320zM80.480 46.640h0.320v0.320h-0.320zM81.120 46.640h0.320v0.320h-0.320zM82.080 46.640h0.320v0.320h-0.320zM82.720 46.640h0.320v0.320h-0.320zM61.280 46.960h0.320v0.320h-0.320zM62.880 46.960h0.320v0.320h-0.320zM63.200 46.960h0.320v0.320h-0.320zM63.520 46.960h0.320v0.320h-0.320zM64.480 46.960h0.320v0.320h-0.320zM64.800 46.960h0.320v0.320h-0.320zM65.120 46.960h0.320v0.320h-0.320zM65.440 46.960h0.320v0.320h-0.320zM66.400 46.960h0.320v0.320h-0.320zM66.720 46.960h0.320v0.320h-0.320zM67.040 46.960h0.320v0.320h-0.320zM67.360 46.960h0.320v0.320h-0.320zM68.000 46.960h0.320v0.320h-0.320zM69.280 46.960h0.320v0.320h-0.320zM69.920 46.960h0.320v0.320h-0.320zM70.240 46.960h0.320v0.320h-0.320zM70.560 46.960h0.320v0.320h-0.320zM70.880 46.960h0.320v0.320h-0.320zM71.840 46.960h0.320v0.320h-0.320zM72.480 46.960h0.320v0.320h-0.320zM73.440 46.960h0.320v0.320h-0.320zM74.080 46.960h0.320v0.320h-0.320zM74.400 46.960h0.320v0.320h-0.320zM74.720 46.960h0.320v0.320h-0.320zM75.040 46.960h0.320v0.320h-0.320zM75.360 46.960h0.320v0.320h-0.320zM76.640 46.960h0.320v0.320h-0.320zM77.280 46.960h0.320v0.320h-0.320zM77.600 46.960h0.320v0.320h-0.320zM77.920 46.960h0.320v0.320h-0.320zM79.520 46.960h0.320v0.320h-0.320zM80.160 46.960h0.320v0.320h-0.320zM80.480 46.960h0.320v0.320h-0.320zM80.800 46.960h0.320v0.320h-0.320zM81.120 46.960h0.320v0.320h-0.320zM81.440 46.960h0.320v0.320h-0.320zM82.720 46.960h0.320v0.320h-0.320zM61.280 47.280h0.320v0.320h-0.320zM61.600 47.280h0.320v0.320h-0.320zM62.240 47.280h0.320v0.320h-0.320zM62.560 47.280h0.320v0.320h-0.320zM63.200 47.280h0.320v0.320h-0.320zM63.520 47.280h0.320v0.320h-0.320zM63.840 47.280h0.320v0.320h-0.320zM64.160 47.280h0.320v0.320h-0.320zM65.120 47.280h0.320v0.320h-0.320zM66.720 47.280h0.320v0.320h-0.320zM67.040 47.280h0.320v0.320h-0.320zM67.360 47.280h0.320v0.320h-0.320zM67.680 47.280h0.320v0.320h-0.320zM69.280 47.280h0.320v0.320h-0.320zM69.920 47.280h0.320v0.320h-0.320zM70.560 47.280h0.320v0.320h-0.320zM71.520 47.280h0.320v0.320h-0.320zM72.480 47.280h0.320v0.320h-0.320zM72.800 47.280h0.320v0.320h-0.320zM73.120 47.280h0.320v0.320h-0.320zM74.080 47.280h0.320v0.320h-0.320zM74.720 47.280h0.320v0.320h-0.320zM75.680 47.280h0.320v0.320h-0.320zM76.000 47.280h0.320v0.320h-0.320zM76.320 47.280h0.320v0.320h-0.320zM76.640 47.280h0.320v0.320h-0.320zM76.960 47.280h0.320v0.320h-0.320zM77.600 47.280h0.320v0.320h-0.320zM77.920 47.280h0.320v0.320h-0.320zM78.880 47.280h0.320v0.320h-0.320zM79.520 47.280h0.320v0.320h-0.320zM80.160 47.280h0.320v0.320h-0.320zM80.480 47.280h0.320v0.320h-0.320zM80.800 47.280h0.320v0.320h-0.320zM81.120 47.280h0.320v0.320h-0.320zM81.760 47.280h0.320v0.320h-0.320zM82.400 47.280h0.320v0.320h-0.320zM82.720 47.280h0.320v0.320h-0.320zM61.280 47.600h0.320v0.320h-0.320zM62.240 47.600h0.320v0.320h-0.320zM62.880 47.600h0.320v0.320h-0.320zM63.520 47.600h0.320v0.320h-0.320zM64.160 47.600h0.320v0.320h-0.320zM64.480 47.600h0.320v0.320h-0.320zM64.800 47.600h0.320v0.320h-0.320zM65.120 47.600h0.320v0.320h-0.320zM65.440 47.600h0.320v0.320h-0.320zM66.080 47.600h0.320v0.320h-0.320zM66.400 47.600h0.320v0.320h-0.320zM67.360 47.600h0.320v0.320h-0.320zM68.000 47.600h0.320v0.320h-0.320zM68.320 47.600h0.320v0.320h-0.320zM68.640 47.600h0.320v0.320h-0.320zM69.600 47.600h0.320v0.320h-0.320zM70.560 47.600h0.320v0.320h-0.320zM73.120 47.600h0.320v0.320h-0.320zM73.440 47.600h0.320v0.320h-0.320zM73.760 47.600h0.320v0.320h-0.320zM74.080 47.600h0.320v0.320h-0.320zM75.040 47.600h0.320v0.320h-0.320zM75.360 47.600h0.320v0.320h-0.320zM75.680 47.600h0.320v0.320h-0.320zM76.000 47.600h0.320v0.320h-0.320zM76.320 47.600h0.320v0.320h-0.320zM76.640 47.600h0.320v0.320h-0.320zM77.280 47.600h0.320v0.320h-0.320zM77.600 47.600h0.320v0.320h-0.320zM77.920 47.600h0.320v0.320h-0.320zM78.880 47.600h0.320v0.320h-0.320zM79.200 47.600h0.320v0.320h-0.320zM79.520 47.600h0.320v0.320h-0.320zM80.160 47.600h0.320v0.320h-0.320zM80.800 47.600h0.320v0.320h-0.320zM81.120 47.600h0.320v0.320h-0.320zM81.760 47.600h0.320v0.320h-0.320zM60.960 47.920h0.320v0.320h-0.320zM63.520 47.920h0.320v0.320h-0.320zM64.160 47.920h0.320v0.320h-0.320zM64.480 47.920h0.320v0.320h-0.320zM66.400 47.920h0.320v0.320h-0.320zM66.720 47.920h0.320v0.320h-0.320zM67.680 47.920h0.320v0.320h-0.320zM68.320 47.920h0.320v0.320h-0.320zM69.920 47.920h0.320v0.320h-0.320zM70.240 47.920h0.320v0.320h-0.320zM70.560 47.920h0.320v0.320h-0.320zM71.200 47.920h0.320v0.320h-0.320zM71.520 47.920h0.320v0.320h-0.320zM71.840 47.920h0.320v0.320h-0.320zM72.800 47.920h0.320v0.320h-0.320zM73.120 47.920h0.320v0.320h-0.320zM74.720 47.920h0.320v0.320h-0.320zM75.360 47.920h0.320v0.320h-0.320zM76.000 47.920h0.320v0.320h-0.320zM76.640 47.920h0.320v0.320h-0.320zM77.600 47.920h0.320v0.320h-0.320zM79.200 47.920h0.320v0.320h-0.320zM80.160 47.920h0.320v0.320h-0.320zM80.480 47.920h0.320v0.320h-0.320zM81.120 47.920h0.320v0.320h-0.320zM81.760 47.920h0.320v0.320h-0.320zM82.080 47.920h0.320v0.320h-0.320zM82.400 47.920h0.320v0.320h-0.320zM82.720 47.920h0.320v0.320h-0.320zM62.880 48.240h0.320v0.320h-0.320zM63.200 48.240h0.320v0.320h-0.320zM63.520 48.240h0.320v0.320h-0.320zM63.840 48.240h0.320v0.320h-0.320zM64.160 48.240h0.320v0.320h-0.320zM64.480 48.240h0.320v0.320h-0.320zM65.440 48.240h0.320v0.320h-0.320zM65.760 48.240h0.320v0.320h-0.320zM66.720 48.240h0.320v0.320h-0.320zM67.680 48.240h0.320v0.320h-0.320zM68.000 48.240h0.320v0.320h-0.320zM68.640 48.240h0.320v0.320h-0.320zM68.960 48.240h0.320v0.320h-0.320zM69.280 48.240h0.320v0.320h-0.320zM69.600 48.240h0.320v0.320h-0.320zM70.240 48.240h0.320v0.320h-0.320zM72.160 48.240h0.320v0.320h-0.320zM72.800 48.240h0.320v0.320h-0.320zM73.440 48.240h0.320v0.320h-0.320zM74.080 48.240h0.320v0.320h-0.320zM74.720 48.240h0.320v0.320h-0.320zM75.040 48.240h0.320v0.320h-0.320zM75.680 48.240h0.320v0.320h-0.320zM76.000 48.240h0.320v0.320h-0.320zM76.320 48.240h0.320v0.320h-0.320zM76.640 48.240h0.320v0.320h-0.320zM77.280 48.240h0.320v0.320h-0.320zM77.920 48.240h0.320v0.320h-0.320zM78.560 48.240h0.320v0.320h-0.320zM78.880 48.240h0.320v0.320h-0.320zM79.520 48.240h0.320v0.320h-0.320zM80.480 48.240h0.320v0.320h-0.320zM80.800 48.240h0.320v0.320h-0.320zM81.440 48.240h0.320v0.320h-0.320zM81.760 48.240h0.320v0.320h-0.320zM82.400 48.240h0.320v0.320h-0.320zM82.720 48.240h0.320v0.320h-0.320zM60.960 48.560h0.320v0.320h-0.320zM61.280 48.560h0.320v0.320h-0.320zM61.600 48.560h0.320v0.320h-0.320zM61.920 48.560h0.320v0.320h-0.320zM62.240 48.560h0.320v0.320h-0.320zM63.840 48.560h0.320v0.320h-0.320zM64.160 48.560h0.320v0.320h-0.320zM64.480 48.560h0.320v0.320h-0.320zM65.120 48.560h0.320v0.320h-0.320zM65.440 48.560h0.320v0.320h-0.320zM65.760 48.560h0.320v0.320h-0.320zM66.080 48.560h0.320v0.320h-0.320zM66.400 48.560h0.320v0.320h-0.320zM66.720 48.560h0.320v0.320h-0.320zM67.360 48.560h0.320v0.320h-0.320zM68.320 48.560h0.320v0.320h-0.320zM68.640 48.560h0.320v0.320h-0.320zM68.960 48.560h0.320v0.320h-0.320zM69.920 48.560h0.320v0.320h-0.320zM70.240 48.560h0.320v0.320h-0.320zM71.520 48.560h0.320v0.320h-0.320zM72.160 48.560h0.320v0.320h-0.320zM72.480 48.560h0.320v0.320h-0.320zM73.760 48.560h0.320v0.320h-0.320zM75.040 48.560h0.320v0.320h-0.320zM75.360 48.560h0.320v0.320h-0.320zM76.000 48.560h0.320v0.320h-0.320zM76.640 48.560h0.320v0.320h-0.320zM77.600 48.560h0.320v0.320h-0.320zM77.920 48.560h0.320v0.320h-0.320zM78.880 48.560h0.320v0.320h-0.320zM79.200 48.560h0.320v0.320h-0.320zM79.520 48.560h0.320v0.320h-0.320zM80.480 48.560h0.320v0.320h-0.320zM81.440 48.560h0.320v0.320h-0.320zM82.400 48.560h0.320v0.320h-0.320zM82.720 48.560h0.320v0.320h-0.320zM60.960 48.880h0.320v0.320h-0.320zM61.280 48.880h0.320v0.320h-0.320zM61.600 48.880h0.320v0.320h-0.320zM61.920 48.880h0.320v0.320h-0.320zM62.240 48.880h0.320v0.320h-0.320zM62.560 48.880h0.320v0.320h-0.320zM62.880 48.880h0.320v0.320h-0.320zM63.200 48.880h0.320v0.320h-0.320zM63.520 48.880h0.320v0.320h-0.320zM64.160 48.880h0.320v0.320h-0.320zM65.440 48.880h0.320v0.320h-0.320zM66.080 48.880h0.320v0.320h-0.320zM67.360 48.880h0.320v0.320h-0.320zM67.680 48.880h0.320v0.320h-0.320zM68.640 48.880h0.320v0.320h-0.320zM68.960 48.880h0.320v0.320h-0.320zM69.600 48.880h0.320v0.320h-0.320zM70.240 48.880h0.320v0.320h-0.320zM70.560 48.880h0.320v0.320h-0.320zM71.200 48.880h0.320v0.320h-0.320zM71.520 48.880h0.320v0.320h-0.320zM71.840 48.880h0.320v0.320h-0.320zM72.800 48.880h0.320v0.320h-0.320zM73.760 48.880h0.320v0.320h-0.320zM74.080 48.880h0.320v0.320h-0.320zM74.400 48.880h0.320v0.320h-0.320zM74.720 48.880h0.320v0.320h-0.320zM75.040 48.880h0.320v0.320h-0.320zM75.360 48.880h0.320v0.320h-0.320zM75.680 48.880h0.320v0.320h-0.320zM76.320 48.880h0.320v0.320h-0.320zM76.960 48.880h0.320v0.320h-0.320zM77.600 48.880h0.320v0.320h-0.320zM77.920 48.880h0.320v0.320h-0.320zM78.560 48.880h0.320v0.320h-0.320zM78.880 48.880h0.320v0.320h-0.320zM79.200 48.880h0.320v0.320h-0.320zM79.520 48.880h0.320v0.320h-0.320zM80.480 48.880h0.320v0.320h-0.320zM80.800 48.880h0.320v0.320h-0.320zM81.120 48.880h0.320v0.320h-0.320zM81.760 48.880h0.320v0.320h-0.320zM82.080 48.880h0.320v0.320h-0.320zM82.400 48.880h0.320v0.320h-0.320zM60.960 49.200h0.320v0.320h-0.320zM61.600 49.200h0.320v0.320h-0.320zM62.560 49.200h0.320v0.320h-0.320zM63.520 49.200h0.320v0.320h-0.320zM64.160 49.200h0.320v0.320h-0.320zM64.800 49.200h0.320v0.320h-0.320zM65.120 49.200h0.320v0.320h-0.320zM65.760 49.200h0.320v0.320h-0.320zM66.400 49.200h0.320v0.320h-0.320zM66.720 49.200h0.320v0.320h-0.320zM68.320 49.200h0.320v0.320h-0.320zM68.640 49.200h0.320v0.320h-0.320zM69.280 49.200h0.320v0.320h-0.320zM69.600 49.200h0.320v0.320h-0.320zM70.240 49.200h0.320v0.320h-0.320zM70.880 49.200h0.320v0.320h-0.320zM71.200 49.200h0.320v0.320h-0.320zM71.840 49.200h0.320v0.320h-0.320zM72.800 49.200h0.320v0.320h-0.320zM73.120 49.200h0.320v0.320h-0.320zM73.440 49.200h0.320v0.320h-0.320zM73.760 49.200h0.320v0.320h-0.320zM76.000 49.200h0.320v0.320h-0.320zM77.600 49.200h0.320v0.320h-0.320zM80.160 49.200h0.320v0.320h-0.320zM80.480 49.200h0.320v0.320h-0.320zM81.120 49.200h0.320v0.320h-0.320zM81.760 49.200h0.320v0.320h-0.320zM82.720 49.200h0.320v0.320h-0.320zM60.960 49.520h0.320v0.320h-0.320zM61.600 49.520h0.320v0.320h-0.320zM62.240 49.520h0.320v0.320h-0.320zM62.560 49.520h0.320v0.320h-0.320zM62.880 49.520h0.320v0.320h-0.320zM63.200 49.520h0.320v0.320h-0.320zM63.840 49.520h0.320v0.320h-0.320zM64.160 49.520h0.320v0.320h-0.320zM64.480 49.520h0.320v0.320h-0.320zM64.800 49.520h0.320v0.320h-0.320zM65.440 49.520h0.320v0.320h-0.320zM65.760 49.520h0.320v0.320h-0.320zM66.080 49.520h0.320v0.320h-0.320zM66.720 49.520h0.320v0.320h-0.320zM67.040 49.520h0.320v0.320h-0.320zM68.000 49.520h0.320v0.320h-0.320zM68.640 49.520h0.320v0.320h-0.320zM69.600 49.520h0.320v0.320h-0.320zM69.920 49.520h0.320v0.320h-0.320zM70.560 49.520h0.320v0.320h-0.320zM72.480 49.520h0.320v0.320h-0.320zM73.120 49.520h0.320v0.320h-0.320zM73.440 49.520h0.320v0.320h-0.320zM73.760 49.520h0.320v0.320h-0.320zM74.080 49.520h0.320v0.320h-0.320zM74.720 49.520h0.320v0.320h-0.320zM75.040 49.520h0.320v0.320h-0.320zM75.360 49.520h0.320v0.320h-0.320zM76.000 49.520h0.320v0.320h-0.320zM76.320 49.520h0.320v0.320h-0.320zM76.640 49.520h0.320v0.320h-0.320zM76.960 49.520h0.320v0.320h-0.320zM78.240 49.520h0.320v0.320h-0.320zM78.560 49.520h0.320v0.320h-0.320zM78.880 49.520h0.320v0.320h-0.320zM80.480 49.520h0.320v0.320h-0.320zM80.800 49.520h0.320v0.320h-0.320zM81.120 49.520h0.320v0.320h-0.320zM82.400 49.520h0.320v0.320h-0.320zM82.720 49.520h0.320v0.320h-0.320zM60.960 49.840h0.320v0.320h-0.320zM64.160 49.840h0.320v0.320h-0.320zM64.480 49.840h0.320v0.320h-0.320zM64.800 49.840h0.320v0.320h-0.320zM65.120 49.840h0.320v0.320h-0.320zM65.760 49.840h0.320v0.320h-0.320zM66.080 49.840h0.320v0.320h-0.320zM66.720 49.840h0.320v0.320h-0.320zM67.040 49.840h0.320v0.320h-0.320zM67.680 49.840h0.320v0.320h-0.320zM68.320 49.840h0.320v0.320h-0.320zM68.640 49.840h0.320v0.320h-0.320zM68.960 49.840h0.320v0.320h-0.320zM69.920 49.840h0.320v0.320h-0.320zM70.240 49.840h0.320v0.320h-0.320zM70.560 49.840h0.320v0.320h-0.320zM70.880 49.840h0.320v0.320h-0.320zM71.200 49.840h0.320v0.320h-0.320zM71.840 49.840h0.320v0.320h-0.320zM72.160 49.840h0.320v0.320h-0.320zM72.480 49.840h0.320v0.320h-0.320zM72.800 49.840h0.320v0.320h-0.320zM73.440 49.840h0.320v0.320h-0.320zM74.080 49.840h0.320v0.320h-0.320zM75.360 49.840h0.320v0.320h-0.320zM75.680 49.840h0.320v0.320h-0.320zM76.000 49.840h0.320v0.320h-0.320zM76.640 49.840h0.320v0.320h-0.320zM78.240 49.840h0.320v0.320h-0.320zM78.880 49.840h0.320v0.320h-0.320zM79.200 49.840h0.320v0.320h-0.320zM79.520 49.840h0.320v0.320h-0.320zM79.840 49.840h0.320v0.320h-0.320zM80.160 49.840h0.320v0.320h-0.320zM81.120 49.840h0.320v0.320h-0.320zM81.760 49.840h0.320v0.320h-0.320zM60.960 50.160h0.320v0.320h-0.320zM61.920 50.160h0.320v0.320h-0.320zM62.240 50.160h0.320v0.320h-0.320zM62.880 50.160h0.320v0.320h-0.320zM63.520 50.160h0.320v0.320h-0.320zM63.840 50.160h0.320v0.320h-0.320zM64.160 50.160h0.320v0.320h-0.320zM67.040 50.160h0.320v0.320h-0.320zM68.000 50.160h0.320v0.320h-0.320zM68.640 50.160h0.320v0.320h-0.320zM68.960 50.160h0.320v0.320h-0.320zM70.240 50.160h0.320v0.320h-0.320zM70.560 50.160h0.320v0.320h-0.320zM71.200 50.160h0.320v0.320h-0.320zM71.520 50.160h0.320v0.320h-0.320zM71.840 50.160h0.320v0.320h-0.320zM72.160 50.160h0.320v0.320h-0.320zM72.480 50.160h0.320v0.320h-0.320zM72.800 50.160h0.320v0.320h-0.320zM73.120 50.160h0.320v0.320h-0.320zM73.760 50.160h0.320v0.320h-0.320zM74.720 50.160h0.320v0.320h-0.320zM75.040 50.160h0.320v0.320h-0.320zM75.360 50.160h0.320v0.320h-0.320zM76.000 50.160h0.320v0.320h-0.320zM76.320 50.160h0.320v0.320h-0.320zM77.280 50.160h0.320v0.320h-0.320zM77.600 50.160h0.320v0.320h-0.320zM77.920 50.160h0.320v0.320h-0.320zM78.240 50.160h0.320v0.320h-0.320zM78.560 50.160h0.320v0.320h-0.320zM78.880 50.160h0.320v0.320h-0.320zM80.160 50.160h0.320v0.320h-0.320zM80.480 50.160h0.320v0.320h-0.320zM80.800 50.160h0.320v0.320h-0.320zM81.120 50.160h0.320v0.320h-0.320zM81.440 50.160h0.320v0.320h-0.320zM82.400 50.160h0.320v0.320h-0.320zM82.720 50.160h0.320v0.320h-0.320zM63.520 50.480h0.320v0.320h-0.320zM63.840 50.480h0.320v0.320h-0.320zM64.480 50.480h0.320v0.320h-0.320zM65.120 50.480h0.320v0.320h-0.320zM65.760 50.480h0.320v0.320h-0.320zM66.720 50.480h0.320v0.320h-0.320zM68.000 50.480h0.320v0.320h-0.320zM68.320 50.480h0.320v0.320h-0.320zM68.960 50.480h0.320v0.320h-0.320zM69.920 50.480h0.320v0.320h-0.320zM70.240 50.480h0.320v0.320h-0.320zM70.560 50.480h0.320v0.320h-0.320zM70.880 50.480h0.320v0.320h-0.320zM71.200 50.480h0.320v0.320h-0.320zM72.480 50.480h0.320v0.320h-0.320zM72.800 50.480h0.320v0.320h-0.320zM76.320 50.480h0.320v0.320h-0.320zM77.280 50.480h0.320v0.320h-0.320zM77.600 50.480h0.320v0.320h-0.320zM79.840 50.480h0.320v0.320h-0.320zM80.160 50.480h0.320v0.320h-0.320zM81.440 50.480h0.320v0.320h-0.320zM82.400 50.480h0.320v0.320h-0.320zM60.960 50.800h0.320v0.320h-0.320zM61.280 50.800h0.320v0.320h-0.320zM61.600 50.800h0.320v0.320h-0.320zM61.920 50.800h0.320v0.320h-0.320zM62.240 50.800h0.320v0.320h-0.320zM62.560 50.800h0.320v0.320h-0.320zM62.880 50.800h0.320v0.320h-0.320zM63.520 50.800h0.320v0.320h-0.320zM64.480 50.800h0.320v0.320h-0.320zM64.800 50.800h0.320v0.320h-0.320zM65.120 50.800h0.320v0.320h-0.320zM65.440 50.800h0.320v0.320h-0.320zM65.760 50.800h0.320v0.320h-0.320zM67.040 50.800h0.320v0.320h-0.320zM67.360 50.800h0.320v0.320h-0.320zM68.960 50.800h0.320v0.320h-0.320zM69.600 50.800h0.320v0.320h-0.320zM70.880 50.800h0.320v0.320h-0.320zM71.200 50.800h0.320v0.320h-0.320zM71.840 50.800h0.320v0.320h-0.320zM72.480 50.800h0.320v0.320h-0.320zM72.800 50.800h0.320v0.320h-0.320zM73.120 50.800h0.320v0.320h-0.320zM73.440 50.800h0.320v0.320h-0.320zM74.400 50.800h0.320v0.320h-0.320zM75.360 50.800h0.320v0.320h-0.320zM75.680 50.800h0.320v0.320h-0.320zM76.320 50.800h0.320v0.320h-0.320zM76.640 50.800h0.320v0.320h-0.320zM78.240 50.800h0.320v0.320h-0.320zM78.560 50.800h0.320v0.320h-0.320zM78.880 50.800h0.320v0.320h-0.320zM79.520 50.800h0.320v0.320h-0.320zM80.160 50.800h0.320v0.320h-0.320zM80.800 50.800h0.320v0.320h-0.320zM81.440 50.800h0.320v0.320h-0.320zM82.080 50.800h0.320v0.320h-0.320zM82.400 50.800h0.320v0.320h-0.320zM82.720 50.800h0.320v0.320h-0.320zM60.960 51.120h0.320v0.320h-0.320zM62.880 51.120h0.320v0.320h-0.320zM63.840 51.120h0.320v0.320h-0.320zM65.440 51.120h0.320v0.320h-0.320zM65.760 51.120h0.320v0.320h-0.320zM66.080 51.120h0.320v0.320h-0.320zM67.040 51.120h0.320v0.320h-0.320zM67.360 51.120h0.320v0.320h-0.320zM67.680 51.120h0.320v0.320h-0.320zM68.320 51.120h0.320v0.320h-0.320zM69.920 51.120h0.320v0.320h-0.320zM70.560 51.120h0.320v0.320h-0.320zM70.880 51.120h0.320v0.320h-0.320zM71.200 51.120h0.320v0.320h-0.320zM72.480 51.120h0.320v0.320h-0.320zM72.800 51.120h0.320v0.320h-0.320zM73.440 51.120h0.320v0.320h-0.320zM73.760 51.120h0.320v0.320h-0.320zM74.400 51.120h0.320v0.320h-0.320zM75.040 51.120h0.320v0.320h-0.320zM76.000 51.120h0.320v0.320h-0.320zM76.320 51.120h0.320v0.320h-0.320zM76.960 51.120h0.320v0.320h-0.320zM77.280 51.120h0.320v0.320h-0.320zM77.920 51.120h0.320v0.320h-0.320zM78.880 51.120h0.320v0.320h-0.320zM79.520 51.120h0.320v0.320h-0.320zM80.160 51.120h0.320v0.320h-0.320zM81.440 51.120h0.320v0.320h-0.320zM60.960 51.440h0.320v0.320h-0.320zM61.600 51.440h0.320v0.320h-0.320zM61.920 51.440h0.320v0.320h-0.320zM62.240 51.440h0.320v0.320h-0.320zM62.880 51.440h0.320v0.320h-0.320zM63.520 51.440h0.320v0.320h-0.320zM64.480 51.440h0.320v0.320h-0.320zM64.800 51.440h0.320v0.320h-0.320zM65.440 51.440h0.320v0.320h-0.320zM66.080 51.440h0.320v0.320h-0.320zM66.400 51.440h0.320v0.320h-0.320zM66.720 51.440h0.320v0.320h-0.320zM67.040 51.440h0.320v0.320h-0.320zM67.360 51.440h0.320v0.320h-0.320zM68.320 51.440h0.320v0.320h-0.320zM68.640 51.440h0.320v0.320h-0.320zM68.960 51.440h0.320v0.320h-0.320zM69.920 51.440h0.320v0.320h-0.320zM70.240 51.440h0.320v0.320h-0.320zM70.560 51.440h0.320v0.320h-0.320zM71.200 51.440h0.320v0.320h-0.320zM71.520 51.440h0.320v0.320h-0.320zM71.840 51.440h0.320v0.320h-0.320zM72.160 51.440h0.320v0.320h-0.320zM72.480 51.440h0.320v0.320h-0.320zM72.800 51.440h0.320v0.320h-0.320zM73.440 51.440h0.320v0.320h-0.320zM73.760 51.440h0.320v0.320h-0.320zM74.080 51.440h0.320v0.320h-0.320zM74.400 51.440h0.320v0.320h-0.320zM75.040 51.440h0.320v0.320h-0.320zM76.000 51.440h0.320v0.320h-0.320zM76.320 51.440h0.320v0.320h-0.320zM76.960 51.440h0.320v0.320h-0.320zM77.280 51.440h0.320v0.320h-0.320zM77.600 51.440h0.320v0.320h-0.320zM78.240 51.440h0.320v0.320h-0.320zM78.560 51.440h0.320v0.320h-0.320zM78.880 51.440h0.320v0.320h-0.320zM80.160 51.440h0.320v0.320h-0.320zM80.480 51.440h0.320v0.320h-0.320zM80.800 51.440h0.320v0.320h-0.320zM81.120 51.440h0.320v0.320h-0.320zM81.440 51.440h0.320v0.320h-0.320zM60.960 51.760h0.320v0.320h-0.320zM61.600 51.760h0.320v0.320h-0.320zM61.920 51.760h0.320v0.320h-0.320zM62.240 51.760h0.320v0.320h-0.320zM62.880 51.760h0.320v0.320h-0.320zM63.840 51.760h0.320v0.320h-0.320zM64.480 51.760h0.320v0.320h-0.320zM64.800 51.760h0.320v0.320h-0.320zM65.440 51.760h0.320v0.320h-0.320zM65.760 51.760h0.320v0.320h-0.320zM66.720 51.760h0.320v0.320h-0.320zM67.360 51.760h0.320v0.320h-0.320zM67.680 51.760h0.320v0.320h-0.320zM68.000 51.760h0.320v0.320h-0.320zM69.600 51.760h0.320v0.320h-0.320zM69.920 51.760h0.320v0.320h-0.320zM70.240 51.760h0.320v0.320h-0.320zM70.560 51.760h0.320v0.320h-0.320zM70.880 51.760h0.320v0.320h-0.320zM71.520 51.760h0.320v0.320h-0.320zM72.160 51.760h0.320v0.320h-0.320zM72.480 51.760h0.320v0.320h-0.320zM72.800 51.760h0.320v0.320h-0.320zM73.120 51.760h0.320v0.320h-0.320zM74.080 51.760h0.320v0.320h-0.320zM74.720 51.760h0.320v0.320h-0.320zM76.000 51.760h0.320v0.320h-0.320zM76.640 51.760h0.320v0.320h-0.320zM77.600 51.760h0.320v0.320h-0.320zM79.200 51.760h0.320v0.320h-0.320zM80.160 51.760h0.320v0.320h-0.320zM81.440 51.760h0.320v0.320h-0.320zM81.760 51.760h0.320v0.320h-0.320zM82.400 51.760h0.320v0.320h-0.320zM60.960 52.080h0.320v0.320h-0.320zM61.600 52.080h0.320v0.320h-0.320zM61.920 52.080h0.320v0.320h-0.320zM62.240 52.080h0.320v0.320h-0.320zM62.880 52.080h0.320v0.320h-0.320zM63.520 52.080h0.320v0.320h-0.320zM63.840 52.080h0.320v0.320h-0.320zM64.480 52.080h0.320v0.320h-0.320zM64.800 52.080h0.320v0.320h-0.320zM65.120 52.080h0.320v0.320h-0.320zM66.400 52.080h0.320v0.320h-0.320zM67.040 52.080h0.320v0.320h-0.320zM67.680 52.080h0.320v0.320h-0.320zM68.320 52.080h0.320v0.320h-0.320zM69.920 52.080h0.320v0.320h-0.320zM70.240 52.080h0.320v0.320h-0.320zM70.560 52.080h0.320v0.320h-0.320zM70.880 52.080h0.320v0.320h-0.320zM71.200 52.080h0.320v0.320h-0.320zM72.800 52.080h0.320v0.320h-0.320zM73.120 52.080h0.320v0.320h-0.320zM73.440 52.080h0.320v0.320h-0.320zM73.760 52.080h0.320v0.320h-0.320zM74.400 52.080h0.320v0.320h-0.320zM74.720 52.080h0.320v0.320h-0.320zM75.040 52.080h0.320v0.320h-0.320zM76.320 52.080h0.320v0.320h-0.320zM76.640 52.080h0.320v0.320h-0.320zM77.600 52.080h0.320v0.320h-0.320zM77.920 52.080h0.320v0.320h-0.320zM78.560 52.080h0.320v0.320h-0.320zM78.880 52.080h0.320v0.320h-0.320zM79.200 52.080h0.320v0.320h-0.320zM80.160 52.080h0.320v0.320h-0.320zM81.120 52.080h0.320v0.320h-0.320zM81.440 52.080h0.320v0.320h-0.320zM82.720 52.080h0.320v0.320h-0.320zM60.960 52.400h0.320v0.320h-0.320zM62.880 52.400h0.320v0.320h-0.320zM63.520 52.400h0.320v0.320h-0.320zM64.480 52.400h0.320v0.320h-0.320zM65.440 52.400h0.320v0.320h-0.320zM65.760 52.400h0.320v0.320h-0.320zM66.400 52.400h0.320v0.320h-0.320zM67.040 52.400h0.320v0.320h-0.320zM67.680 52.400h0.320v0.320h-0.320zM68.000 52.400h0.320v0.320h-0.320zM68.320 52.400h0.320v0.320h-0.320zM69.280 52.400h0.320v0.320h-0.320zM69.600 52.400h0.320v0.320h-0.320zM69.920 52.400h0.320v0.320h-0.320zM70.560 52.400h0.320v0.320h-0.320zM70.880 52.400h0.320v0.320h-0.320zM71.200 52.400h0.320v0.320h-0.320zM72.480 52.400h0.320v0.320h-0.320zM73.120 52.400h0.320v0.320h-0.320zM73.760 52.400h0.320v0.320h-0.320zM74.080 52.400h0.320v0.320h-0.320zM74.400 52.400h0.320v0.320h-0.320zM74.720 52.400h0.320v0.320h-0.320zM75.040 52.400h0.320v0.320h-0.320zM75.360 52.400h0.320v0.320h-0.320zM75.680 52.400h0.320v0.320h-0.320zM76.320 52.400h0.320v0.320h-0.320zM76.960 52.400h0.320v0.320h-0.320zM77.600 52.400h0.320v0.320h-0.320zM78.560 52.400h0.320v0.320h-0.320zM79.520 52.400h0.320v0.320h-0.320zM79.840 52.400h0.320v0.320h-0.320zM80.480 52.400h0.320v0.320h-0.320zM81.440 52.400h0.320v0.320h-0.320zM81.760 52.400h0.320v0.320h-0.320zM82.400 52.400h0.320v0.320h-0.320zM60.960 52.720h0.320v0.320h-0.320zM61.280 52.720h0.320v0.320h-0.320zM61.600 52.720h0.320v0.320h-0.320zM61.920 52.720h0.320v0.320h-0.320zM62.240 52.720h0.320v0.320h-0.320zM62.560 52.720h0.320v0.320h-0.320zM62.880 52.720h0.320v0.320h-0.320zM65.440 52.720h0.320v0.320h-0.320zM65.760 52.720h0.320v0.320h-0.320zM66.080 52.720h0.320v0.320h-0.320zM66.720 52.720h0.320v0.320h-0.320zM68.320 52.720h0.320v0.320h-0.320zM68.960 52.720h0.320v0.320h-0.320zM69.600 52.720h0.320v0.320h-0.320zM70.880 52.720h0.320v0.320h-0.320zM71.200 52.720h0.320v0.320h-0.320zM71.520 52.720h0.320v0.320h-0.320zM73.440 52.720h0.320v0.320h-0.320zM73.760 52.720h0.320v0.320h-0.320zM74.400 52.720h0.320v0.320h-0.320zM74.720 52.720h0.320v0.320h-0.320zM75.040 52.720h0.320v0.320h-0.320zM75.360 52.720h0.320v0.320h-0.320zM75.680 52.720h0.320v0.320h-0.320zM76.320 52.720h0.320v0.320h-0.320zM76.960 52.720h0.320v0.320h-0.320zM77.600 52.720h0.320v0.320h-0.320zM78.240 52.720h0.320v0.320h-0.320zM78.880 52.720h0.320v0.320h-0.320zM79.200 52.720h0.320v0.320h-0.320zM79.520 52.720h0.320v0.320h-0.320zM80.160 52.720h0.320v0.320h-0.320zM81.120 52.720h0.320v0.320h-0.320zM81.760 52.720h0.320v0.320h-0.320zM82.400 52.720h0.320v0.320h-0.320zM82.720 52.720h0.320v0.320h-0.320z" fill="#000000" shape-rendering="crispEdges"/><g id="trim-guides" opacity="0.0"><rect x="3.0" y="3.0" width="85.0" height="55.0" fill="none" stroke="#ff00ff" stroke-width="0.1"/></g></svg>